G04 EAGLE Gerber RS-274X export*
G75*
%MOMM*%
%FSLAX34Y34*%
%LPD*%
%INBottom Copper*%
%IPPOS*%
%AMOC8*
5,1,8,0,0,1.08239X$1,22.5*%
G01*
%ADD10P,1.732040X8X22.500000*%
%ADD11P,1.732040X8X202.500000*%
%ADD12C,1.676400*%
%ADD13P,2.336880X8X22.500000*%
%ADD14C,1.219200*%
%ADD15P,1.649562X8X22.500000*%
%ADD16C,2.247900*%
%ADD17C,1.350000*%
%ADD18P,1.539592X8X202.500000*%
%ADD19P,1.948299X8X202.500000*%
%ADD20P,1.319650X8X22.500000*%
%ADD21P,1.319650X8X202.500000*%
%ADD22C,0.406400*%
%ADD23C,0.203200*%

G36*
X195610Y-1252D02*
X195610Y-1252D01*
X195749Y-1239D01*
X195768Y-1232D01*
X195788Y-1229D01*
X195917Y-1178D01*
X196048Y-1131D01*
X196065Y-1120D01*
X196083Y-1112D01*
X196196Y-1031D01*
X196311Y-953D01*
X196324Y-937D01*
X196341Y-926D01*
X196430Y-818D01*
X196521Y-714D01*
X196531Y-696D01*
X196544Y-681D01*
X196603Y-555D01*
X196666Y-431D01*
X196670Y-411D01*
X196679Y-393D01*
X196705Y-257D01*
X196736Y-121D01*
X196735Y-100D01*
X196739Y-81D01*
X196730Y58D01*
X196726Y197D01*
X196720Y217D01*
X196719Y237D01*
X196676Y369D01*
X196638Y503D01*
X196627Y520D01*
X196621Y539D01*
X196547Y657D01*
X196476Y777D01*
X196458Y798D01*
X196451Y808D01*
X196436Y822D01*
X196370Y898D01*
X190569Y6698D01*
X190569Y15852D01*
X197043Y22326D01*
X206197Y22326D01*
X212671Y15852D01*
X212671Y6698D01*
X206871Y898D01*
X206785Y788D01*
X206697Y681D01*
X206688Y662D01*
X206676Y646D01*
X206620Y518D01*
X206561Y393D01*
X206557Y373D01*
X206549Y354D01*
X206527Y216D01*
X206501Y81D01*
X206503Y60D01*
X206499Y40D01*
X206513Y-99D01*
X206521Y-237D01*
X206527Y-256D01*
X206529Y-276D01*
X206576Y-408D01*
X206619Y-539D01*
X206630Y-557D01*
X206637Y-576D01*
X206715Y-691D01*
X206789Y-808D01*
X206804Y-822D01*
X206815Y-839D01*
X206920Y-931D01*
X207021Y-1026D01*
X207039Y-1036D01*
X207054Y-1049D01*
X207178Y-1113D01*
X207299Y-1180D01*
X207319Y-1185D01*
X207337Y-1194D01*
X207473Y-1224D01*
X207607Y-1259D01*
X207635Y-1261D01*
X207647Y-1264D01*
X207668Y-1263D01*
X207768Y-1269D01*
X315472Y-1269D01*
X315609Y-1252D01*
X315748Y-1239D01*
X315767Y-1232D01*
X315787Y-1229D01*
X315916Y-1178D01*
X316048Y-1131D01*
X316064Y-1120D01*
X316083Y-1112D01*
X316196Y-1031D01*
X316311Y-953D01*
X316324Y-937D01*
X316341Y-926D01*
X316429Y-818D01*
X316521Y-714D01*
X316530Y-696D01*
X316543Y-681D01*
X316603Y-555D01*
X316666Y-431D01*
X316670Y-411D01*
X316679Y-393D01*
X316705Y-257D01*
X316735Y-121D01*
X316735Y-100D01*
X316739Y-81D01*
X316730Y58D01*
X316726Y197D01*
X316720Y217D01*
X316719Y237D01*
X316676Y369D01*
X316637Y503D01*
X316627Y520D01*
X316621Y539D01*
X316546Y657D01*
X316476Y777D01*
X316457Y798D01*
X316451Y808D01*
X316436Y822D01*
X316369Y898D01*
X310569Y6698D01*
X310569Y15852D01*
X317043Y22326D01*
X326197Y22326D01*
X332671Y15852D01*
X332671Y6698D01*
X326870Y898D01*
X326785Y788D01*
X326696Y681D01*
X326688Y662D01*
X326675Y646D01*
X326620Y518D01*
X326561Y393D01*
X326557Y373D01*
X326549Y354D01*
X326527Y216D01*
X326501Y81D01*
X326502Y60D01*
X326499Y40D01*
X326512Y-99D01*
X326521Y-237D01*
X326527Y-256D01*
X326529Y-276D01*
X326576Y-408D01*
X326619Y-539D01*
X326630Y-557D01*
X326637Y-576D01*
X326715Y-691D01*
X326789Y-808D01*
X326804Y-822D01*
X326815Y-839D01*
X326919Y-931D01*
X327021Y-1026D01*
X327038Y-1036D01*
X327054Y-1049D01*
X327178Y-1113D01*
X327299Y-1180D01*
X327319Y-1185D01*
X327337Y-1194D01*
X327473Y-1224D01*
X327607Y-1259D01*
X327635Y-1261D01*
X327647Y-1264D01*
X327668Y-1263D01*
X327768Y-1269D01*
X629920Y-1269D01*
X630038Y-1254D01*
X630157Y-1247D01*
X630195Y-1234D01*
X630236Y-1229D01*
X630346Y-1186D01*
X630459Y-1149D01*
X630494Y-1127D01*
X630531Y-1112D01*
X630627Y-1043D01*
X630728Y-979D01*
X630756Y-949D01*
X630789Y-926D01*
X630865Y-834D01*
X630946Y-747D01*
X630966Y-712D01*
X630991Y-681D01*
X631042Y-573D01*
X631100Y-469D01*
X631110Y-429D01*
X631127Y-393D01*
X631149Y-276D01*
X631179Y-161D01*
X631183Y-101D01*
X631187Y-81D01*
X631185Y-60D01*
X631189Y0D01*
X631189Y108258D01*
X633422Y110491D01*
X666750Y110491D01*
X666868Y110506D01*
X666987Y110513D01*
X667025Y110526D01*
X667066Y110531D01*
X667176Y110574D01*
X667289Y110611D01*
X667324Y110633D01*
X667361Y110648D01*
X667457Y110717D01*
X667558Y110781D01*
X667586Y110811D01*
X667619Y110834D01*
X667695Y110926D01*
X667776Y111013D01*
X667796Y111048D01*
X667821Y111079D01*
X667872Y111187D01*
X667930Y111291D01*
X667940Y111331D01*
X667957Y111367D01*
X667979Y111484D01*
X668009Y111599D01*
X668013Y111659D01*
X668017Y111679D01*
X668015Y111700D01*
X668019Y111760D01*
X668019Y619760D01*
X668004Y619878D01*
X667997Y619997D01*
X667984Y620035D01*
X667979Y620076D01*
X667936Y620186D01*
X667899Y620299D01*
X667877Y620334D01*
X667862Y620371D01*
X667793Y620467D01*
X667729Y620568D01*
X667699Y620596D01*
X667676Y620629D01*
X667584Y620705D01*
X667497Y620786D01*
X667462Y620806D01*
X667431Y620831D01*
X667323Y620882D01*
X667219Y620940D01*
X667179Y620950D01*
X667143Y620967D01*
X667026Y620989D01*
X666911Y621019D01*
X666851Y621023D01*
X666831Y621027D01*
X666810Y621025D01*
X666750Y621029D01*
X633422Y621029D01*
X631189Y623262D01*
X631189Y736600D01*
X631174Y736718D01*
X631167Y736837D01*
X631154Y736875D01*
X631149Y736916D01*
X631106Y737026D01*
X631069Y737139D01*
X631047Y737174D01*
X631032Y737211D01*
X630963Y737307D01*
X630899Y737408D01*
X630869Y737436D01*
X630846Y737469D01*
X630754Y737545D01*
X630667Y737626D01*
X630632Y737646D01*
X630601Y737671D01*
X630493Y737722D01*
X630389Y737780D01*
X630349Y737790D01*
X630313Y737807D01*
X630196Y737829D01*
X630081Y737859D01*
X630021Y737863D01*
X630001Y737867D01*
X629980Y737865D01*
X629920Y737869D01*
X456102Y737869D01*
X456032Y737861D01*
X455963Y737862D01*
X455875Y737841D01*
X455786Y737829D01*
X455721Y737804D01*
X455653Y737787D01*
X455574Y737745D01*
X455490Y737712D01*
X455434Y737671D01*
X455372Y737639D01*
X455306Y737578D01*
X455233Y737526D01*
X455189Y737472D01*
X455137Y737425D01*
X455088Y737350D01*
X455030Y737281D01*
X455001Y737217D01*
X454962Y737159D01*
X454933Y737074D01*
X454895Y736993D01*
X454882Y736924D01*
X454859Y736858D01*
X454852Y736769D01*
X454835Y736681D01*
X454839Y736611D01*
X454834Y736541D01*
X454849Y736453D01*
X454855Y736363D01*
X454876Y736297D01*
X454888Y736228D01*
X454925Y736146D01*
X454953Y736061D01*
X454990Y736002D01*
X455019Y735938D01*
X455075Y735868D01*
X455123Y735792D01*
X455174Y735744D01*
X455217Y735690D01*
X455289Y735636D01*
X455355Y735574D01*
X455416Y735540D01*
X455471Y735498D01*
X455616Y735427D01*
X456235Y735171D01*
X458711Y732695D01*
X460051Y729461D01*
X460051Y725959D01*
X458711Y722725D01*
X456235Y720249D01*
X453001Y718909D01*
X435999Y718909D01*
X432765Y720249D01*
X430289Y722725D01*
X428949Y725959D01*
X428949Y729461D01*
X430289Y732695D01*
X432765Y735171D01*
X433384Y735427D01*
X433445Y735462D01*
X433510Y735488D01*
X433582Y735540D01*
X433660Y735585D01*
X433710Y735633D01*
X433767Y735674D01*
X433824Y735744D01*
X433889Y735806D01*
X433925Y735866D01*
X433970Y735919D01*
X434008Y736001D01*
X434055Y736077D01*
X434076Y736144D01*
X434105Y736207D01*
X434122Y736295D01*
X434149Y736381D01*
X434152Y736451D01*
X434165Y736520D01*
X434159Y736609D01*
X434164Y736699D01*
X434150Y736767D01*
X434145Y736837D01*
X434118Y736922D01*
X434099Y737010D01*
X434069Y737073D01*
X434047Y737139D01*
X433999Y737215D01*
X433960Y737296D01*
X433914Y737349D01*
X433877Y737408D01*
X433812Y737470D01*
X433753Y737538D01*
X433696Y737578D01*
X433645Y737626D01*
X433567Y737669D01*
X433493Y737721D01*
X433428Y737746D01*
X433367Y737780D01*
X433280Y737802D01*
X433196Y737834D01*
X433127Y737842D01*
X433059Y737859D01*
X432898Y737869D01*
X279180Y737869D01*
X279101Y737859D01*
X279021Y737859D01*
X278944Y737839D01*
X278864Y737829D01*
X278790Y737800D01*
X278713Y737780D01*
X278643Y737742D01*
X278568Y737712D01*
X278504Y737666D01*
X278434Y737627D01*
X278376Y737573D01*
X278311Y737526D01*
X278260Y737464D01*
X278202Y737410D01*
X278159Y737342D01*
X278108Y737281D01*
X278074Y737209D01*
X278032Y737141D01*
X278007Y737065D01*
X277973Y736993D01*
X277958Y736915D01*
X277933Y736839D01*
X277928Y736759D01*
X277913Y736681D01*
X277918Y736601D01*
X277913Y736522D01*
X277928Y736443D01*
X277933Y736363D01*
X277957Y736287D01*
X277972Y736209D01*
X278006Y736137D01*
X278031Y736061D01*
X278073Y735993D01*
X278107Y735921D01*
X278158Y735859D01*
X278201Y735792D01*
X278259Y735737D01*
X278310Y735676D01*
X278431Y735575D01*
X278432Y735574D01*
X278433Y735574D01*
X278434Y735573D01*
X279031Y735139D01*
X279502Y734797D01*
X280537Y733763D01*
X281396Y732579D01*
X282060Y731276D01*
X282488Y729959D01*
X267680Y729959D01*
X267562Y729944D01*
X267443Y729937D01*
X267405Y729924D01*
X267365Y729919D01*
X267254Y729876D01*
X267141Y729839D01*
X267107Y729817D01*
X267069Y729802D01*
X266973Y729733D01*
X266872Y729669D01*
X266844Y729639D01*
X266812Y729616D01*
X266736Y729524D01*
X266704Y729490D01*
X266699Y729498D01*
X266669Y729526D01*
X266645Y729559D01*
X266554Y729635D01*
X266467Y729716D01*
X266432Y729736D01*
X266400Y729761D01*
X266293Y729812D01*
X266188Y729870D01*
X266149Y729880D01*
X266113Y729897D01*
X265996Y729919D01*
X265880Y729949D01*
X265820Y729953D01*
X265800Y729957D01*
X265780Y729955D01*
X265720Y729959D01*
X250912Y729959D01*
X251340Y731276D01*
X252004Y732579D01*
X252863Y733763D01*
X253898Y734797D01*
X254966Y735573D01*
X255024Y735628D01*
X255089Y735674D01*
X255140Y735736D01*
X255198Y735791D01*
X255241Y735858D01*
X255292Y735919D01*
X255326Y735992D01*
X255369Y736059D01*
X255393Y736135D01*
X255427Y736207D01*
X255442Y736286D01*
X255467Y736362D01*
X255472Y736441D01*
X255487Y736520D01*
X255482Y736599D01*
X255487Y736679D01*
X255472Y736757D01*
X255467Y736837D01*
X255443Y736913D01*
X255428Y736992D01*
X255394Y737064D01*
X255369Y737139D01*
X255326Y737207D01*
X255292Y737279D01*
X255242Y737341D01*
X255199Y737408D01*
X255141Y737463D01*
X255090Y737525D01*
X255026Y737572D01*
X254968Y737626D01*
X254898Y737665D01*
X254833Y737712D01*
X254759Y737741D01*
X254689Y737780D01*
X254612Y737800D01*
X254537Y737829D01*
X254458Y737839D01*
X254381Y737859D01*
X254223Y737869D01*
X254222Y737869D01*
X254221Y737869D01*
X254220Y737869D01*
X5080Y737869D01*
X4962Y737854D01*
X4843Y737847D01*
X4805Y737834D01*
X4764Y737829D01*
X4654Y737786D01*
X4541Y737749D01*
X4506Y737727D01*
X4469Y737712D01*
X4373Y737643D01*
X4272Y737579D01*
X4244Y737549D01*
X4211Y737526D01*
X4135Y737434D01*
X4054Y737347D01*
X4034Y737312D01*
X4009Y737281D01*
X3958Y737173D01*
X3900Y737069D01*
X3890Y737029D01*
X3873Y736993D01*
X3851Y736876D01*
X3821Y736761D01*
X3817Y736701D01*
X3813Y736681D01*
X3815Y736660D01*
X3811Y736600D01*
X3811Y0D01*
X3826Y-118D01*
X3833Y-237D01*
X3846Y-275D01*
X3851Y-316D01*
X3894Y-426D01*
X3931Y-539D01*
X3953Y-574D01*
X3968Y-611D01*
X4037Y-707D01*
X4101Y-808D01*
X4131Y-836D01*
X4154Y-869D01*
X4246Y-945D01*
X4333Y-1026D01*
X4368Y-1046D01*
X4399Y-1071D01*
X4507Y-1122D01*
X4611Y-1180D01*
X4651Y-1190D01*
X4687Y-1207D01*
X4804Y-1229D01*
X4919Y-1259D01*
X4979Y-1263D01*
X4999Y-1267D01*
X5020Y-1265D01*
X5080Y-1269D01*
X195472Y-1269D01*
X195610Y-1252D01*
G37*
%LPC*%
G36*
X80859Y8617D02*
X80859Y8617D01*
X14967Y74509D01*
X14967Y528741D01*
X50632Y564406D01*
X50705Y564500D01*
X50784Y564589D01*
X50802Y564625D01*
X50827Y564657D01*
X50875Y564767D01*
X50929Y564873D01*
X50938Y564912D01*
X50954Y564949D01*
X50972Y565067D01*
X50998Y565183D01*
X50997Y565223D01*
X51003Y565263D01*
X50992Y565382D01*
X50989Y565501D01*
X50977Y565540D01*
X50974Y565580D01*
X50933Y565692D01*
X50900Y565806D01*
X50880Y565841D01*
X50866Y565879D01*
X50799Y565978D01*
X50739Y566080D01*
X50699Y566125D01*
X50687Y566142D01*
X50672Y566156D01*
X50654Y566176D01*
X50654Y576821D01*
X58179Y584346D01*
X68821Y584346D01*
X76346Y576821D01*
X76346Y566179D01*
X68821Y558654D01*
X58173Y558654D01*
X58107Y558705D01*
X58018Y558784D01*
X57982Y558802D01*
X57950Y558827D01*
X57841Y558874D01*
X57735Y558929D01*
X57695Y558938D01*
X57658Y558954D01*
X57541Y558972D01*
X57424Y558998D01*
X57384Y558997D01*
X57344Y559003D01*
X57226Y558992D01*
X57106Y558989D01*
X57068Y558977D01*
X57027Y558974D01*
X56915Y558933D01*
X56801Y558900D01*
X56766Y558880D01*
X56728Y558866D01*
X56629Y558799D01*
X56527Y558739D01*
X56482Y558699D01*
X56465Y558687D01*
X56451Y558672D01*
X56406Y558632D01*
X23504Y525731D01*
X23444Y525652D01*
X23376Y525580D01*
X23347Y525527D01*
X23310Y525479D01*
X23270Y525388D01*
X23222Y525302D01*
X23207Y525243D01*
X23183Y525188D01*
X23168Y525090D01*
X23143Y524994D01*
X23137Y524894D01*
X23133Y524873D01*
X23135Y524861D01*
X23133Y524833D01*
X23133Y78417D01*
X23145Y78319D01*
X23148Y78220D01*
X23165Y78161D01*
X23173Y78101D01*
X23209Y78009D01*
X23237Y77914D01*
X23267Y77862D01*
X23290Y77806D01*
X23348Y77726D01*
X23398Y77640D01*
X23464Y77565D01*
X23476Y77548D01*
X23486Y77541D01*
X23504Y77519D01*
X83869Y17154D01*
X83948Y17094D01*
X84020Y17026D01*
X84073Y16997D01*
X84121Y16960D01*
X84212Y16920D01*
X84298Y16872D01*
X84357Y16857D01*
X84412Y16833D01*
X84510Y16818D01*
X84606Y16793D01*
X84706Y16787D01*
X84727Y16783D01*
X84739Y16785D01*
X84767Y16783D01*
X150183Y16783D01*
X150281Y16795D01*
X150380Y16798D01*
X150439Y16815D01*
X150499Y16823D01*
X150591Y16859D01*
X150686Y16887D01*
X150738Y16917D01*
X150794Y16940D01*
X150874Y16998D01*
X150960Y17048D01*
X151035Y17114D01*
X151052Y17126D01*
X151059Y17136D01*
X151081Y17154D01*
X170171Y36244D01*
X170231Y36323D01*
X170299Y36395D01*
X170328Y36448D01*
X170365Y36496D01*
X170405Y36587D01*
X170453Y36673D01*
X170468Y36732D01*
X170492Y36787D01*
X170507Y36885D01*
X170532Y36981D01*
X170538Y37081D01*
X170542Y37102D01*
X170540Y37114D01*
X170542Y37142D01*
X170542Y77891D01*
X195159Y102508D01*
X218658Y102508D01*
X221421Y99744D01*
X257859Y63306D01*
X257938Y63246D01*
X258010Y63178D01*
X258063Y63149D01*
X258111Y63111D01*
X258202Y63072D01*
X258288Y63024D01*
X258347Y63009D01*
X258402Y62985D01*
X258500Y62969D01*
X258596Y62945D01*
X258696Y62938D01*
X258717Y62935D01*
X258729Y62936D01*
X258757Y62935D01*
X265415Y62935D01*
X270783Y57567D01*
X270783Y49976D01*
X265415Y44609D01*
X257825Y44609D01*
X252457Y49976D01*
X252457Y56635D01*
X252445Y56733D01*
X252442Y56832D01*
X252425Y56890D01*
X252417Y56951D01*
X252381Y57043D01*
X252353Y57138D01*
X252323Y57190D01*
X252300Y57246D01*
X252242Y57326D01*
X252192Y57412D01*
X252126Y57487D01*
X252114Y57504D01*
X252104Y57511D01*
X252086Y57532D01*
X215647Y93971D01*
X215569Y94031D01*
X215497Y94099D01*
X215444Y94128D01*
X215396Y94165D01*
X215305Y94205D01*
X215219Y94253D01*
X215160Y94268D01*
X215104Y94292D01*
X215006Y94307D01*
X214911Y94332D01*
X214811Y94338D01*
X214790Y94342D01*
X214778Y94340D01*
X214750Y94342D01*
X199067Y94342D01*
X198969Y94330D01*
X198870Y94327D01*
X198811Y94310D01*
X198751Y94302D01*
X198659Y94266D01*
X198564Y94238D01*
X198512Y94208D01*
X198456Y94185D01*
X198376Y94127D01*
X198290Y94077D01*
X198215Y94011D01*
X198198Y93999D01*
X198191Y93989D01*
X198169Y93971D01*
X179079Y74881D01*
X179019Y74802D01*
X178951Y74730D01*
X178922Y74677D01*
X178885Y74629D01*
X178845Y74538D01*
X178797Y74452D01*
X178782Y74393D01*
X178758Y74338D01*
X178743Y74240D01*
X178718Y74144D01*
X178712Y74044D01*
X178708Y74023D01*
X178710Y74011D01*
X178708Y73983D01*
X178708Y33234D01*
X154091Y8617D01*
X80859Y8617D01*
G37*
%LPD*%
%LPC*%
G36*
X236423Y9633D02*
X236423Y9633D01*
X226812Y19244D01*
X226734Y19304D01*
X226662Y19372D01*
X226609Y19401D01*
X226561Y19439D01*
X226470Y19478D01*
X226384Y19526D01*
X226325Y19541D01*
X226269Y19565D01*
X226171Y19581D01*
X226076Y19605D01*
X225976Y19612D01*
X225955Y19615D01*
X225943Y19614D01*
X225915Y19615D01*
X217820Y19615D01*
X212452Y24983D01*
X212452Y32574D01*
X217820Y37941D01*
X225410Y37941D01*
X230778Y32574D01*
X230778Y24478D01*
X230790Y24380D01*
X230793Y24281D01*
X230810Y24223D01*
X230818Y24163D01*
X230854Y24071D01*
X230882Y23975D01*
X230912Y23923D01*
X230935Y23867D01*
X230993Y23787D01*
X231043Y23702D01*
X231109Y23626D01*
X231121Y23610D01*
X231131Y23602D01*
X231149Y23581D01*
X238592Y16138D01*
X238670Y16078D01*
X238742Y16010D01*
X238795Y15981D01*
X238843Y15944D01*
X238934Y15904D01*
X239021Y15856D01*
X239079Y15841D01*
X239135Y15817D01*
X239233Y15802D01*
X239329Y15777D01*
X239429Y15771D01*
X239449Y15767D01*
X239461Y15769D01*
X239489Y15767D01*
X264904Y15767D01*
X265002Y15779D01*
X265101Y15782D01*
X265159Y15799D01*
X265219Y15807D01*
X265312Y15843D01*
X265407Y15871D01*
X265459Y15901D01*
X265515Y15924D01*
X265595Y15982D01*
X265681Y16032D01*
X265756Y16098D01*
X265773Y16110D01*
X265780Y16120D01*
X265801Y16138D01*
X275962Y26299D01*
X276022Y26377D01*
X276090Y26449D01*
X276119Y26502D01*
X276156Y26550D01*
X276196Y26641D01*
X276244Y26727D01*
X276259Y26786D01*
X276283Y26842D01*
X276298Y26940D01*
X276323Y27035D01*
X276329Y27135D01*
X276333Y27156D01*
X276331Y27168D01*
X276333Y27196D01*
X276333Y74404D01*
X276321Y74502D01*
X276318Y74601D01*
X276301Y74659D01*
X276293Y74719D01*
X276257Y74812D01*
X276229Y74907D01*
X276199Y74959D01*
X276176Y75015D01*
X276118Y75095D01*
X276068Y75181D01*
X276002Y75256D01*
X275990Y75273D01*
X275980Y75280D01*
X275962Y75301D01*
X240401Y110862D01*
X240323Y110922D01*
X240251Y110990D01*
X240198Y111019D01*
X240150Y111056D01*
X240059Y111096D01*
X239973Y111144D01*
X239914Y111159D01*
X239858Y111183D01*
X239760Y111198D01*
X239665Y111223D01*
X239565Y111229D01*
X239544Y111233D01*
X239532Y111231D01*
X239504Y111233D01*
X185946Y111233D01*
X185848Y111221D01*
X185749Y111218D01*
X185691Y111201D01*
X185630Y111193D01*
X185538Y111157D01*
X185443Y111129D01*
X185391Y111099D01*
X185335Y111076D01*
X185255Y111018D01*
X185169Y110968D01*
X185094Y110902D01*
X185077Y110890D01*
X185070Y110880D01*
X185049Y110862D01*
X174888Y100701D01*
X172720Y98533D01*
X113030Y98533D01*
X110862Y100701D01*
X67681Y143882D01*
X67603Y143942D01*
X67531Y144010D01*
X67478Y144039D01*
X67430Y144076D01*
X67339Y144116D01*
X67253Y144164D01*
X67194Y144179D01*
X67138Y144203D01*
X67040Y144218D01*
X66945Y144243D01*
X66845Y144249D01*
X66824Y144253D01*
X66812Y144251D01*
X66784Y144253D01*
X60126Y144253D01*
X55353Y149026D01*
X55353Y155774D01*
X60126Y160547D01*
X66874Y160547D01*
X71647Y155774D01*
X71647Y149116D01*
X71659Y149018D01*
X71662Y148919D01*
X71679Y148861D01*
X71687Y148801D01*
X71723Y148708D01*
X71751Y148613D01*
X71781Y148561D01*
X71804Y148505D01*
X71862Y148425D01*
X71912Y148339D01*
X71978Y148264D01*
X71990Y148247D01*
X72000Y148240D01*
X72018Y148219D01*
X115199Y105038D01*
X115277Y104978D01*
X115349Y104910D01*
X115402Y104881D01*
X115450Y104844D01*
X115541Y104804D01*
X115627Y104756D01*
X115686Y104741D01*
X115742Y104717D01*
X115840Y104702D01*
X115935Y104677D01*
X116035Y104671D01*
X116056Y104667D01*
X116068Y104669D01*
X116096Y104667D01*
X134748Y104667D01*
X134885Y104684D01*
X135024Y104697D01*
X135043Y104704D01*
X135063Y104707D01*
X135192Y104758D01*
X135323Y104805D01*
X135340Y104816D01*
X135359Y104824D01*
X135472Y104905D01*
X135587Y104983D01*
X135600Y104999D01*
X135616Y105010D01*
X135705Y105118D01*
X135797Y105222D01*
X135806Y105240D01*
X135819Y105255D01*
X135878Y105381D01*
X135942Y105505D01*
X135946Y105525D01*
X135955Y105543D01*
X135981Y105679D01*
X136011Y105815D01*
X136011Y105836D01*
X136015Y105855D01*
X136006Y105994D01*
X136002Y106133D01*
X135996Y106153D01*
X135995Y106173D01*
X135952Y106305D01*
X135913Y106439D01*
X135903Y106456D01*
X135897Y106475D01*
X135822Y106593D01*
X135752Y106713D01*
X135733Y106734D01*
X135727Y106744D01*
X135712Y106758D01*
X135645Y106833D01*
X131553Y110926D01*
X131553Y117674D01*
X136262Y122383D01*
X136322Y122461D01*
X136390Y122533D01*
X136419Y122586D01*
X136456Y122634D01*
X136496Y122725D01*
X136544Y122812D01*
X136559Y122870D01*
X136583Y122926D01*
X136598Y123024D01*
X136623Y123120D01*
X136629Y123220D01*
X136633Y123240D01*
X136631Y123252D01*
X136633Y123280D01*
X136633Y143420D01*
X136621Y143518D01*
X136618Y143617D01*
X136606Y143659D01*
X136605Y143662D01*
X136601Y143676D01*
X136593Y143735D01*
X136557Y143827D01*
X136529Y143923D01*
X136511Y143954D01*
X136507Y143965D01*
X136495Y143985D01*
X136476Y144031D01*
X136418Y144111D01*
X136368Y144196D01*
X136342Y144226D01*
X136337Y144233D01*
X136326Y144244D01*
X136302Y144272D01*
X136290Y144288D01*
X136280Y144296D01*
X136262Y144317D01*
X131553Y149026D01*
X131553Y155774D01*
X136326Y160547D01*
X143074Y160547D01*
X147847Y155774D01*
X147847Y149026D01*
X143138Y144317D01*
X143078Y144239D01*
X143010Y144167D01*
X142989Y144128D01*
X142970Y144106D01*
X142963Y144092D01*
X142944Y144066D01*
X142904Y143975D01*
X142856Y143888D01*
X142843Y143836D01*
X142835Y143818D01*
X142833Y143811D01*
X142817Y143774D01*
X142802Y143676D01*
X142777Y143580D01*
X142771Y143480D01*
X142767Y143460D01*
X142769Y143448D01*
X142767Y143420D01*
X142767Y131336D01*
X142782Y131218D01*
X142789Y131099D01*
X142802Y131061D01*
X142807Y131020D01*
X142850Y130910D01*
X142887Y130797D01*
X142909Y130762D01*
X142924Y130725D01*
X142993Y130629D01*
X143057Y130528D01*
X143087Y130500D01*
X143110Y130467D01*
X143202Y130391D01*
X143289Y130310D01*
X143324Y130290D01*
X143355Y130265D01*
X143463Y130214D01*
X143567Y130156D01*
X143607Y130146D01*
X143643Y130129D01*
X143760Y130107D01*
X143875Y130077D01*
X143935Y130073D01*
X143955Y130069D01*
X143976Y130071D01*
X144036Y130067D01*
X296654Y130067D01*
X296752Y130079D01*
X296851Y130082D01*
X296909Y130099D01*
X296969Y130107D01*
X297062Y130143D01*
X297157Y130171D01*
X297209Y130201D01*
X297265Y130224D01*
X297345Y130282D01*
X297431Y130332D01*
X297506Y130398D01*
X297523Y130410D01*
X297530Y130420D01*
X297551Y130438D01*
X314062Y146949D01*
X314122Y147027D01*
X314190Y147099D01*
X314219Y147152D01*
X314256Y147200D01*
X314296Y147291D01*
X314344Y147377D01*
X314359Y147436D01*
X314383Y147492D01*
X314398Y147590D01*
X314423Y147685D01*
X314429Y147785D01*
X314433Y147806D01*
X314431Y147818D01*
X314433Y147846D01*
X314433Y280670D01*
X383540Y349777D01*
X428646Y349777D01*
X428676Y349780D01*
X428705Y349778D01*
X428833Y349800D01*
X428962Y349817D01*
X428989Y349827D01*
X429018Y349832D01*
X429137Y349886D01*
X429258Y349934D01*
X429281Y349951D01*
X429308Y349963D01*
X429410Y350044D01*
X429515Y350120D01*
X429534Y350143D01*
X429557Y350162D01*
X429635Y350265D01*
X429718Y350365D01*
X429730Y350392D01*
X429748Y350416D01*
X429819Y350560D01*
X430289Y351695D01*
X432765Y354171D01*
X435999Y355511D01*
X453001Y355511D01*
X456235Y354171D01*
X458711Y351695D01*
X460051Y348461D01*
X460051Y344959D01*
X458711Y341725D01*
X456235Y339249D01*
X453001Y337909D01*
X435999Y337909D01*
X432765Y339249D01*
X430289Y341725D01*
X429819Y342860D01*
X429804Y342885D01*
X429795Y342913D01*
X429726Y343023D01*
X429661Y343136D01*
X429641Y343157D01*
X429625Y343182D01*
X429530Y343271D01*
X429440Y343364D01*
X429415Y343380D01*
X429393Y343400D01*
X429280Y343463D01*
X429169Y343531D01*
X429141Y343539D01*
X429115Y343554D01*
X428989Y343586D01*
X428865Y343624D01*
X428836Y343626D01*
X428807Y343633D01*
X428646Y343643D01*
X386606Y343643D01*
X386508Y343631D01*
X386409Y343628D01*
X386351Y343611D01*
X386291Y343603D01*
X386198Y343567D01*
X386103Y343539D01*
X386051Y343509D01*
X385995Y343486D01*
X385915Y343428D01*
X385829Y343378D01*
X385754Y343312D01*
X385737Y343300D01*
X385730Y343290D01*
X385709Y343272D01*
X320938Y278501D01*
X320878Y278423D01*
X320810Y278351D01*
X320781Y278298D01*
X320744Y278250D01*
X320704Y278159D01*
X320656Y278073D01*
X320641Y278014D01*
X320617Y277958D01*
X320602Y277860D01*
X320577Y277765D01*
X320571Y277665D01*
X320567Y277644D01*
X320569Y277632D01*
X320567Y277604D01*
X320567Y144780D01*
X299720Y123933D01*
X144652Y123933D01*
X144515Y123916D01*
X144376Y123903D01*
X144357Y123896D01*
X144337Y123893D01*
X144208Y123842D01*
X144077Y123795D01*
X144060Y123784D01*
X144041Y123776D01*
X143928Y123695D01*
X143813Y123617D01*
X143800Y123601D01*
X143784Y123590D01*
X143695Y123482D01*
X143603Y123378D01*
X143594Y123360D01*
X143581Y123345D01*
X143522Y123219D01*
X143458Y123095D01*
X143454Y123075D01*
X143445Y123057D01*
X143419Y122921D01*
X143389Y122785D01*
X143389Y122764D01*
X143385Y122745D01*
X143394Y122606D01*
X143398Y122467D01*
X143404Y122447D01*
X143405Y122427D01*
X143448Y122295D01*
X143487Y122161D01*
X143497Y122144D01*
X143503Y122125D01*
X143578Y122007D01*
X143648Y121887D01*
X143667Y121866D01*
X143673Y121856D01*
X143688Y121842D01*
X143755Y121767D01*
X147847Y117674D01*
X147847Y110926D01*
X143755Y106833D01*
X143669Y106724D01*
X143581Y106617D01*
X143572Y106598D01*
X143560Y106582D01*
X143504Y106454D01*
X143445Y106329D01*
X143441Y106309D01*
X143433Y106290D01*
X143411Y106152D01*
X143385Y106016D01*
X143387Y105996D01*
X143384Y105976D01*
X143397Y105837D01*
X143405Y105699D01*
X143411Y105680D01*
X143413Y105660D01*
X143461Y105528D01*
X143503Y105397D01*
X143514Y105379D01*
X143521Y105360D01*
X143599Y105245D01*
X143673Y105128D01*
X143688Y105114D01*
X143700Y105097D01*
X143804Y105005D01*
X143905Y104910D01*
X143923Y104900D01*
X143938Y104887D01*
X144062Y104823D01*
X144184Y104756D01*
X144203Y104751D01*
X144221Y104742D01*
X144357Y104712D01*
X144491Y104677D01*
X144520Y104675D01*
X144532Y104672D01*
X144552Y104673D01*
X144652Y104667D01*
X169654Y104667D01*
X169752Y104679D01*
X169851Y104682D01*
X169909Y104699D01*
X169969Y104707D01*
X170062Y104743D01*
X170157Y104771D01*
X170209Y104801D01*
X170265Y104824D01*
X170345Y104882D01*
X170431Y104932D01*
X170506Y104998D01*
X170523Y105010D01*
X170530Y105020D01*
X170551Y105038D01*
X180712Y115199D01*
X182880Y117367D01*
X242570Y117367D01*
X282467Y77470D01*
X282467Y24130D01*
X267970Y9633D01*
X236423Y9633D01*
G37*
%LPD*%
%LPC*%
G36*
X597720Y10903D02*
X597720Y10903D01*
X592055Y16568D01*
X592055Y24687D01*
X592064Y24707D01*
X592118Y24813D01*
X592127Y24852D01*
X592143Y24889D01*
X592162Y25007D01*
X592188Y25123D01*
X592187Y25163D01*
X592193Y25203D01*
X592182Y25322D01*
X592178Y25441D01*
X592167Y25480D01*
X592163Y25520D01*
X592123Y25632D01*
X592090Y25746D01*
X592069Y25781D01*
X592056Y25819D01*
X591989Y25918D01*
X591928Y26020D01*
X591888Y26066D01*
X591877Y26082D01*
X591862Y26096D01*
X591822Y26141D01*
X586213Y31750D01*
X586213Y90279D01*
X586198Y90397D01*
X586191Y90516D01*
X586178Y90554D01*
X586173Y90595D01*
X586130Y90705D01*
X586093Y90818D01*
X586071Y90853D01*
X586056Y90890D01*
X585987Y90986D01*
X585923Y91087D01*
X585893Y91115D01*
X585870Y91148D01*
X585778Y91224D01*
X585691Y91305D01*
X585656Y91325D01*
X585625Y91350D01*
X585517Y91401D01*
X585413Y91459D01*
X585373Y91469D01*
X585337Y91486D01*
X585220Y91508D01*
X585134Y91530D01*
X579228Y97436D01*
X579228Y105791D01*
X579258Y105825D01*
X579277Y105861D01*
X579301Y105893D01*
X579348Y106002D01*
X579403Y106108D01*
X579412Y106148D01*
X579428Y106185D01*
X579446Y106302D01*
X579472Y106418D01*
X579471Y106459D01*
X579477Y106499D01*
X579466Y106617D01*
X579463Y106736D01*
X579451Y106775D01*
X579448Y106815D01*
X579407Y106927D01*
X579374Y107042D01*
X579354Y107077D01*
X579340Y107115D01*
X579273Y107213D01*
X579213Y107316D01*
X579173Y107361D01*
X579162Y107378D01*
X579146Y107391D01*
X579106Y107437D01*
X543931Y142612D01*
X543853Y142672D01*
X543781Y142740D01*
X543728Y142769D01*
X543680Y142806D01*
X543589Y142846D01*
X543503Y142894D01*
X543444Y142909D01*
X543388Y142933D01*
X543290Y142948D01*
X543195Y142973D01*
X543095Y142979D01*
X543074Y142983D01*
X543062Y142981D01*
X543034Y142983D01*
X525780Y142983D01*
X523612Y145151D01*
X485883Y182880D01*
X485883Y379204D01*
X485871Y379302D01*
X485868Y379401D01*
X485851Y379459D01*
X485843Y379520D01*
X485807Y379612D01*
X485779Y379707D01*
X485749Y379759D01*
X485726Y379815D01*
X485668Y379895D01*
X485618Y379981D01*
X485552Y380056D01*
X485540Y380073D01*
X485530Y380080D01*
X485512Y380101D01*
X471541Y394072D01*
X471463Y394132D01*
X471391Y394200D01*
X471338Y394229D01*
X471290Y394266D01*
X471199Y394306D01*
X471113Y394354D01*
X471054Y394369D01*
X470998Y394393D01*
X470900Y394408D01*
X470805Y394433D01*
X470705Y394439D01*
X470684Y394443D01*
X470672Y394441D01*
X470644Y394443D01*
X460354Y394443D01*
X460324Y394440D01*
X460295Y394442D01*
X460167Y394420D01*
X460038Y394403D01*
X460011Y394393D01*
X459982Y394388D01*
X459863Y394334D01*
X459742Y394286D01*
X459719Y394269D01*
X459692Y394257D01*
X459590Y394176D01*
X459485Y394100D01*
X459466Y394077D01*
X459443Y394058D01*
X459365Y393955D01*
X459282Y393855D01*
X459270Y393828D01*
X459252Y393804D01*
X459181Y393660D01*
X458711Y392525D01*
X456235Y390049D01*
X453001Y388709D01*
X435999Y388709D01*
X432765Y390049D01*
X430289Y392525D01*
X428949Y395759D01*
X428949Y399261D01*
X430289Y402495D01*
X432765Y404971D01*
X435999Y406311D01*
X453001Y406311D01*
X456235Y404971D01*
X458711Y402495D01*
X459181Y401360D01*
X459196Y401335D01*
X459205Y401307D01*
X459274Y401197D01*
X459339Y401084D01*
X459359Y401063D01*
X459375Y401038D01*
X459470Y400949D01*
X459560Y400856D01*
X459585Y400840D01*
X459607Y400820D01*
X459720Y400757D01*
X459831Y400689D01*
X459859Y400681D01*
X459885Y400666D01*
X460011Y400634D01*
X460135Y400596D01*
X460164Y400594D01*
X460193Y400587D01*
X460354Y400577D01*
X473710Y400577D01*
X489849Y384438D01*
X492017Y382270D01*
X492017Y185946D01*
X492029Y185848D01*
X492032Y185749D01*
X492049Y185691D01*
X492057Y185631D01*
X492093Y185538D01*
X492121Y185443D01*
X492151Y185391D01*
X492174Y185335D01*
X492232Y185255D01*
X492282Y185169D01*
X492348Y185094D01*
X492360Y185077D01*
X492370Y185070D01*
X492388Y185049D01*
X527949Y149488D01*
X528027Y149428D01*
X528099Y149360D01*
X528152Y149331D01*
X528200Y149294D01*
X528291Y149254D01*
X528377Y149206D01*
X528436Y149191D01*
X528492Y149167D01*
X528590Y149152D01*
X528685Y149127D01*
X528785Y149121D01*
X528806Y149117D01*
X528818Y149119D01*
X528846Y149117D01*
X546100Y149117D01*
X583443Y111774D01*
X583538Y111700D01*
X583627Y111622D01*
X583663Y111604D01*
X583695Y111579D01*
X583804Y111531D01*
X583910Y111477D01*
X583949Y111468D01*
X583987Y111452D01*
X584104Y111434D01*
X584220Y111408D01*
X584261Y111409D01*
X584301Y111403D01*
X584420Y111414D01*
X584538Y111417D01*
X584577Y111429D01*
X584617Y111432D01*
X584730Y111473D01*
X584844Y111506D01*
X584878Y111526D01*
X584917Y111540D01*
X585015Y111607D01*
X585091Y111652D01*
X593444Y111652D01*
X599332Y105764D01*
X599332Y97436D01*
X593424Y91529D01*
X593379Y91526D01*
X593341Y91513D01*
X593300Y91508D01*
X593190Y91465D01*
X593077Y91428D01*
X593042Y91406D01*
X593005Y91391D01*
X592909Y91322D01*
X592808Y91258D01*
X592780Y91228D01*
X592747Y91205D01*
X592671Y91113D01*
X592590Y91026D01*
X592570Y90991D01*
X592545Y90960D01*
X592494Y90852D01*
X592436Y90748D01*
X592426Y90708D01*
X592409Y90672D01*
X592387Y90555D01*
X592357Y90440D01*
X592353Y90380D01*
X592349Y90360D01*
X592351Y90339D01*
X592347Y90279D01*
X592347Y34816D01*
X592359Y34718D01*
X592362Y34619D01*
X592379Y34561D01*
X592387Y34501D01*
X592423Y34408D01*
X592451Y34313D01*
X592481Y34261D01*
X592504Y34205D01*
X592562Y34125D01*
X592612Y34039D01*
X592678Y33964D01*
X592690Y33947D01*
X592700Y33940D01*
X592718Y33919D01*
X596159Y30478D01*
X596253Y30405D01*
X596342Y30326D01*
X596378Y30308D01*
X596410Y30283D01*
X596519Y30236D01*
X596625Y30182D01*
X596665Y30173D01*
X596702Y30157D01*
X596820Y30138D01*
X596936Y30112D01*
X596976Y30113D01*
X597016Y30107D01*
X597135Y30118D01*
X597254Y30122D01*
X597292Y30133D01*
X597333Y30137D01*
X597445Y30177D01*
X597559Y30210D01*
X597594Y30231D01*
X597632Y30245D01*
X605732Y30245D01*
X611397Y24580D01*
X611397Y16568D01*
X605732Y10903D01*
X597720Y10903D01*
G37*
%LPD*%
%LPC*%
G36*
X437700Y10903D02*
X437700Y10903D01*
X432035Y16568D01*
X432035Y24687D01*
X432044Y24707D01*
X432098Y24813D01*
X432107Y24852D01*
X432123Y24889D01*
X432142Y25007D01*
X432168Y25123D01*
X432167Y25163D01*
X432173Y25203D01*
X432162Y25322D01*
X432158Y25441D01*
X432147Y25480D01*
X432143Y25520D01*
X432103Y25632D01*
X432070Y25746D01*
X432049Y25781D01*
X432035Y25819D01*
X431969Y25918D01*
X431908Y26020D01*
X431868Y26066D01*
X431857Y26082D01*
X431842Y26096D01*
X431802Y26141D01*
X430902Y27041D01*
X430901Y27042D01*
X428733Y29210D01*
X428733Y71229D01*
X428718Y71347D01*
X428711Y71466D01*
X428698Y71504D01*
X428693Y71545D01*
X428650Y71655D01*
X428613Y71768D01*
X428591Y71803D01*
X428576Y71840D01*
X428507Y71936D01*
X428443Y72037D01*
X428413Y72065D01*
X428390Y72098D01*
X428298Y72174D01*
X428211Y72255D01*
X428176Y72275D01*
X428145Y72300D01*
X428037Y72351D01*
X427933Y72409D01*
X427893Y72419D01*
X427857Y72436D01*
X427740Y72458D01*
X427654Y72480D01*
X421748Y78386D01*
X421748Y86714D01*
X427636Y92602D01*
X435991Y92602D01*
X436025Y92572D01*
X436061Y92554D01*
X436093Y92529D01*
X436202Y92481D01*
X436308Y92427D01*
X436348Y92418D01*
X436385Y92402D01*
X436502Y92384D01*
X436618Y92358D01*
X436659Y92359D01*
X436699Y92353D01*
X436817Y92364D01*
X436936Y92367D01*
X436975Y92379D01*
X437015Y92382D01*
X437128Y92423D01*
X437242Y92456D01*
X437277Y92476D01*
X437315Y92490D01*
X437413Y92557D01*
X437516Y92617D01*
X437561Y92657D01*
X437578Y92669D01*
X437591Y92684D01*
X437637Y92724D01*
X466462Y121549D01*
X466522Y121627D01*
X466590Y121699D01*
X466619Y121752D01*
X466656Y121800D01*
X466696Y121891D01*
X466744Y121977D01*
X466759Y122036D01*
X466783Y122092D01*
X466798Y122190D01*
X466823Y122285D01*
X466829Y122385D01*
X466833Y122406D01*
X466831Y122418D01*
X466833Y122446D01*
X466833Y360154D01*
X466821Y360252D01*
X466818Y360351D01*
X466801Y360409D01*
X466793Y360469D01*
X466757Y360562D01*
X466729Y360657D01*
X466699Y360709D01*
X466676Y360765D01*
X466618Y360845D01*
X466568Y360931D01*
X466502Y361006D01*
X466490Y361023D01*
X466480Y361030D01*
X466462Y361051D01*
X460447Y367066D01*
X460353Y367139D01*
X460264Y367218D01*
X460228Y367236D01*
X460196Y367261D01*
X460086Y367308D01*
X459980Y367362D01*
X459941Y367371D01*
X459904Y367387D01*
X459786Y367406D01*
X459670Y367432D01*
X459630Y367431D01*
X459590Y367437D01*
X459471Y367426D01*
X459352Y367422D01*
X459313Y367411D01*
X459273Y367407D01*
X459161Y367367D01*
X459047Y367334D01*
X459012Y367313D01*
X458974Y367300D01*
X458875Y367233D01*
X458773Y367172D01*
X458728Y367133D01*
X458711Y367121D01*
X458697Y367106D01*
X458652Y367066D01*
X456235Y364649D01*
X453001Y363309D01*
X435999Y363309D01*
X432765Y364649D01*
X430289Y367125D01*
X428949Y370359D01*
X428949Y373861D01*
X430289Y377095D01*
X432765Y379571D01*
X435999Y380911D01*
X453001Y380911D01*
X456235Y379571D01*
X458711Y377095D01*
X459181Y375960D01*
X459196Y375935D01*
X459205Y375907D01*
X459274Y375797D01*
X459339Y375684D01*
X459359Y375663D01*
X459375Y375638D01*
X459470Y375549D01*
X459560Y375456D01*
X459585Y375440D01*
X459607Y375420D01*
X459720Y375357D01*
X459831Y375289D01*
X459859Y375281D01*
X459885Y375266D01*
X460011Y375234D01*
X460135Y375196D01*
X460164Y375194D01*
X460193Y375187D01*
X460354Y375177D01*
X461010Y375177D01*
X472967Y363220D01*
X472967Y119380D01*
X470799Y117212D01*
X441974Y88387D01*
X441901Y88292D01*
X441822Y88203D01*
X441804Y88167D01*
X441779Y88135D01*
X441731Y88026D01*
X441677Y87920D01*
X441668Y87881D01*
X441652Y87844D01*
X441634Y87726D01*
X441608Y87610D01*
X441609Y87569D01*
X441603Y87529D01*
X441614Y87411D01*
X441617Y87292D01*
X441629Y87253D01*
X441632Y87213D01*
X441673Y87101D01*
X441706Y86986D01*
X441726Y86952D01*
X441740Y86914D01*
X441807Y86815D01*
X441852Y86739D01*
X441852Y78386D01*
X435944Y72479D01*
X435899Y72476D01*
X435861Y72463D01*
X435820Y72458D01*
X435710Y72415D01*
X435597Y72378D01*
X435562Y72356D01*
X435525Y72341D01*
X435429Y72272D01*
X435328Y72208D01*
X435300Y72178D01*
X435267Y72155D01*
X435191Y72063D01*
X435110Y71976D01*
X435090Y71941D01*
X435065Y71910D01*
X435014Y71802D01*
X434956Y71698D01*
X434946Y71658D01*
X434929Y71622D01*
X434907Y71505D01*
X434877Y71390D01*
X434873Y71330D01*
X434869Y71310D01*
X434871Y71289D01*
X434867Y71229D01*
X434867Y32276D01*
X434879Y32178D01*
X434882Y32079D01*
X434899Y32021D01*
X434907Y31961D01*
X434943Y31869D01*
X434971Y31773D01*
X435001Y31721D01*
X435024Y31665D01*
X435082Y31585D01*
X435132Y31499D01*
X435198Y31424D01*
X435210Y31407D01*
X435220Y31400D01*
X435238Y31379D01*
X436139Y30478D01*
X436233Y30405D01*
X436322Y30326D01*
X436358Y30308D01*
X436390Y30283D01*
X436499Y30236D01*
X436605Y30182D01*
X436645Y30173D01*
X436682Y30157D01*
X436800Y30138D01*
X436916Y30112D01*
X436956Y30113D01*
X436996Y30107D01*
X437115Y30118D01*
X437233Y30122D01*
X437272Y30133D01*
X437313Y30137D01*
X437425Y30177D01*
X437539Y30210D01*
X437574Y30231D01*
X437612Y30245D01*
X445712Y30245D01*
X451377Y24580D01*
X451377Y16568D01*
X445712Y10903D01*
X437700Y10903D01*
G37*
%LPD*%
%LPC*%
G36*
X435999Y515709D02*
X435999Y515709D01*
X432765Y517049D01*
X430289Y519525D01*
X428949Y522759D01*
X428949Y526261D01*
X430289Y529495D01*
X432765Y531971D01*
X435999Y533311D01*
X453001Y533311D01*
X456235Y531971D01*
X458711Y529495D01*
X458847Y529166D01*
X458872Y529123D01*
X458889Y529076D01*
X458950Y528985D01*
X459005Y528890D01*
X459039Y528854D01*
X459067Y528813D01*
X459149Y528740D01*
X459226Y528661D01*
X459268Y528635D01*
X459306Y528603D01*
X459403Y528553D01*
X459497Y528495D01*
X459545Y528481D01*
X459589Y528458D01*
X459696Y528434D01*
X459801Y528402D01*
X459851Y528399D01*
X459899Y528388D01*
X460009Y528392D01*
X460119Y528386D01*
X460167Y528397D01*
X460217Y528398D01*
X460323Y528429D01*
X460430Y528451D01*
X460475Y528473D01*
X460523Y528486D01*
X460617Y528542D01*
X460716Y528590D01*
X460754Y528623D01*
X460796Y528648D01*
X460917Y528754D01*
X472812Y540649D01*
X472872Y540727D01*
X472940Y540799D01*
X472969Y540852D01*
X473006Y540900D01*
X473046Y540991D01*
X473094Y541077D01*
X473109Y541136D01*
X473133Y541192D01*
X473148Y541290D01*
X473173Y541385D01*
X473179Y541485D01*
X473183Y541506D01*
X473181Y541518D01*
X473183Y541546D01*
X473183Y553720D01*
X577061Y657598D01*
X577146Y657707D01*
X577234Y657814D01*
X577243Y657833D01*
X577255Y657849D01*
X577311Y657977D01*
X577370Y658102D01*
X577374Y658122D01*
X577382Y658141D01*
X577404Y658279D01*
X577430Y658415D01*
X577428Y658435D01*
X577432Y658455D01*
X577419Y658594D01*
X577410Y658732D01*
X577404Y658751D01*
X577402Y658771D01*
X577355Y658903D01*
X577312Y659034D01*
X577301Y659052D01*
X577294Y659071D01*
X577216Y659186D01*
X577142Y659303D01*
X577127Y659317D01*
X577116Y659334D01*
X577012Y659426D01*
X576910Y659521D01*
X576892Y659531D01*
X576877Y659544D01*
X576754Y659607D01*
X576632Y659675D01*
X576612Y659680D01*
X576594Y659689D01*
X576458Y659719D01*
X576324Y659754D01*
X576296Y659756D01*
X576284Y659759D01*
X576263Y659758D01*
X576163Y659764D01*
X574039Y659764D01*
X574039Y671830D01*
X574024Y671948D01*
X574017Y672067D01*
X574004Y672105D01*
X573999Y672145D01*
X573956Y672256D01*
X573919Y672369D01*
X573897Y672403D01*
X573882Y672441D01*
X573812Y672537D01*
X573749Y672638D01*
X573719Y672666D01*
X573695Y672698D01*
X573604Y672774D01*
X573517Y672856D01*
X573482Y672875D01*
X573451Y672901D01*
X573343Y672952D01*
X573239Y673009D01*
X573199Y673020D01*
X573163Y673037D01*
X573046Y673059D01*
X572931Y673089D01*
X572870Y673093D01*
X572850Y673097D01*
X572830Y673095D01*
X572770Y673099D01*
X571499Y673099D01*
X571499Y673101D01*
X572770Y673101D01*
X572888Y673116D01*
X573007Y673123D01*
X573045Y673136D01*
X573085Y673141D01*
X573196Y673185D01*
X573309Y673221D01*
X573344Y673243D01*
X573381Y673258D01*
X573477Y673328D01*
X573578Y673391D01*
X573606Y673421D01*
X573639Y673445D01*
X573714Y673536D01*
X573796Y673623D01*
X573816Y673658D01*
X573841Y673690D01*
X573892Y673797D01*
X573950Y673902D01*
X573960Y673941D01*
X573977Y673977D01*
X573999Y674094D01*
X574029Y674209D01*
X574033Y674270D01*
X574037Y674290D01*
X574035Y674310D01*
X574039Y674370D01*
X574039Y686436D01*
X577024Y686436D01*
X583649Y679811D01*
X583743Y679737D01*
X583832Y679659D01*
X583868Y679640D01*
X583900Y679616D01*
X584010Y679568D01*
X584116Y679514D01*
X584155Y679505D01*
X584192Y679489D01*
X584310Y679471D01*
X584426Y679445D01*
X584466Y679446D01*
X584506Y679439D01*
X584625Y679451D01*
X584744Y679454D01*
X584783Y679465D01*
X584823Y679469D01*
X584935Y679510D01*
X585049Y679543D01*
X585084Y679563D01*
X585122Y679577D01*
X585221Y679644D01*
X585323Y679704D01*
X585368Y679744D01*
X585385Y679755D01*
X585399Y679771D01*
X585444Y679811D01*
X591579Y685946D01*
X602221Y685946D01*
X609746Y678421D01*
X609746Y667779D01*
X602221Y660254D01*
X591579Y660254D01*
X590883Y660951D01*
X590789Y661023D01*
X590776Y661036D01*
X590773Y661037D01*
X590699Y661102D01*
X590663Y661121D01*
X590631Y661146D01*
X590522Y661193D01*
X590416Y661247D01*
X590377Y661256D01*
X590340Y661272D01*
X590222Y661291D01*
X590106Y661317D01*
X590066Y661315D01*
X590026Y661322D01*
X589907Y661311D01*
X589788Y661307D01*
X589749Y661296D01*
X589709Y661292D01*
X589597Y661252D01*
X589483Y661219D01*
X589448Y661198D01*
X589410Y661184D01*
X589311Y661118D01*
X589209Y661057D01*
X589163Y661017D01*
X589146Y661006D01*
X589133Y660991D01*
X589088Y660951D01*
X479688Y551551D01*
X479628Y551473D01*
X479560Y551401D01*
X479531Y551348D01*
X479494Y551300D01*
X479454Y551209D01*
X479406Y551123D01*
X479391Y551064D01*
X479367Y551008D01*
X479352Y550910D01*
X479327Y550815D01*
X479321Y550715D01*
X479317Y550694D01*
X479319Y550682D01*
X479317Y550654D01*
X479317Y538480D01*
X462280Y521443D01*
X460354Y521443D01*
X460324Y521440D01*
X460295Y521442D01*
X460167Y521420D01*
X460038Y521403D01*
X460011Y521393D01*
X459982Y521388D01*
X459863Y521334D01*
X459742Y521286D01*
X459719Y521269D01*
X459692Y521257D01*
X459590Y521176D01*
X459485Y521100D01*
X459466Y521077D01*
X459443Y521058D01*
X459365Y520955D01*
X459282Y520855D01*
X459270Y520828D01*
X459252Y520804D01*
X459181Y520660D01*
X458711Y519525D01*
X456235Y517049D01*
X453001Y515709D01*
X435999Y515709D01*
G37*
%LPD*%
%LPC*%
G36*
X635394Y234804D02*
X635394Y234804D01*
X627869Y242329D01*
X627869Y243314D01*
X627854Y243432D01*
X627847Y243551D01*
X627834Y243589D01*
X627829Y243630D01*
X627786Y243740D01*
X627749Y243853D01*
X627727Y243888D01*
X627712Y243925D01*
X627643Y244021D01*
X627579Y244122D01*
X627549Y244150D01*
X627526Y244183D01*
X627434Y244259D01*
X627347Y244340D01*
X627312Y244360D01*
X627281Y244385D01*
X627173Y244436D01*
X627069Y244494D01*
X627029Y244504D01*
X626993Y244521D01*
X626876Y244543D01*
X626761Y244573D01*
X626701Y244577D01*
X626681Y244581D01*
X626660Y244579D01*
X626600Y244583D01*
X570230Y244583D01*
X549383Y265430D01*
X549383Y366504D01*
X549371Y366602D01*
X549368Y366701D01*
X549351Y366759D01*
X549343Y366819D01*
X549307Y366912D01*
X549279Y367007D01*
X549249Y367059D01*
X549226Y367115D01*
X549168Y367195D01*
X549118Y367281D01*
X549052Y367356D01*
X549040Y367373D01*
X549030Y367380D01*
X549012Y367401D01*
X535041Y381372D01*
X534963Y381432D01*
X534891Y381500D01*
X534838Y381529D01*
X534790Y381566D01*
X534699Y381606D01*
X534613Y381654D01*
X534554Y381669D01*
X534498Y381693D01*
X534400Y381708D01*
X534305Y381733D01*
X534205Y381739D01*
X534184Y381743D01*
X534172Y381741D01*
X534144Y381743D01*
X527572Y381743D01*
X527542Y381740D01*
X527513Y381742D01*
X527385Y381720D01*
X527256Y381703D01*
X527229Y381693D01*
X527200Y381688D01*
X527081Y381634D01*
X526961Y381586D01*
X526937Y381569D01*
X526910Y381557D01*
X526808Y381476D01*
X526703Y381400D01*
X526684Y381377D01*
X526661Y381358D01*
X526583Y381255D01*
X526500Y381155D01*
X526488Y381128D01*
X526470Y381104D01*
X526399Y380960D01*
X526082Y380195D01*
X523791Y377904D01*
X520797Y376663D01*
X505363Y376663D01*
X502369Y377904D01*
X500078Y380195D01*
X498837Y383189D01*
X498837Y386431D01*
X500078Y389425D01*
X502369Y391716D01*
X505363Y392957D01*
X520797Y392957D01*
X523791Y391716D01*
X526082Y389425D01*
X526399Y388660D01*
X526414Y388635D01*
X526423Y388607D01*
X526492Y388497D01*
X526557Y388384D01*
X526577Y388363D01*
X526593Y388338D01*
X526688Y388249D01*
X526778Y388156D01*
X526803Y388140D01*
X526825Y388120D01*
X526938Y388057D01*
X527049Y387989D01*
X527077Y387981D01*
X527103Y387966D01*
X527229Y387934D01*
X527353Y387896D01*
X527382Y387894D01*
X527411Y387887D01*
X527572Y387877D01*
X537210Y387877D01*
X555517Y369570D01*
X555517Y268496D01*
X555529Y268398D01*
X555532Y268299D01*
X555549Y268241D01*
X555557Y268181D01*
X555593Y268088D01*
X555621Y267993D01*
X555651Y267941D01*
X555674Y267885D01*
X555732Y267805D01*
X555782Y267719D01*
X555848Y267644D01*
X555860Y267627D01*
X555870Y267620D01*
X555888Y267599D01*
X572399Y251088D01*
X572477Y251028D01*
X572549Y250960D01*
X572602Y250931D01*
X572650Y250894D01*
X572741Y250854D01*
X572827Y250806D01*
X572886Y250791D01*
X572942Y250767D01*
X573040Y250752D01*
X573135Y250727D01*
X573235Y250721D01*
X573256Y250717D01*
X573268Y250719D01*
X573296Y250717D01*
X626600Y250717D01*
X626718Y250732D01*
X626837Y250739D01*
X626875Y250752D01*
X626916Y250757D01*
X627026Y250800D01*
X627139Y250837D01*
X627174Y250859D01*
X627211Y250874D01*
X627307Y250943D01*
X627408Y251007D01*
X627436Y251037D01*
X627469Y251060D01*
X627545Y251152D01*
X627626Y251239D01*
X627646Y251274D01*
X627671Y251305D01*
X627722Y251413D01*
X627780Y251517D01*
X627790Y251557D01*
X627807Y251593D01*
X627829Y251710D01*
X627859Y251825D01*
X627863Y251885D01*
X627867Y251905D01*
X627865Y251926D01*
X627869Y251986D01*
X627869Y252971D01*
X635394Y260496D01*
X646036Y260496D01*
X653561Y252971D01*
X653561Y242329D01*
X646036Y234804D01*
X635394Y234804D01*
G37*
%LPD*%
%LPC*%
G36*
X193421Y514857D02*
X193421Y514857D01*
X184739Y518454D01*
X178094Y525099D01*
X174497Y533781D01*
X174497Y543179D01*
X178094Y551861D01*
X184739Y558506D01*
X193421Y562103D01*
X202819Y562103D01*
X211501Y558506D01*
X218146Y551861D01*
X221743Y543179D01*
X221743Y533781D01*
X218146Y525099D01*
X211501Y518454D01*
X202819Y514857D01*
X193421Y514857D01*
G37*
%LPD*%
%LPC*%
G36*
X533781Y514857D02*
X533781Y514857D01*
X525099Y518454D01*
X518454Y525099D01*
X514857Y533781D01*
X514857Y543179D01*
X518454Y551861D01*
X525099Y558506D01*
X533781Y562103D01*
X543179Y562103D01*
X551861Y558506D01*
X558506Y551861D01*
X562103Y543179D01*
X562103Y533781D01*
X558506Y525099D01*
X551861Y518454D01*
X543179Y514857D01*
X533781Y514857D01*
G37*
%LPD*%
%LPC*%
G36*
X193421Y174497D02*
X193421Y174497D01*
X184739Y178094D01*
X178094Y184739D01*
X174497Y193421D01*
X174497Y202819D01*
X178094Y211501D01*
X184739Y218146D01*
X193421Y221743D01*
X202819Y221743D01*
X211501Y218146D01*
X218146Y211501D01*
X221743Y202819D01*
X221743Y193421D01*
X218146Y184739D01*
X211501Y178094D01*
X202819Y174497D01*
X193421Y174497D01*
G37*
%LPD*%
%LPC*%
G36*
X533781Y174497D02*
X533781Y174497D01*
X525099Y178094D01*
X518454Y184739D01*
X514857Y193421D01*
X514857Y202819D01*
X518454Y211501D01*
X525099Y218146D01*
X533781Y221743D01*
X543179Y221743D01*
X551861Y218146D01*
X558506Y211501D01*
X562103Y202819D01*
X562103Y193421D01*
X558506Y184739D01*
X551861Y178094D01*
X543179Y174497D01*
X533781Y174497D01*
G37*
%LPD*%
%LPC*%
G36*
X496338Y662939D02*
X496338Y662939D01*
X488869Y666033D01*
X483153Y671749D01*
X480059Y679218D01*
X480059Y687302D01*
X483153Y694771D01*
X488869Y700487D01*
X496338Y703581D01*
X504422Y703581D01*
X511891Y700487D01*
X517607Y694771D01*
X520701Y687302D01*
X520701Y679218D01*
X517607Y671749D01*
X511891Y666033D01*
X504422Y662939D01*
X496338Y662939D01*
G37*
%LPD*%
%LPC*%
G36*
X115338Y662939D02*
X115338Y662939D01*
X107869Y666033D01*
X102153Y671749D01*
X99059Y679218D01*
X99059Y687302D01*
X102153Y694771D01*
X107869Y700487D01*
X115338Y703581D01*
X123422Y703581D01*
X130891Y700487D01*
X136607Y694771D01*
X139701Y687302D01*
X139701Y679218D01*
X136607Y671749D01*
X130891Y666033D01*
X123422Y662939D01*
X115338Y662939D01*
G37*
%LPD*%
%LPC*%
G36*
X115338Y27939D02*
X115338Y27939D01*
X107869Y31033D01*
X102153Y36749D01*
X99059Y44218D01*
X99059Y52302D01*
X102153Y59771D01*
X107869Y65487D01*
X115338Y68581D01*
X123422Y68581D01*
X130891Y65487D01*
X136607Y59771D01*
X139701Y52302D01*
X139701Y44218D01*
X136607Y36749D01*
X130891Y31033D01*
X123422Y27939D01*
X115338Y27939D01*
G37*
%LPD*%
%LPC*%
G36*
X496338Y27939D02*
X496338Y27939D01*
X488869Y31033D01*
X483153Y36749D01*
X480059Y44218D01*
X480059Y52302D01*
X483153Y59771D01*
X488869Y65487D01*
X496338Y68581D01*
X504422Y68581D01*
X511891Y65487D01*
X517607Y59771D01*
X520701Y52302D01*
X520701Y44218D01*
X517607Y36749D01*
X511891Y31033D01*
X504422Y27939D01*
X496338Y27939D01*
G37*
%LPD*%
%LPC*%
G36*
X505363Y427463D02*
X505363Y427463D01*
X502369Y428704D01*
X500078Y430995D01*
X499761Y431760D01*
X499746Y431785D01*
X499737Y431813D01*
X499668Y431923D01*
X499603Y432036D01*
X499583Y432057D01*
X499567Y432082D01*
X499473Y432171D01*
X499382Y432264D01*
X499357Y432280D01*
X499335Y432300D01*
X499222Y432363D01*
X499111Y432431D01*
X499083Y432439D01*
X499057Y432454D01*
X498931Y432486D01*
X498807Y432524D01*
X498778Y432526D01*
X498749Y432533D01*
X498588Y432543D01*
X483870Y432543D01*
X471541Y444872D01*
X471463Y444932D01*
X471391Y445000D01*
X471338Y445029D01*
X471290Y445066D01*
X471199Y445106D01*
X471113Y445154D01*
X471054Y445169D01*
X470998Y445193D01*
X470900Y445208D01*
X470805Y445233D01*
X470705Y445239D01*
X470684Y445243D01*
X470672Y445241D01*
X470644Y445243D01*
X460354Y445243D01*
X460324Y445240D01*
X460295Y445242D01*
X460167Y445220D01*
X460038Y445203D01*
X460011Y445193D01*
X459982Y445188D01*
X459863Y445134D01*
X459742Y445086D01*
X459719Y445069D01*
X459692Y445057D01*
X459590Y444976D01*
X459485Y444900D01*
X459466Y444877D01*
X459443Y444858D01*
X459365Y444755D01*
X459282Y444655D01*
X459270Y444628D01*
X459252Y444604D01*
X459181Y444460D01*
X458711Y443325D01*
X456235Y440849D01*
X453001Y439509D01*
X435999Y439509D01*
X432765Y440849D01*
X430289Y443325D01*
X428949Y446559D01*
X428949Y450061D01*
X430289Y453295D01*
X432765Y455771D01*
X435999Y457111D01*
X453001Y457111D01*
X456235Y455771D01*
X458711Y453295D01*
X459181Y452160D01*
X459196Y452135D01*
X459205Y452107D01*
X459274Y451997D01*
X459339Y451884D01*
X459359Y451863D01*
X459375Y451838D01*
X459470Y451749D01*
X459560Y451656D01*
X459585Y451640D01*
X459607Y451620D01*
X459720Y451557D01*
X459831Y451489D01*
X459859Y451481D01*
X459885Y451466D01*
X460011Y451434D01*
X460135Y451396D01*
X460164Y451394D01*
X460193Y451387D01*
X460354Y451377D01*
X473710Y451377D01*
X486039Y439048D01*
X486117Y438988D01*
X486189Y438920D01*
X486242Y438891D01*
X486290Y438854D01*
X486381Y438814D01*
X486467Y438766D01*
X486526Y438751D01*
X486582Y438727D01*
X486680Y438712D01*
X486775Y438687D01*
X486875Y438681D01*
X486896Y438677D01*
X486908Y438679D01*
X486936Y438677D01*
X498588Y438677D01*
X498617Y438680D01*
X498647Y438678D01*
X498775Y438700D01*
X498904Y438717D01*
X498931Y438727D01*
X498960Y438732D01*
X499079Y438786D01*
X499199Y438834D01*
X499223Y438851D01*
X499250Y438863D01*
X499352Y438944D01*
X499457Y439020D01*
X499476Y439043D01*
X499499Y439062D01*
X499577Y439165D01*
X499660Y439265D01*
X499672Y439292D01*
X499690Y439316D01*
X499761Y439460D01*
X500078Y440225D01*
X502369Y442516D01*
X505363Y443757D01*
X520797Y443757D01*
X523791Y442516D01*
X526082Y440225D01*
X527323Y437231D01*
X527323Y433989D01*
X526082Y430995D01*
X523791Y428704D01*
X520797Y427463D01*
X505363Y427463D01*
G37*
%LPD*%
%LPC*%
G36*
X505363Y402063D02*
X505363Y402063D01*
X502369Y403304D01*
X500078Y405595D01*
X499761Y406360D01*
X499746Y406385D01*
X499737Y406413D01*
X499668Y406523D01*
X499603Y406636D01*
X499583Y406657D01*
X499567Y406682D01*
X499473Y406771D01*
X499382Y406864D01*
X499357Y406880D01*
X499335Y406900D01*
X499222Y406963D01*
X499111Y407031D01*
X499083Y407039D01*
X499057Y407054D01*
X498931Y407086D01*
X498807Y407124D01*
X498778Y407126D01*
X498749Y407133D01*
X498588Y407143D01*
X483870Y407143D01*
X471541Y419472D01*
X471463Y419532D01*
X471391Y419600D01*
X471338Y419629D01*
X471290Y419666D01*
X471199Y419706D01*
X471113Y419754D01*
X471054Y419769D01*
X470998Y419793D01*
X470900Y419808D01*
X470805Y419833D01*
X470705Y419839D01*
X470684Y419843D01*
X470672Y419841D01*
X470644Y419843D01*
X460354Y419843D01*
X460324Y419840D01*
X460295Y419842D01*
X460167Y419820D01*
X460038Y419803D01*
X460011Y419793D01*
X459982Y419788D01*
X459863Y419734D01*
X459742Y419686D01*
X459719Y419669D01*
X459692Y419657D01*
X459590Y419576D01*
X459485Y419500D01*
X459466Y419477D01*
X459443Y419458D01*
X459365Y419355D01*
X459282Y419255D01*
X459270Y419228D01*
X459252Y419204D01*
X459181Y419060D01*
X458711Y417925D01*
X456235Y415449D01*
X453001Y414109D01*
X435999Y414109D01*
X432765Y415449D01*
X430289Y417925D01*
X428949Y421159D01*
X428949Y424661D01*
X430289Y427895D01*
X432765Y430371D01*
X435999Y431711D01*
X453001Y431711D01*
X456235Y430371D01*
X458711Y427895D01*
X459181Y426760D01*
X459196Y426735D01*
X459205Y426707D01*
X459274Y426597D01*
X459339Y426484D01*
X459359Y426463D01*
X459375Y426438D01*
X459470Y426349D01*
X459560Y426256D01*
X459585Y426240D01*
X459607Y426220D01*
X459720Y426157D01*
X459831Y426089D01*
X459859Y426081D01*
X459885Y426066D01*
X460011Y426034D01*
X460135Y425996D01*
X460164Y425994D01*
X460193Y425987D01*
X460354Y425977D01*
X473710Y425977D01*
X486039Y413648D01*
X486117Y413588D01*
X486189Y413520D01*
X486242Y413491D01*
X486290Y413454D01*
X486381Y413414D01*
X486467Y413366D01*
X486526Y413351D01*
X486582Y413327D01*
X486680Y413312D01*
X486775Y413287D01*
X486875Y413281D01*
X486896Y413277D01*
X486908Y413279D01*
X486936Y413277D01*
X498588Y413277D01*
X498617Y413280D01*
X498647Y413278D01*
X498775Y413300D01*
X498904Y413317D01*
X498931Y413327D01*
X498960Y413332D01*
X499079Y413386D01*
X499199Y413434D01*
X499223Y413451D01*
X499250Y413463D01*
X499352Y413544D01*
X499457Y413620D01*
X499476Y413643D01*
X499499Y413662D01*
X499577Y413765D01*
X499660Y413865D01*
X499672Y413892D01*
X499690Y413916D01*
X499761Y414060D01*
X500078Y414825D01*
X502369Y417116D01*
X505363Y418357D01*
X520797Y418357D01*
X523791Y417116D01*
X526082Y414825D01*
X527323Y411831D01*
X527323Y408589D01*
X526082Y405595D01*
X523791Y403304D01*
X520797Y402063D01*
X505363Y402063D01*
G37*
%LPD*%
%LPC*%
G36*
X451508Y32176D02*
X451508Y32176D01*
X446624Y34199D01*
X442885Y37938D01*
X440862Y42822D01*
X440862Y48110D01*
X442885Y52994D01*
X446624Y56733D01*
X451508Y58756D01*
X456796Y58756D01*
X461680Y56733D01*
X465419Y52994D01*
X467442Y48110D01*
X467442Y42822D01*
X465419Y37938D01*
X461680Y34199D01*
X456796Y32176D01*
X451508Y32176D01*
G37*
%LPD*%
%LPC*%
G36*
X381404Y32176D02*
X381404Y32176D01*
X376520Y34199D01*
X372781Y37938D01*
X370758Y42822D01*
X370758Y48110D01*
X372781Y52994D01*
X376520Y56733D01*
X381404Y58756D01*
X386692Y58756D01*
X391576Y56733D01*
X395315Y52994D01*
X397338Y48110D01*
X397338Y42822D01*
X395315Y37938D01*
X391576Y34199D01*
X386692Y32176D01*
X381404Y32176D01*
G37*
%LPD*%
%LPC*%
G36*
X541424Y32176D02*
X541424Y32176D01*
X536540Y34199D01*
X532801Y37938D01*
X530778Y42822D01*
X530778Y48110D01*
X532801Y52994D01*
X536540Y56733D01*
X541424Y58756D01*
X546712Y58756D01*
X551596Y56733D01*
X555335Y52994D01*
X557358Y48110D01*
X557358Y42822D01*
X555335Y37938D01*
X551596Y34199D01*
X546712Y32176D01*
X541424Y32176D01*
G37*
%LPD*%
%LPC*%
G36*
X611528Y32176D02*
X611528Y32176D01*
X606644Y34199D01*
X602905Y37938D01*
X600882Y42822D01*
X600882Y48110D01*
X602905Y52994D01*
X606644Y56733D01*
X611528Y58756D01*
X616816Y58756D01*
X621700Y56733D01*
X625439Y52994D01*
X627462Y48110D01*
X627462Y42822D01*
X625439Y37938D01*
X621700Y34199D01*
X616816Y32176D01*
X611528Y32176D01*
G37*
%LPD*%
%LPC*%
G36*
X58179Y495154D02*
X58179Y495154D01*
X50654Y502679D01*
X50654Y513321D01*
X58179Y520846D01*
X68821Y520846D01*
X76346Y513321D01*
X76346Y502679D01*
X68821Y495154D01*
X58179Y495154D01*
G37*
%LPD*%
%LPC*%
G36*
X258199Y617309D02*
X258199Y617309D01*
X254965Y618649D01*
X252489Y621125D01*
X251149Y624359D01*
X251149Y627861D01*
X252489Y631095D01*
X254965Y633571D01*
X258199Y634911D01*
X275201Y634911D01*
X278435Y633571D01*
X280911Y631095D01*
X282251Y627861D01*
X282251Y624359D01*
X280911Y621125D01*
X278435Y618649D01*
X275201Y617309D01*
X258199Y617309D01*
G37*
%LPD*%
%LPC*%
G36*
X435999Y261709D02*
X435999Y261709D01*
X432765Y263049D01*
X430289Y265525D01*
X428949Y268759D01*
X428949Y272261D01*
X430289Y275495D01*
X432765Y277971D01*
X435999Y279311D01*
X453001Y279311D01*
X456235Y277971D01*
X458711Y275495D01*
X460051Y272261D01*
X460051Y268759D01*
X458711Y265525D01*
X456235Y263049D01*
X453001Y261709D01*
X435999Y261709D01*
G37*
%LPD*%
%LPC*%
G36*
X385599Y135579D02*
X385599Y135579D01*
X382365Y136919D01*
X379889Y139395D01*
X378549Y142629D01*
X378549Y159631D01*
X379889Y162865D01*
X382365Y165341D01*
X385599Y166681D01*
X389101Y166681D01*
X392335Y165341D01*
X394811Y162865D01*
X396151Y159631D01*
X396151Y142629D01*
X394811Y139395D01*
X392335Y136919D01*
X389101Y135579D01*
X385599Y135579D01*
G37*
%LPD*%
%LPC*%
G36*
X258199Y287109D02*
X258199Y287109D01*
X254965Y288449D01*
X252489Y290925D01*
X251149Y294159D01*
X251149Y297661D01*
X252489Y300895D01*
X254965Y303371D01*
X258199Y304711D01*
X275201Y304711D01*
X278435Y303371D01*
X280911Y300895D01*
X282251Y297661D01*
X282251Y294159D01*
X280911Y290925D01*
X278435Y288449D01*
X275201Y287109D01*
X258199Y287109D01*
G37*
%LPD*%
%LPC*%
G36*
X435999Y591909D02*
X435999Y591909D01*
X432765Y593249D01*
X430289Y595725D01*
X428949Y598959D01*
X428949Y602461D01*
X430289Y605695D01*
X432765Y608171D01*
X435999Y609511D01*
X453001Y609511D01*
X456235Y608171D01*
X458711Y605695D01*
X460051Y602461D01*
X460051Y598959D01*
X458711Y595725D01*
X456235Y593249D01*
X453001Y591909D01*
X435999Y591909D01*
G37*
%LPD*%
%LPC*%
G36*
X258199Y591909D02*
X258199Y591909D01*
X254965Y593249D01*
X252489Y595725D01*
X251149Y598959D01*
X251149Y602461D01*
X252489Y605695D01*
X254965Y608171D01*
X258199Y609511D01*
X275201Y609511D01*
X278435Y608171D01*
X280911Y605695D01*
X282251Y602461D01*
X282251Y598959D01*
X280911Y595725D01*
X278435Y593249D01*
X275201Y591909D01*
X258199Y591909D01*
G37*
%LPD*%
%LPC*%
G36*
X435999Y312509D02*
X435999Y312509D01*
X432765Y313849D01*
X430289Y316325D01*
X428949Y319559D01*
X428949Y323061D01*
X430289Y326295D01*
X432765Y328771D01*
X435999Y330111D01*
X453001Y330111D01*
X456235Y328771D01*
X458711Y326295D01*
X460051Y323061D01*
X460051Y319559D01*
X458711Y316325D01*
X456235Y313849D01*
X453001Y312509D01*
X435999Y312509D01*
G37*
%LPD*%
%LPC*%
G36*
X258199Y566509D02*
X258199Y566509D01*
X254965Y567849D01*
X252489Y570325D01*
X251149Y573559D01*
X251149Y577061D01*
X252489Y580295D01*
X254965Y582771D01*
X258199Y584111D01*
X275201Y584111D01*
X278435Y582771D01*
X280911Y580295D01*
X282251Y577061D01*
X282251Y573559D01*
X280911Y570325D01*
X278435Y567849D01*
X275201Y566509D01*
X258199Y566509D01*
G37*
%LPD*%
%LPC*%
G36*
X258199Y337909D02*
X258199Y337909D01*
X254965Y339249D01*
X252489Y341725D01*
X251149Y344959D01*
X251149Y348461D01*
X252489Y351695D01*
X254965Y354171D01*
X258199Y355511D01*
X275201Y355511D01*
X278435Y354171D01*
X280911Y351695D01*
X282251Y348461D01*
X282251Y344959D01*
X280911Y341725D01*
X278435Y339249D01*
X275201Y337909D01*
X258199Y337909D01*
G37*
%LPD*%
%LPC*%
G36*
X435999Y541109D02*
X435999Y541109D01*
X432765Y542449D01*
X430289Y544925D01*
X428949Y548159D01*
X428949Y551661D01*
X430289Y554895D01*
X432765Y557371D01*
X435999Y558711D01*
X453001Y558711D01*
X456235Y557371D01*
X458711Y554895D01*
X460051Y551661D01*
X460051Y548159D01*
X458711Y544925D01*
X456235Y542449D01*
X453001Y541109D01*
X435999Y541109D01*
G37*
%LPD*%
%LPC*%
G36*
X258199Y541109D02*
X258199Y541109D01*
X254965Y542449D01*
X252489Y544925D01*
X251149Y548159D01*
X251149Y551661D01*
X252489Y554895D01*
X254965Y557371D01*
X258199Y558711D01*
X275201Y558711D01*
X278435Y557371D01*
X280911Y554895D01*
X282251Y551661D01*
X282251Y548159D01*
X280911Y544925D01*
X278435Y542449D01*
X275201Y541109D01*
X258199Y541109D01*
G37*
%LPD*%
%LPC*%
G36*
X258199Y515709D02*
X258199Y515709D01*
X254965Y517049D01*
X252489Y519525D01*
X251149Y522759D01*
X251149Y526261D01*
X252489Y529495D01*
X254965Y531971D01*
X258199Y533311D01*
X275201Y533311D01*
X278435Y531971D01*
X280911Y529495D01*
X282251Y526261D01*
X282251Y522759D01*
X280911Y519525D01*
X278435Y517049D01*
X275201Y515709D01*
X258199Y515709D01*
G37*
%LPD*%
%LPC*%
G36*
X435999Y693509D02*
X435999Y693509D01*
X432765Y694849D01*
X430289Y697325D01*
X428949Y700559D01*
X428949Y704061D01*
X430289Y707295D01*
X432765Y709771D01*
X435999Y711111D01*
X453001Y711111D01*
X456235Y709771D01*
X458711Y707295D01*
X460051Y704061D01*
X460051Y700559D01*
X458711Y697325D01*
X456235Y694849D01*
X453001Y693509D01*
X435999Y693509D01*
G37*
%LPD*%
%LPC*%
G36*
X258199Y693509D02*
X258199Y693509D01*
X254965Y694849D01*
X252489Y697325D01*
X251149Y700559D01*
X251149Y704061D01*
X252489Y707295D01*
X254965Y709771D01*
X258199Y711111D01*
X275201Y711111D01*
X278435Y709771D01*
X280911Y707295D01*
X282251Y704061D01*
X282251Y700559D01*
X280911Y697325D01*
X278435Y694849D01*
X275201Y693509D01*
X258199Y693509D01*
G37*
%LPD*%
%LPC*%
G36*
X258199Y236309D02*
X258199Y236309D01*
X254965Y237649D01*
X252489Y240125D01*
X251149Y243359D01*
X251149Y246861D01*
X252489Y250095D01*
X254965Y252571D01*
X258199Y253911D01*
X275201Y253911D01*
X278435Y252571D01*
X280911Y250095D01*
X282251Y246861D01*
X282251Y243359D01*
X280911Y240125D01*
X278435Y237649D01*
X275201Y236309D01*
X258199Y236309D01*
G37*
%LPD*%
%LPC*%
G36*
X435999Y490309D02*
X435999Y490309D01*
X432765Y491649D01*
X430289Y494125D01*
X428949Y497359D01*
X428949Y500861D01*
X430289Y504095D01*
X432765Y506571D01*
X435999Y507911D01*
X453001Y507911D01*
X456235Y506571D01*
X458711Y504095D01*
X460051Y500861D01*
X460051Y497359D01*
X458711Y494125D01*
X456235Y491649D01*
X453001Y490309D01*
X435999Y490309D01*
G37*
%LPD*%
%LPC*%
G36*
X435999Y668109D02*
X435999Y668109D01*
X432765Y669449D01*
X430289Y671925D01*
X428949Y675159D01*
X428949Y678661D01*
X430289Y681895D01*
X432765Y684371D01*
X435999Y685711D01*
X453001Y685711D01*
X456235Y684371D01*
X458711Y681895D01*
X460051Y678661D01*
X460051Y675159D01*
X458711Y671925D01*
X456235Y669449D01*
X453001Y668109D01*
X435999Y668109D01*
G37*
%LPD*%
%LPC*%
G36*
X258199Y134709D02*
X258199Y134709D01*
X254965Y136049D01*
X252489Y138525D01*
X251149Y141759D01*
X251149Y145261D01*
X252489Y148495D01*
X254965Y150971D01*
X258199Y152311D01*
X275201Y152311D01*
X278435Y150971D01*
X280911Y148495D01*
X282251Y145261D01*
X282251Y141759D01*
X280911Y138525D01*
X278435Y136049D01*
X275201Y134709D01*
X258199Y134709D01*
G37*
%LPD*%
%LPC*%
G36*
X435999Y134709D02*
X435999Y134709D01*
X432765Y136049D01*
X430289Y138525D01*
X428949Y141759D01*
X428949Y145261D01*
X430289Y148495D01*
X432765Y150971D01*
X435999Y152311D01*
X453001Y152311D01*
X456235Y150971D01*
X458711Y148495D01*
X460051Y145261D01*
X460051Y141759D01*
X458711Y138525D01*
X456235Y136049D01*
X453001Y134709D01*
X435999Y134709D01*
G37*
%LPD*%
%LPC*%
G36*
X258199Y668109D02*
X258199Y668109D01*
X254965Y669449D01*
X252489Y671925D01*
X251149Y675159D01*
X251149Y678661D01*
X252489Y681895D01*
X254965Y684371D01*
X258199Y685711D01*
X275201Y685711D01*
X278435Y684371D01*
X280911Y681895D01*
X282251Y678661D01*
X282251Y675159D01*
X280911Y671925D01*
X278435Y669449D01*
X275201Y668109D01*
X258199Y668109D01*
G37*
%LPD*%
%LPC*%
G36*
X258199Y160109D02*
X258199Y160109D01*
X254965Y161449D01*
X252489Y163925D01*
X251149Y167159D01*
X251149Y170661D01*
X252489Y173895D01*
X254965Y176371D01*
X258199Y177711D01*
X275201Y177711D01*
X278435Y176371D01*
X280911Y173895D01*
X282251Y170661D01*
X282251Y167159D01*
X280911Y163925D01*
X278435Y161449D01*
X275201Y160109D01*
X258199Y160109D01*
G37*
%LPD*%
%LPC*%
G36*
X435999Y464909D02*
X435999Y464909D01*
X432765Y466249D01*
X430289Y468725D01*
X428949Y471959D01*
X428949Y475461D01*
X430289Y478695D01*
X432765Y481171D01*
X435999Y482511D01*
X453001Y482511D01*
X456235Y481171D01*
X458711Y478695D01*
X460051Y475461D01*
X460051Y471959D01*
X458711Y468725D01*
X456235Y466249D01*
X453001Y464909D01*
X435999Y464909D01*
G37*
%LPD*%
%LPC*%
G36*
X258199Y464909D02*
X258199Y464909D01*
X254965Y466249D01*
X252489Y468725D01*
X251149Y471959D01*
X251149Y475461D01*
X252489Y478695D01*
X254965Y481171D01*
X258199Y482511D01*
X275201Y482511D01*
X278435Y481171D01*
X280911Y478695D01*
X282251Y475461D01*
X282251Y471959D01*
X280911Y468725D01*
X278435Y466249D01*
X275201Y464909D01*
X258199Y464909D01*
G37*
%LPD*%
%LPC*%
G36*
X435999Y160109D02*
X435999Y160109D01*
X432765Y161449D01*
X430289Y163925D01*
X428949Y167159D01*
X428949Y170661D01*
X430289Y173895D01*
X432765Y176371D01*
X435999Y177711D01*
X453001Y177711D01*
X456235Y176371D01*
X458711Y173895D01*
X460051Y170661D01*
X460051Y167159D01*
X458711Y163925D01*
X456235Y161449D01*
X453001Y160109D01*
X435999Y160109D01*
G37*
%LPD*%
%LPC*%
G36*
X258199Y185509D02*
X258199Y185509D01*
X254965Y186849D01*
X252489Y189325D01*
X251149Y192559D01*
X251149Y196061D01*
X252489Y199295D01*
X254965Y201771D01*
X258199Y203111D01*
X275201Y203111D01*
X278435Y201771D01*
X280911Y199295D01*
X282251Y196061D01*
X282251Y192559D01*
X280911Y189325D01*
X278435Y186849D01*
X275201Y185509D01*
X258199Y185509D01*
G37*
%LPD*%
%LPC*%
G36*
X435999Y185509D02*
X435999Y185509D01*
X432765Y186849D01*
X430289Y189325D01*
X428949Y192559D01*
X428949Y196061D01*
X430289Y199295D01*
X432765Y201771D01*
X435999Y203111D01*
X453001Y203111D01*
X456235Y201771D01*
X458711Y199295D01*
X460051Y196061D01*
X460051Y192559D01*
X458711Y189325D01*
X456235Y186849D01*
X453001Y185509D01*
X435999Y185509D01*
G37*
%LPD*%
%LPC*%
G36*
X435999Y236309D02*
X435999Y236309D01*
X432765Y237649D01*
X430289Y240125D01*
X428949Y243359D01*
X428949Y246861D01*
X430289Y250095D01*
X432765Y252571D01*
X435999Y253911D01*
X453001Y253911D01*
X456235Y252571D01*
X458711Y250095D01*
X460051Y246861D01*
X460051Y243359D01*
X458711Y240125D01*
X456235Y237649D01*
X453001Y236309D01*
X435999Y236309D01*
G37*
%LPD*%
%LPC*%
G36*
X258199Y439509D02*
X258199Y439509D01*
X254965Y440849D01*
X252489Y443325D01*
X251149Y446559D01*
X251149Y450061D01*
X252489Y453295D01*
X254965Y455771D01*
X258199Y457111D01*
X275201Y457111D01*
X278435Y455771D01*
X280911Y453295D01*
X282251Y450061D01*
X282251Y446559D01*
X280911Y443325D01*
X278435Y440849D01*
X275201Y439509D01*
X258199Y439509D01*
G37*
%LPD*%
%LPC*%
G36*
X435999Y642709D02*
X435999Y642709D01*
X432765Y644049D01*
X430289Y646525D01*
X428949Y649759D01*
X428949Y653261D01*
X430289Y656495D01*
X432765Y658971D01*
X435999Y660311D01*
X453001Y660311D01*
X456235Y658971D01*
X458711Y656495D01*
X460051Y653261D01*
X460051Y649759D01*
X458711Y646525D01*
X456235Y644049D01*
X453001Y642709D01*
X435999Y642709D01*
G37*
%LPD*%
%LPC*%
G36*
X435999Y287109D02*
X435999Y287109D01*
X432765Y288449D01*
X430289Y290925D01*
X428949Y294159D01*
X428949Y297661D01*
X430289Y300895D01*
X432765Y303371D01*
X435999Y304711D01*
X453001Y304711D01*
X456235Y303371D01*
X458711Y300895D01*
X460051Y297661D01*
X460051Y294159D01*
X458711Y290925D01*
X456235Y288449D01*
X453001Y287109D01*
X435999Y287109D01*
G37*
%LPD*%
%LPC*%
G36*
X258199Y642709D02*
X258199Y642709D01*
X254965Y644049D01*
X252489Y646525D01*
X251149Y649759D01*
X251149Y653261D01*
X252489Y656495D01*
X254965Y658971D01*
X258199Y660311D01*
X275201Y660311D01*
X278435Y658971D01*
X280911Y656495D01*
X282251Y653261D01*
X282251Y649759D01*
X280911Y646525D01*
X278435Y644049D01*
X275201Y642709D01*
X258199Y642709D01*
G37*
%LPD*%
%LPC*%
G36*
X258199Y414109D02*
X258199Y414109D01*
X254965Y415449D01*
X252489Y417925D01*
X251149Y421159D01*
X251149Y424661D01*
X252489Y427895D01*
X254965Y430371D01*
X258199Y431711D01*
X275201Y431711D01*
X278435Y430371D01*
X280911Y427895D01*
X282251Y424661D01*
X282251Y421159D01*
X280911Y417925D01*
X278435Y415449D01*
X275201Y414109D01*
X258199Y414109D01*
G37*
%LPD*%
%LPC*%
G36*
X258199Y312509D02*
X258199Y312509D01*
X254965Y313849D01*
X252489Y316325D01*
X251149Y319559D01*
X251149Y323061D01*
X252489Y326295D01*
X254965Y328771D01*
X258199Y330111D01*
X275201Y330111D01*
X278435Y328771D01*
X280911Y326295D01*
X282251Y323061D01*
X282251Y319559D01*
X280911Y316325D01*
X278435Y313849D01*
X275201Y312509D01*
X258199Y312509D01*
G37*
%LPD*%
%LPC*%
G36*
X258199Y363309D02*
X258199Y363309D01*
X254965Y364649D01*
X252489Y367125D01*
X251149Y370359D01*
X251149Y373861D01*
X252489Y377095D01*
X254965Y379571D01*
X258199Y380911D01*
X275201Y380911D01*
X278435Y379571D01*
X280911Y377095D01*
X282251Y373861D01*
X282251Y370359D01*
X280911Y367125D01*
X278435Y364649D01*
X275201Y363309D01*
X258199Y363309D01*
G37*
%LPD*%
%LPC*%
G36*
X258199Y388709D02*
X258199Y388709D01*
X254965Y390049D01*
X252489Y392525D01*
X251149Y395759D01*
X251149Y399261D01*
X252489Y402495D01*
X254965Y404971D01*
X258199Y406311D01*
X275201Y406311D01*
X278435Y404971D01*
X280911Y402495D01*
X282251Y399261D01*
X282251Y395759D01*
X280911Y392525D01*
X278435Y390049D01*
X275201Y388709D01*
X258199Y388709D01*
G37*
%LPD*%
%LPC*%
G36*
X258199Y261709D02*
X258199Y261709D01*
X254965Y263049D01*
X252489Y265525D01*
X251149Y268759D01*
X251149Y272261D01*
X252489Y275495D01*
X254965Y277971D01*
X258199Y279311D01*
X275201Y279311D01*
X278435Y277971D01*
X280911Y275495D01*
X282251Y272261D01*
X282251Y268759D01*
X280911Y265525D01*
X278435Y263049D01*
X275201Y261709D01*
X258199Y261709D01*
G37*
%LPD*%
%LPC*%
G36*
X435999Y617309D02*
X435999Y617309D01*
X432765Y618649D01*
X430289Y621125D01*
X428949Y624359D01*
X428949Y627861D01*
X430289Y631095D01*
X432765Y633571D01*
X435999Y634911D01*
X453001Y634911D01*
X456235Y633571D01*
X458711Y631095D01*
X460051Y627861D01*
X460051Y624359D01*
X458711Y621125D01*
X456235Y618649D01*
X453001Y617309D01*
X435999Y617309D01*
G37*
%LPD*%
%LPC*%
G36*
X435999Y210909D02*
X435999Y210909D01*
X432765Y212249D01*
X430289Y214725D01*
X428949Y217959D01*
X428949Y221461D01*
X430289Y224695D01*
X432765Y227171D01*
X435999Y228511D01*
X453001Y228511D01*
X456235Y227171D01*
X458711Y224695D01*
X460051Y221461D01*
X460051Y217959D01*
X458711Y214725D01*
X456235Y212249D01*
X453001Y210909D01*
X435999Y210909D01*
G37*
%LPD*%
%LPC*%
G36*
X258199Y210909D02*
X258199Y210909D01*
X254965Y212249D01*
X252489Y214725D01*
X251149Y217959D01*
X251149Y221461D01*
X252489Y224695D01*
X254965Y227171D01*
X258199Y228511D01*
X275201Y228511D01*
X278435Y227171D01*
X280911Y224695D01*
X282251Y221461D01*
X282251Y217959D01*
X280911Y214725D01*
X278435Y212249D01*
X275201Y210909D01*
X258199Y210909D01*
G37*
%LPD*%
%LPC*%
G36*
X581563Y427463D02*
X581563Y427463D01*
X578569Y428704D01*
X576278Y430995D01*
X575037Y433989D01*
X575037Y437231D01*
X576278Y440225D01*
X578569Y442516D01*
X581563Y443757D01*
X596997Y443757D01*
X599991Y442516D01*
X602282Y440225D01*
X603523Y437231D01*
X603523Y433989D01*
X602282Y430995D01*
X599991Y428704D01*
X596997Y427463D01*
X581563Y427463D01*
G37*
%LPD*%
%LPC*%
G36*
X581563Y402063D02*
X581563Y402063D01*
X578569Y403304D01*
X576278Y405595D01*
X575037Y408589D01*
X575037Y411831D01*
X576278Y414825D01*
X578569Y417116D01*
X581563Y418357D01*
X596997Y418357D01*
X599991Y417116D01*
X602282Y414825D01*
X603523Y411831D01*
X603523Y408589D01*
X602282Y405595D01*
X599991Y403304D01*
X596997Y402063D01*
X581563Y402063D01*
G37*
%LPD*%
%LPC*%
G36*
X581563Y376663D02*
X581563Y376663D01*
X578569Y377904D01*
X576278Y380195D01*
X575037Y383189D01*
X575037Y386431D01*
X576278Y389425D01*
X578569Y391716D01*
X581563Y392957D01*
X596997Y392957D01*
X599991Y391716D01*
X602282Y389425D01*
X603523Y386431D01*
X603523Y383189D01*
X602282Y380195D01*
X599991Y377904D01*
X596997Y376663D01*
X581563Y376663D01*
G37*
%LPD*%
%LPC*%
G36*
X581563Y351263D02*
X581563Y351263D01*
X578569Y352504D01*
X576278Y354795D01*
X575037Y357789D01*
X575037Y361031D01*
X576278Y364025D01*
X578569Y366316D01*
X581563Y367557D01*
X596997Y367557D01*
X599991Y366316D01*
X602282Y364025D01*
X603523Y361031D01*
X603523Y357789D01*
X602282Y354795D01*
X599991Y352504D01*
X596997Y351263D01*
X581563Y351263D01*
G37*
%LPD*%
%LPC*%
G36*
X505363Y351263D02*
X505363Y351263D01*
X502369Y352504D01*
X500078Y354795D01*
X498837Y357789D01*
X498837Y361031D01*
X500078Y364025D01*
X502369Y366316D01*
X505363Y367557D01*
X520797Y367557D01*
X523791Y366316D01*
X526082Y364025D01*
X527323Y361031D01*
X527323Y357789D01*
X526082Y354795D01*
X523791Y352504D01*
X520797Y351263D01*
X505363Y351263D01*
G37*
%LPD*%
%LPC*%
G36*
X581563Y325863D02*
X581563Y325863D01*
X578569Y327104D01*
X576278Y329395D01*
X575037Y332389D01*
X575037Y335631D01*
X576278Y338625D01*
X578569Y340916D01*
X581563Y342157D01*
X596997Y342157D01*
X599991Y340916D01*
X602282Y338625D01*
X603523Y335631D01*
X603523Y332389D01*
X602282Y329395D01*
X599991Y327104D01*
X596997Y325863D01*
X581563Y325863D01*
G37*
%LPD*%
%LPC*%
G36*
X505363Y325863D02*
X505363Y325863D01*
X502369Y327104D01*
X500078Y329395D01*
X498837Y332389D01*
X498837Y335631D01*
X500078Y338625D01*
X502369Y340916D01*
X505363Y342157D01*
X520797Y342157D01*
X523791Y340916D01*
X526082Y338625D01*
X527323Y335631D01*
X527323Y332389D01*
X526082Y329395D01*
X523791Y327104D01*
X520797Y325863D01*
X505363Y325863D01*
G37*
%LPD*%
%LPC*%
G36*
X581563Y300463D02*
X581563Y300463D01*
X578569Y301704D01*
X576278Y303995D01*
X575037Y306989D01*
X575037Y310231D01*
X576278Y313225D01*
X578569Y315516D01*
X581563Y316757D01*
X596997Y316757D01*
X599991Y315516D01*
X602282Y313225D01*
X603523Y310231D01*
X603523Y306989D01*
X602282Y303995D01*
X599991Y301704D01*
X596997Y300463D01*
X581563Y300463D01*
G37*
%LPD*%
%LPC*%
G36*
X505363Y300463D02*
X505363Y300463D01*
X502369Y301704D01*
X500078Y303995D01*
X498837Y306989D01*
X498837Y310231D01*
X500078Y313225D01*
X502369Y315516D01*
X505363Y316757D01*
X520797Y316757D01*
X523791Y315516D01*
X526082Y313225D01*
X527323Y310231D01*
X527323Y306989D01*
X526082Y303995D01*
X523791Y301704D01*
X520797Y300463D01*
X505363Y300463D01*
G37*
%LPD*%
%LPC*%
G36*
X581563Y275063D02*
X581563Y275063D01*
X578569Y276304D01*
X576278Y278595D01*
X575037Y281589D01*
X575037Y284831D01*
X576278Y287825D01*
X578569Y290116D01*
X581563Y291357D01*
X596997Y291357D01*
X599991Y290116D01*
X602282Y287825D01*
X603523Y284831D01*
X603523Y281589D01*
X602282Y278595D01*
X599991Y276304D01*
X596997Y275063D01*
X581563Y275063D01*
G37*
%LPD*%
%LPC*%
G36*
X197043Y60224D02*
X197043Y60224D01*
X190569Y66698D01*
X190569Y75852D01*
X197043Y82326D01*
X206197Y82326D01*
X212671Y75852D01*
X212671Y66698D01*
X206197Y60224D01*
X197043Y60224D01*
G37*
%LPD*%
%LPC*%
G36*
X317043Y60224D02*
X317043Y60224D01*
X310569Y66698D01*
X310569Y75852D01*
X317043Y82326D01*
X326197Y82326D01*
X332671Y75852D01*
X332671Y66698D01*
X326197Y60224D01*
X317043Y60224D01*
G37*
%LPD*%
%LPC*%
G36*
X98255Y327387D02*
X98255Y327387D01*
X94420Y328976D01*
X91486Y331910D01*
X89897Y335745D01*
X89897Y339895D01*
X91486Y343730D01*
X94420Y346664D01*
X98255Y348253D01*
X102405Y348253D01*
X106240Y346664D01*
X109174Y343730D01*
X110763Y339895D01*
X110763Y335745D01*
X109174Y331910D01*
X106240Y328976D01*
X102405Y327387D01*
X98255Y327387D01*
G37*
%LPD*%
%LPC*%
G36*
X61425Y441687D02*
X61425Y441687D01*
X57590Y443276D01*
X54656Y446210D01*
X53067Y450045D01*
X53067Y454195D01*
X54656Y458030D01*
X57590Y460964D01*
X61425Y462553D01*
X65575Y462553D01*
X69410Y460964D01*
X72344Y458030D01*
X73933Y454195D01*
X73933Y450045D01*
X72344Y446210D01*
X69410Y443276D01*
X65575Y441687D01*
X61425Y441687D01*
G37*
%LPD*%
%LPC*%
G36*
X163025Y441687D02*
X163025Y441687D01*
X159190Y443276D01*
X156256Y446210D01*
X154667Y450045D01*
X154667Y454195D01*
X156256Y458030D01*
X159190Y460964D01*
X163025Y462553D01*
X167175Y462553D01*
X171010Y460964D01*
X173944Y458030D01*
X175533Y454195D01*
X175533Y450045D01*
X173944Y446210D01*
X171010Y443276D01*
X167175Y441687D01*
X163025Y441687D01*
G37*
%LPD*%
%LPC*%
G36*
X98255Y378187D02*
X98255Y378187D01*
X94420Y379776D01*
X91486Y382710D01*
X89897Y386545D01*
X89897Y390695D01*
X91486Y394530D01*
X94420Y397464D01*
X98255Y399053D01*
X102405Y399053D01*
X106240Y397464D01*
X109174Y394530D01*
X110763Y390695D01*
X110763Y386545D01*
X109174Y382710D01*
X106240Y379776D01*
X102405Y378187D01*
X98255Y378187D01*
G37*
%LPD*%
%LPC*%
G36*
X155856Y384918D02*
X155856Y384918D01*
X149968Y390806D01*
X149968Y399134D01*
X155856Y405022D01*
X164184Y405022D01*
X170072Y399134D01*
X170072Y390806D01*
X164184Y384918D01*
X155856Y384918D01*
G37*
%LPD*%
%LPC*%
G36*
X154586Y290938D02*
X154586Y290938D01*
X148698Y296826D01*
X148698Y305154D01*
X154586Y311042D01*
X162914Y311042D01*
X168802Y305154D01*
X168802Y296826D01*
X162914Y290938D01*
X154586Y290938D01*
G37*
%LPD*%
%LPC*%
G36*
X578131Y468738D02*
X578131Y468738D01*
X572243Y474626D01*
X572243Y482954D01*
X578131Y488842D01*
X586459Y488842D01*
X592347Y482954D01*
X592347Y474626D01*
X586459Y468738D01*
X578131Y468738D01*
G37*
%LPD*%
%LPC*%
G36*
X297830Y19615D02*
X297830Y19615D01*
X292462Y24983D01*
X292462Y32574D01*
X297830Y37941D01*
X305420Y37941D01*
X310788Y32574D01*
X310788Y24983D01*
X305420Y19615D01*
X297830Y19615D01*
G37*
%LPD*%
%LPC*%
G36*
X217820Y44609D02*
X217820Y44609D01*
X212452Y49976D01*
X212452Y57567D01*
X217820Y62935D01*
X225410Y62935D01*
X230778Y57567D01*
X230778Y49976D01*
X225410Y44609D01*
X217820Y44609D01*
G37*
%LPD*%
%LPC*%
G36*
X297830Y44609D02*
X297830Y44609D01*
X292462Y49976D01*
X292462Y57567D01*
X297830Y62935D01*
X305420Y62935D01*
X310788Y57567D01*
X310788Y49976D01*
X305420Y44609D01*
X297830Y44609D01*
G37*
%LPD*%
%LPC*%
G36*
X257825Y19615D02*
X257825Y19615D01*
X252457Y24983D01*
X252457Y32574D01*
X257825Y37941D01*
X265415Y37941D01*
X270783Y32574D01*
X270783Y24983D01*
X265415Y19615D01*
X257825Y19615D01*
G37*
%LPD*%
%LPC*%
G36*
X66039Y624839D02*
X66039Y624839D01*
X66039Y635636D01*
X69024Y635636D01*
X76836Y627824D01*
X76836Y624839D01*
X66039Y624839D01*
G37*
%LPD*%
%LPC*%
G36*
X72389Y224789D02*
X72389Y224789D01*
X72389Y235586D01*
X75374Y235586D01*
X83186Y227774D01*
X83186Y224789D01*
X72389Y224789D01*
G37*
%LPD*%
%LPC*%
G36*
X558164Y675639D02*
X558164Y675639D01*
X558164Y678624D01*
X565976Y686436D01*
X568961Y686436D01*
X568961Y675639D01*
X558164Y675639D01*
G37*
%LPD*%
%LPC*%
G36*
X50164Y624839D02*
X50164Y624839D01*
X50164Y627824D01*
X57976Y635636D01*
X60961Y635636D01*
X60961Y624839D01*
X50164Y624839D01*
G37*
%LPD*%
%LPC*%
G36*
X56514Y224789D02*
X56514Y224789D01*
X56514Y227774D01*
X64326Y235586D01*
X67311Y235586D01*
X67311Y224789D01*
X56514Y224789D01*
G37*
%LPD*%
%LPC*%
G36*
X72389Y208914D02*
X72389Y208914D01*
X72389Y219711D01*
X83186Y219711D01*
X83186Y216726D01*
X75374Y208914D01*
X72389Y208914D01*
G37*
%LPD*%
%LPC*%
G36*
X66039Y608964D02*
X66039Y608964D01*
X66039Y619761D01*
X76836Y619761D01*
X76836Y616776D01*
X69024Y608964D01*
X66039Y608964D01*
G37*
%LPD*%
%LPC*%
G36*
X565976Y659764D02*
X565976Y659764D01*
X558164Y667576D01*
X558164Y670561D01*
X568961Y670561D01*
X568961Y659764D01*
X565976Y659764D01*
G37*
%LPD*%
%LPC*%
G36*
X57976Y608964D02*
X57976Y608964D01*
X50164Y616776D01*
X50164Y619761D01*
X60961Y619761D01*
X60961Y608964D01*
X57976Y608964D01*
G37*
%LPD*%
%LPC*%
G36*
X64326Y208914D02*
X64326Y208914D01*
X56514Y216726D01*
X56514Y219711D01*
X67311Y219711D01*
X67311Y208914D01*
X64326Y208914D01*
G37*
%LPD*%
%LPC*%
G36*
X446749Y577559D02*
X446749Y577559D01*
X446749Y584601D01*
X451981Y584601D01*
X453426Y584372D01*
X454816Y583920D01*
X456119Y583256D01*
X457303Y582397D01*
X458337Y581363D01*
X459196Y580179D01*
X459860Y578876D01*
X460288Y577559D01*
X446749Y577559D01*
G37*
%LPD*%
%LPC*%
G36*
X414999Y153379D02*
X414999Y153379D01*
X414999Y166918D01*
X416316Y166490D01*
X417619Y165826D01*
X418803Y164967D01*
X419837Y163933D01*
X420696Y162749D01*
X421360Y161446D01*
X421812Y160056D01*
X422041Y158611D01*
X422041Y153379D01*
X414999Y153379D01*
G37*
%LPD*%
%LPC*%
G36*
X268949Y501359D02*
X268949Y501359D01*
X268949Y508401D01*
X274181Y508401D01*
X275626Y508172D01*
X277016Y507720D01*
X278319Y507056D01*
X279503Y506197D01*
X280537Y505163D01*
X281396Y503979D01*
X282060Y502676D01*
X282488Y501359D01*
X268949Y501359D01*
G37*
%LPD*%
%LPC*%
G36*
X428712Y577559D02*
X428712Y577559D01*
X429140Y578876D01*
X429804Y580179D01*
X430663Y581363D01*
X431697Y582397D01*
X432881Y583256D01*
X434184Y583920D01*
X435574Y584372D01*
X437019Y584601D01*
X442251Y584601D01*
X442251Y577559D01*
X428712Y577559D01*
G37*
%LPD*%
%LPC*%
G36*
X414999Y148881D02*
X414999Y148881D01*
X422041Y148881D01*
X422041Y143649D01*
X421812Y142204D01*
X421360Y140814D01*
X420696Y139511D01*
X419837Y138327D01*
X418803Y137293D01*
X417619Y136434D01*
X416316Y135770D01*
X414999Y135342D01*
X414999Y148881D01*
G37*
%LPD*%
%LPC*%
G36*
X250912Y501359D02*
X250912Y501359D01*
X251340Y502676D01*
X252004Y503979D01*
X252863Y505163D01*
X253897Y506197D01*
X255081Y507056D01*
X256384Y507720D01*
X257774Y508172D01*
X259219Y508401D01*
X264451Y508401D01*
X264451Y501359D01*
X250912Y501359D01*
G37*
%LPD*%
%LPC*%
G36*
X403459Y153379D02*
X403459Y153379D01*
X403459Y158611D01*
X403688Y160056D01*
X404140Y161446D01*
X404804Y162749D01*
X405663Y163933D01*
X406697Y164967D01*
X407881Y165826D01*
X409184Y166490D01*
X410501Y166918D01*
X410501Y153379D01*
X403459Y153379D01*
G37*
%LPD*%
%LPC*%
G36*
X446749Y566019D02*
X446749Y566019D01*
X446749Y573061D01*
X460288Y573061D01*
X459860Y571744D01*
X459196Y570441D01*
X458337Y569257D01*
X457303Y568223D01*
X456119Y567364D01*
X454816Y566700D01*
X453426Y566248D01*
X451981Y566019D01*
X446749Y566019D01*
G37*
%LPD*%
%LPC*%
G36*
X268949Y718419D02*
X268949Y718419D01*
X268949Y725461D01*
X282488Y725461D01*
X282060Y724144D01*
X281396Y722841D01*
X280537Y721657D01*
X279503Y720623D01*
X278319Y719764D01*
X277016Y719100D01*
X275626Y718648D01*
X274181Y718419D01*
X268949Y718419D01*
G37*
%LPD*%
%LPC*%
G36*
X268949Y489819D02*
X268949Y489819D01*
X268949Y496861D01*
X282488Y496861D01*
X282060Y495544D01*
X281396Y494241D01*
X280537Y493057D01*
X279503Y492023D01*
X278319Y491164D01*
X277016Y490500D01*
X275626Y490048D01*
X274181Y489819D01*
X268949Y489819D01*
G37*
%LPD*%
%LPC*%
G36*
X259219Y718419D02*
X259219Y718419D01*
X257774Y718648D01*
X256384Y719100D01*
X255081Y719764D01*
X253897Y720623D01*
X252863Y721657D01*
X252004Y722841D01*
X251340Y724144D01*
X250912Y725461D01*
X264451Y725461D01*
X264451Y718419D01*
X259219Y718419D01*
G37*
%LPD*%
%LPC*%
G36*
X437019Y566019D02*
X437019Y566019D01*
X435574Y566248D01*
X434184Y566700D01*
X432881Y567364D01*
X431697Y568223D01*
X430663Y569257D01*
X429804Y570441D01*
X429140Y571744D01*
X428712Y573061D01*
X442251Y573061D01*
X442251Y566019D01*
X437019Y566019D01*
G37*
%LPD*%
%LPC*%
G36*
X259219Y489819D02*
X259219Y489819D01*
X257774Y490048D01*
X256384Y490500D01*
X255081Y491164D01*
X253897Y492023D01*
X252863Y493057D01*
X252004Y494241D01*
X251340Y495544D01*
X250912Y496861D01*
X264451Y496861D01*
X264451Y489819D01*
X259219Y489819D01*
G37*
%LPD*%
%LPC*%
G36*
X409184Y135770D02*
X409184Y135770D01*
X407881Y136434D01*
X406697Y137293D01*
X405663Y138327D01*
X404804Y139511D01*
X404140Y140814D01*
X403688Y142204D01*
X403459Y143649D01*
X403459Y148881D01*
X410501Y148881D01*
X410501Y135342D01*
X409184Y135770D01*
G37*
%LPD*%
%LPC*%
G36*
X515111Y285241D02*
X515111Y285241D01*
X515111Y291847D01*
X520027Y291847D01*
X521695Y291515D01*
X523267Y290864D01*
X524682Y289919D01*
X525885Y288716D01*
X526830Y287301D01*
X527481Y285729D01*
X527578Y285241D01*
X515111Y285241D01*
G37*
%LPD*%
%LPC*%
G36*
X498582Y285241D02*
X498582Y285241D01*
X498679Y285729D01*
X499330Y287301D01*
X500275Y288716D01*
X501478Y289919D01*
X502893Y290864D01*
X504465Y291515D01*
X506133Y291847D01*
X511049Y291847D01*
X511049Y285241D01*
X498582Y285241D01*
G37*
%LPD*%
%LPC*%
G36*
X515111Y274573D02*
X515111Y274573D01*
X515111Y281179D01*
X527578Y281179D01*
X527481Y280691D01*
X526830Y279119D01*
X525885Y277704D01*
X524682Y276501D01*
X523267Y275556D01*
X521695Y274905D01*
X520027Y274573D01*
X515111Y274573D01*
G37*
%LPD*%
%LPC*%
G36*
X506133Y274573D02*
X506133Y274573D01*
X504465Y274905D01*
X502893Y275556D01*
X501478Y276501D01*
X500275Y277704D01*
X499330Y279119D01*
X498679Y280691D01*
X498582Y281179D01*
X511049Y281179D01*
X511049Y274573D01*
X506133Y274573D01*
G37*
%LPD*%
%LPC*%
G36*
X565911Y103631D02*
X565911Y103631D01*
X565911Y112142D01*
X568247Y112142D01*
X574422Y105967D01*
X574422Y103631D01*
X565911Y103631D01*
G37*
%LPD*%
%LPC*%
G36*
X186181Y303021D02*
X186181Y303021D01*
X186181Y311532D01*
X188517Y311532D01*
X194692Y305357D01*
X194692Y303021D01*
X186181Y303021D01*
G37*
%LPD*%
%LPC*%
G36*
X408431Y84581D02*
X408431Y84581D01*
X408431Y93092D01*
X410767Y93092D01*
X416942Y86917D01*
X416942Y84581D01*
X408431Y84581D01*
G37*
%LPD*%
%LPC*%
G36*
X609726Y480821D02*
X609726Y480821D01*
X609726Y489332D01*
X612062Y489332D01*
X618237Y483157D01*
X618237Y480821D01*
X609726Y480821D01*
G37*
%LPD*%
%LPC*%
G36*
X187451Y397001D02*
X187451Y397001D01*
X187451Y405512D01*
X189787Y405512D01*
X195962Y399337D01*
X195962Y397001D01*
X187451Y397001D01*
G37*
%LPD*%
%LPC*%
G36*
X395858Y84581D02*
X395858Y84581D01*
X395858Y86917D01*
X402033Y93092D01*
X404369Y93092D01*
X404369Y84581D01*
X395858Y84581D01*
G37*
%LPD*%
%LPC*%
G36*
X173608Y303021D02*
X173608Y303021D01*
X173608Y305357D01*
X179783Y311532D01*
X182119Y311532D01*
X182119Y303021D01*
X173608Y303021D01*
G37*
%LPD*%
%LPC*%
G36*
X553338Y103631D02*
X553338Y103631D01*
X553338Y105967D01*
X559513Y112142D01*
X561849Y112142D01*
X561849Y103631D01*
X553338Y103631D01*
G37*
%LPD*%
%LPC*%
G36*
X408431Y72008D02*
X408431Y72008D01*
X408431Y80519D01*
X416942Y80519D01*
X416942Y78183D01*
X410767Y72008D01*
X408431Y72008D01*
G37*
%LPD*%
%LPC*%
G36*
X187451Y384428D02*
X187451Y384428D01*
X187451Y392939D01*
X195962Y392939D01*
X195962Y390603D01*
X189787Y384428D01*
X187451Y384428D01*
G37*
%LPD*%
%LPC*%
G36*
X186181Y290448D02*
X186181Y290448D01*
X186181Y298959D01*
X194692Y298959D01*
X194692Y296623D01*
X188517Y290448D01*
X186181Y290448D01*
G37*
%LPD*%
%LPC*%
G36*
X609726Y468248D02*
X609726Y468248D01*
X609726Y476759D01*
X618237Y476759D01*
X618237Y474423D01*
X612062Y468248D01*
X609726Y468248D01*
G37*
%LPD*%
%LPC*%
G36*
X174878Y397001D02*
X174878Y397001D01*
X174878Y399337D01*
X181053Y405512D01*
X183389Y405512D01*
X183389Y397001D01*
X174878Y397001D01*
G37*
%LPD*%
%LPC*%
G36*
X597153Y480821D02*
X597153Y480821D01*
X597153Y483157D01*
X603328Y489332D01*
X605664Y489332D01*
X605664Y480821D01*
X597153Y480821D01*
G37*
%LPD*%
%LPC*%
G36*
X565911Y91058D02*
X565911Y91058D01*
X565911Y99569D01*
X574422Y99569D01*
X574422Y97233D01*
X568247Y91058D01*
X565911Y91058D01*
G37*
%LPD*%
%LPC*%
G36*
X179783Y290448D02*
X179783Y290448D01*
X173608Y296623D01*
X173608Y298959D01*
X182119Y298959D01*
X182119Y290448D01*
X179783Y290448D01*
G37*
%LPD*%
%LPC*%
G36*
X603328Y468248D02*
X603328Y468248D01*
X597153Y474423D01*
X597153Y476759D01*
X605664Y476759D01*
X605664Y468248D01*
X603328Y468248D01*
G37*
%LPD*%
%LPC*%
G36*
X181053Y384428D02*
X181053Y384428D01*
X174878Y390603D01*
X174878Y392939D01*
X183389Y392939D01*
X183389Y384428D01*
X181053Y384428D01*
G37*
%LPD*%
%LPC*%
G36*
X559513Y91058D02*
X559513Y91058D01*
X553338Y97233D01*
X553338Y99569D01*
X561849Y99569D01*
X561849Y91058D01*
X559513Y91058D01*
G37*
%LPD*%
%LPC*%
G36*
X402033Y72008D02*
X402033Y72008D01*
X395858Y78183D01*
X395858Y80519D01*
X404369Y80519D01*
X404369Y72008D01*
X402033Y72008D01*
G37*
%LPD*%
%LPC*%
G36*
X102829Y365719D02*
X102829Y365719D01*
X102829Y373883D01*
X102888Y373874D01*
X104523Y373343D01*
X106055Y372562D01*
X107446Y371551D01*
X108661Y370336D01*
X109672Y368945D01*
X110453Y367413D01*
X110984Y365778D01*
X110993Y365719D01*
X102829Y365719D01*
G37*
%LPD*%
%LPC*%
G36*
X102829Y360721D02*
X102829Y360721D01*
X110993Y360721D01*
X110984Y360662D01*
X110453Y359027D01*
X109672Y357495D01*
X108661Y356104D01*
X107446Y354889D01*
X106055Y353878D01*
X104523Y353097D01*
X102888Y352566D01*
X102829Y352557D01*
X102829Y360721D01*
G37*
%LPD*%
%LPC*%
G36*
X89667Y365719D02*
X89667Y365719D01*
X89676Y365778D01*
X90207Y367413D01*
X90988Y368945D01*
X91999Y370336D01*
X93214Y371551D01*
X94605Y372562D01*
X96137Y373343D01*
X97772Y373874D01*
X97831Y373883D01*
X97831Y365719D01*
X89667Y365719D01*
G37*
%LPD*%
%LPC*%
G36*
X97772Y352566D02*
X97772Y352566D01*
X96137Y353097D01*
X94605Y353878D01*
X93214Y354889D01*
X91999Y356104D01*
X90988Y357495D01*
X90207Y359027D01*
X89676Y360662D01*
X89667Y360721D01*
X97831Y360721D01*
X97831Y352557D01*
X97772Y352566D01*
G37*
%LPD*%
%LPC*%
G36*
X559053Y23113D02*
X559053Y23113D01*
X559053Y30735D01*
X560723Y30735D01*
X566675Y24783D01*
X566675Y23113D01*
X559053Y23113D01*
G37*
%LPD*%
%LPC*%
G36*
X399033Y23113D02*
X399033Y23113D01*
X399033Y30735D01*
X400703Y30735D01*
X406655Y24783D01*
X406655Y23113D01*
X399033Y23113D01*
G37*
%LPD*%
%LPC*%
G36*
X546353Y23113D02*
X546353Y23113D01*
X546353Y24783D01*
X552305Y30735D01*
X553975Y30735D01*
X553975Y23113D01*
X546353Y23113D01*
G37*
%LPD*%
%LPC*%
G36*
X386333Y23113D02*
X386333Y23113D01*
X386333Y24783D01*
X392285Y30735D01*
X393955Y30735D01*
X393955Y23113D01*
X386333Y23113D01*
G37*
%LPD*%
%LPC*%
G36*
X559053Y10413D02*
X559053Y10413D01*
X559053Y18035D01*
X566675Y18035D01*
X566675Y16365D01*
X560723Y10413D01*
X559053Y10413D01*
G37*
%LPD*%
%LPC*%
G36*
X399033Y10413D02*
X399033Y10413D01*
X399033Y18035D01*
X406655Y18035D01*
X406655Y16365D01*
X400703Y10413D01*
X399033Y10413D01*
G37*
%LPD*%
%LPC*%
G36*
X552305Y10413D02*
X552305Y10413D01*
X546353Y16365D01*
X546353Y18035D01*
X553975Y18035D01*
X553975Y10413D01*
X552305Y10413D01*
G37*
%LPD*%
%LPC*%
G36*
X392285Y10413D02*
X392285Y10413D01*
X386333Y16365D01*
X386333Y18035D01*
X393955Y18035D01*
X393955Y10413D01*
X392285Y10413D01*
G37*
%LPD*%
%LPC*%
G36*
X65531Y116331D02*
X65531Y116331D01*
X65531Y122937D01*
X67077Y122937D01*
X72137Y117877D01*
X72137Y116331D01*
X65531Y116331D01*
G37*
%LPD*%
%LPC*%
G36*
X54863Y116331D02*
X54863Y116331D01*
X54863Y117877D01*
X59923Y122937D01*
X61469Y122937D01*
X61469Y116331D01*
X54863Y116331D01*
G37*
%LPD*%
%LPC*%
G36*
X65531Y105663D02*
X65531Y105663D01*
X65531Y112269D01*
X72137Y112269D01*
X72137Y110723D01*
X67077Y105663D01*
X65531Y105663D01*
G37*
%LPD*%
%LPC*%
G36*
X59923Y105663D02*
X59923Y105663D01*
X54863Y110723D01*
X54863Y112269D01*
X61469Y112269D01*
X61469Y105663D01*
X59923Y105663D01*
G37*
%LPD*%
%LPC*%
G36*
X63499Y622299D02*
X63499Y622299D01*
X63499Y622301D01*
X63501Y622301D01*
X63501Y622299D01*
X63499Y622299D01*
G37*
%LPD*%
%LPC*%
G36*
X69849Y222249D02*
X69849Y222249D01*
X69849Y222251D01*
X69851Y222251D01*
X69851Y222249D01*
X69849Y222249D01*
G37*
%LPD*%
%LPC*%
G36*
X556513Y20573D02*
X556513Y20573D01*
X556513Y20575D01*
X556515Y20575D01*
X556515Y20573D01*
X556513Y20573D01*
G37*
%LPD*%
%LPC*%
G36*
X396493Y20573D02*
X396493Y20573D01*
X396493Y20575D01*
X396495Y20575D01*
X396495Y20573D01*
X396493Y20573D01*
G37*
%LPD*%
D10*
X582295Y478790D03*
X607695Y478790D03*
X158750Y300990D03*
X184150Y300990D03*
X160020Y394970D03*
X185420Y394970D03*
D11*
X589280Y101600D03*
X563880Y101600D03*
D12*
X100330Y337820D03*
X100330Y363220D03*
X100330Y388620D03*
D13*
X63500Y571500D03*
X63500Y622300D03*
X571500Y673100D03*
X596900Y673100D03*
X640715Y247650D03*
X63500Y508000D03*
X69850Y222250D03*
D14*
X506984Y435610D02*
X519176Y435610D01*
X519176Y410210D02*
X506984Y410210D01*
X506984Y283210D02*
X519176Y283210D01*
X583184Y283210D02*
X595376Y283210D01*
X519176Y384810D02*
X506984Y384810D01*
X506984Y359410D02*
X519176Y359410D01*
X519176Y308610D02*
X506984Y308610D01*
X506984Y334010D02*
X519176Y334010D01*
X583184Y308610D02*
X595376Y308610D01*
X595376Y334010D02*
X583184Y334010D01*
X583184Y359410D02*
X595376Y359410D01*
X595376Y384810D02*
X583184Y384810D01*
X583184Y410210D02*
X595376Y410210D01*
X595376Y435610D02*
X583184Y435610D01*
D12*
X63500Y452120D03*
X165100Y452120D03*
D15*
X556514Y20574D03*
X601726Y20574D03*
D16*
X544068Y45466D03*
X614172Y45466D03*
D17*
X451250Y295910D02*
X437750Y295910D01*
X437750Y321310D02*
X451250Y321310D01*
X451250Y346710D02*
X437750Y346710D01*
X437750Y372110D02*
X451250Y372110D01*
X451250Y397510D02*
X437750Y397510D01*
X437750Y422910D02*
X451250Y422910D01*
X451250Y448310D02*
X437750Y448310D01*
X437750Y473710D02*
X451250Y473710D01*
X451250Y499110D02*
X437750Y499110D01*
X437750Y524510D02*
X451250Y524510D01*
X273450Y524510D02*
X259950Y524510D01*
X259950Y499110D02*
X273450Y499110D01*
X273450Y473710D02*
X259950Y473710D01*
X259950Y448310D02*
X273450Y448310D01*
X273450Y422910D02*
X259950Y422910D01*
X259950Y397510D02*
X273450Y397510D01*
X273450Y372110D02*
X259950Y372110D01*
X259950Y346710D02*
X273450Y346710D01*
X273450Y321310D02*
X259950Y321310D01*
X259950Y295910D02*
X273450Y295910D01*
X387350Y157880D02*
X387350Y144380D01*
X412750Y144380D02*
X412750Y157880D01*
X437750Y549910D02*
X451250Y549910D01*
X451250Y575310D02*
X437750Y575310D01*
X273450Y270510D02*
X259950Y270510D01*
X259950Y245110D02*
X273450Y245110D01*
X273450Y219710D02*
X259950Y219710D01*
X259950Y194310D02*
X273450Y194310D01*
X273450Y168910D02*
X259950Y168910D01*
X259950Y143510D02*
X273450Y143510D01*
X437750Y270510D02*
X451250Y270510D01*
X451250Y245110D02*
X437750Y245110D01*
X437750Y219710D02*
X451250Y219710D01*
X451250Y194310D02*
X437750Y194310D01*
X437750Y168910D02*
X451250Y168910D01*
X451250Y143510D02*
X437750Y143510D01*
X437750Y600710D02*
X451250Y600710D01*
X451250Y626110D02*
X437750Y626110D01*
X437750Y651510D02*
X451250Y651510D01*
X451250Y676910D02*
X437750Y676910D01*
X437750Y702310D02*
X451250Y702310D01*
X451250Y727710D02*
X437750Y727710D01*
X273450Y549910D02*
X259950Y549910D01*
X259950Y575310D02*
X273450Y575310D01*
X273450Y600710D02*
X259950Y600710D01*
X259950Y626110D02*
X273450Y626110D01*
X273450Y651510D02*
X259950Y651510D01*
X259950Y676910D02*
X273450Y676910D01*
X273450Y702310D02*
X259950Y702310D01*
X259950Y727710D02*
X273450Y727710D01*
D11*
X431800Y82550D03*
X406400Y82550D03*
D15*
X396494Y20574D03*
X441706Y20574D03*
D16*
X384048Y45466D03*
X454152Y45466D03*
D18*
X261620Y53772D03*
X221615Y53772D03*
X301625Y53772D03*
X261620Y28778D03*
X301625Y28778D03*
X221615Y28778D03*
D19*
X201620Y11275D03*
X201620Y71275D03*
X321620Y71275D03*
X321620Y11275D03*
D20*
X63500Y152400D03*
X139700Y152400D03*
D21*
X139700Y114300D03*
X63500Y114300D03*
D22*
X19050Y527050D02*
X63500Y571500D01*
X19050Y527050D02*
X19050Y76200D01*
X82550Y12700D02*
X152400Y12700D01*
X82550Y12700D02*
X19050Y76200D01*
X216967Y98425D02*
X261620Y53772D01*
X216967Y98425D02*
X196850Y98425D01*
X174625Y76200D01*
X174625Y34925D01*
X152400Y12700D01*
D23*
X552450Y266700D02*
X571500Y247650D01*
X552450Y266700D02*
X552450Y368300D01*
X535940Y384810D02*
X513080Y384810D01*
X571500Y247650D02*
X640715Y247650D01*
X552450Y368300D02*
X535940Y384810D01*
X476250Y539750D02*
X476250Y552450D01*
X476250Y539750D02*
X461010Y524510D01*
X444500Y524510D01*
X476250Y552450D02*
X596900Y673100D01*
X513080Y410210D02*
X485140Y410210D01*
X472440Y422910D02*
X444500Y422910D01*
X472440Y422910D02*
X485140Y410210D01*
X589280Y101600D02*
X589280Y33020D01*
X601726Y20574D01*
X589280Y101600D02*
X544830Y146050D01*
X527050Y146050D01*
X472440Y397510D02*
X444500Y397510D01*
X472440Y397510D02*
X488950Y381000D01*
X488950Y184150D01*
X527050Y146050D01*
X431800Y30480D02*
X441706Y20574D01*
X431800Y30480D02*
X431800Y82550D01*
X469900Y120650D01*
X469900Y361950D01*
X459740Y372110D02*
X444500Y372110D01*
X459740Y372110D02*
X469900Y361950D01*
X114300Y101600D02*
X63500Y152400D01*
X171450Y101600D02*
X184150Y114300D01*
X279400Y76200D02*
X279400Y25400D01*
X266700Y12700D01*
X237693Y12700D01*
X171450Y101600D02*
X114300Y101600D01*
X184150Y114300D02*
X241300Y114300D01*
X279400Y76200D01*
X221615Y28778D02*
X237693Y12700D01*
X139700Y127000D02*
X139700Y152400D01*
X139700Y127000D02*
X139700Y114300D01*
X139700Y127000D02*
X298450Y127000D01*
X384810Y346710D02*
X444500Y346710D01*
X317500Y279400D02*
X317500Y146050D01*
X298450Y127000D01*
X317500Y279400D02*
X384810Y346710D01*
X485140Y435610D02*
X513080Y435610D01*
X472440Y448310D02*
X444500Y448310D01*
X472440Y448310D02*
X485140Y435610D01*
M02*
