G04 EAGLE Gerber RS-274X export*
G75*
%MOMM*%
%FSLAX34Y34*%
%LPD*%
%INSilkscreen Top*%
%IPPOS*%
%AMOC8*
5,1,8,0,0,1.08239X$1,22.5*%
G01*
%ADD10C,0.152400*%
%ADD11C,0.101600*%
%ADD12C,0.254000*%
%ADD13C,0.127000*%
%ADD14C,0.203200*%
%ADD15C,0.812219*%
%ADD16R,0.508000X2.540000*%
%ADD17R,1.905000X0.762000*%
%ADD18C,0.177800*%
%ADD19R,0.381000X0.508000*%


D10*
X31242Y282462D02*
X31242Y266192D01*
X42089Y266192D01*
X47614Y282462D02*
X58460Y282462D01*
X47614Y282462D02*
X47614Y266192D01*
X58460Y266192D01*
X53037Y274327D02*
X47614Y274327D01*
X63985Y282462D02*
X63985Y266192D01*
X72120Y266192D01*
X74832Y268904D01*
X74832Y279750D01*
X72120Y282462D01*
X63985Y282462D01*
X104863Y282462D02*
X107575Y279750D01*
X104863Y282462D02*
X99440Y282462D01*
X96728Y279750D01*
X96728Y277039D01*
X99440Y274327D01*
X104863Y274327D01*
X107575Y271615D01*
X107575Y268904D01*
X104863Y266192D01*
X99440Y266192D01*
X96728Y268904D01*
X118523Y266192D02*
X118523Y282462D01*
X113100Y282462D02*
X123946Y282462D01*
X129471Y282462D02*
X129471Y266192D01*
X129471Y282462D02*
X137606Y282462D01*
X140318Y279750D01*
X140318Y274327D01*
X137606Y271615D01*
X129471Y271615D01*
X134895Y271615D02*
X140318Y266192D01*
X42089Y253080D02*
X39377Y255792D01*
X33954Y255792D01*
X31242Y253080D01*
X31242Y242234D01*
X33954Y239522D01*
X39377Y239522D01*
X42089Y242234D01*
X42089Y247657D01*
X36665Y247657D01*
X47614Y239522D02*
X47614Y255792D01*
X58460Y239522D01*
X58460Y255792D01*
X63985Y255792D02*
X63985Y239522D01*
X72120Y239522D01*
X74832Y242234D01*
X74832Y253080D01*
X72120Y255792D01*
X63985Y255792D01*
X14732Y478282D02*
X14732Y494552D01*
X14732Y478282D02*
X25579Y478282D01*
X31104Y494552D02*
X41950Y494552D01*
X31104Y494552D02*
X31104Y478282D01*
X41950Y478282D01*
X36527Y486417D02*
X31104Y486417D01*
X47475Y494552D02*
X47475Y478282D01*
X55610Y478282D01*
X58322Y480994D01*
X58322Y491840D01*
X55610Y494552D01*
X47475Y494552D01*
X88353Y494552D02*
X91065Y491840D01*
X88353Y494552D02*
X82930Y494552D01*
X80218Y491840D01*
X80218Y489129D01*
X82930Y486417D01*
X88353Y486417D01*
X91065Y483705D01*
X91065Y480994D01*
X88353Y478282D01*
X82930Y478282D01*
X80218Y480994D01*
X102013Y478282D02*
X102013Y494552D01*
X96590Y494552D02*
X107436Y494552D01*
X112961Y494552D02*
X112961Y478282D01*
X112961Y494552D02*
X121096Y494552D01*
X123808Y491840D01*
X123808Y486417D01*
X121096Y483705D01*
X112961Y483705D01*
X118385Y483705D02*
X123808Y478282D01*
X145705Y486417D02*
X156551Y486417D01*
X151128Y491840D02*
X151128Y480994D01*
X162076Y494552D02*
X172923Y494552D01*
X162076Y494552D02*
X162076Y486417D01*
X167499Y489129D01*
X170211Y489129D01*
X172923Y486417D01*
X172923Y480994D01*
X170211Y478282D01*
X164788Y478282D01*
X162076Y480994D01*
X178448Y483705D02*
X178448Y494552D01*
X178448Y483705D02*
X183871Y478282D01*
X189294Y483705D01*
X189294Y494552D01*
X615442Y207532D02*
X615442Y191262D01*
X626289Y191262D01*
X631814Y207532D02*
X642660Y207532D01*
X631814Y207532D02*
X631814Y191262D01*
X642660Y191262D01*
X637237Y199397D02*
X631814Y199397D01*
X648185Y207532D02*
X648185Y191262D01*
X656320Y191262D01*
X659032Y193974D01*
X659032Y204820D01*
X656320Y207532D01*
X648185Y207532D01*
X623577Y180862D02*
X626289Y178150D01*
X623577Y180862D02*
X618154Y180862D01*
X615442Y178150D01*
X615442Y175439D01*
X618154Y172727D01*
X623577Y172727D01*
X626289Y170015D01*
X626289Y167304D01*
X623577Y164592D01*
X618154Y164592D01*
X615442Y167304D01*
X637237Y164592D02*
X637237Y180862D01*
X631814Y180862D02*
X642660Y180862D01*
X648185Y180862D02*
X648185Y164592D01*
X648185Y180862D02*
X656320Y180862D01*
X659032Y178150D01*
X659032Y172727D01*
X656320Y170015D01*
X648185Y170015D01*
X653608Y170015D02*
X659032Y164592D01*
X615442Y154192D02*
X615442Y137922D01*
X623577Y137922D01*
X626289Y140634D01*
X626289Y151480D01*
X623577Y154192D01*
X615442Y154192D01*
X631814Y137922D02*
X637237Y137922D01*
X634525Y137922D02*
X634525Y154192D01*
X631814Y154192D02*
X637237Y154192D01*
X642728Y154192D02*
X642728Y137922D01*
X653575Y137922D02*
X642728Y154192D01*
X653575Y154192D02*
X653575Y137922D01*
X551942Y722294D02*
X551942Y735852D01*
X551942Y722294D02*
X554654Y719582D01*
X560077Y719582D01*
X562789Y722294D01*
X562789Y735852D01*
X568314Y730429D02*
X568314Y719582D01*
X568314Y730429D02*
X573737Y735852D01*
X579160Y730429D01*
X579160Y719582D01*
X579160Y727717D02*
X568314Y727717D01*
X584685Y719582D02*
X584685Y735852D01*
X592820Y735852D01*
X595532Y733140D01*
X595532Y727717D01*
X592820Y725005D01*
X584685Y725005D01*
X590108Y725005D02*
X595532Y719582D01*
X606480Y719582D02*
X606480Y735852D01*
X601057Y735852D02*
X611903Y735852D01*
X39549Y572777D02*
X28702Y572777D01*
X34125Y578200D02*
X34125Y567354D01*
X36322Y621037D02*
X47169Y621037D01*
X546107Y709182D02*
X548819Y706470D01*
X546107Y709182D02*
X540684Y709182D01*
X537972Y706470D01*
X537972Y695624D01*
X540684Y692912D01*
X546107Y692912D01*
X548819Y695624D01*
X548819Y701047D01*
X543395Y701047D01*
X554344Y692912D02*
X554344Y709182D01*
X565190Y692912D01*
X565190Y709182D01*
X570715Y709182D02*
X570715Y692912D01*
X578850Y692912D01*
X581562Y695624D01*
X581562Y706470D01*
X578850Y709182D01*
X570715Y709182D01*
X600202Y692912D02*
X605625Y692912D01*
X602914Y692912D02*
X602914Y709182D01*
X605625Y709182D02*
X600202Y709182D01*
X611116Y709182D02*
X611116Y692912D01*
X621963Y692912D02*
X611116Y709182D01*
X621963Y709182D02*
X621963Y692912D01*
X489129Y599790D02*
X486417Y602502D01*
X480994Y602502D01*
X478282Y599790D01*
X478282Y588944D01*
X480994Y586232D01*
X486417Y586232D01*
X489129Y588944D01*
X489129Y594367D01*
X483705Y594367D01*
X494654Y588944D02*
X494654Y586232D01*
X494654Y588944D02*
X497365Y588944D01*
X497365Y586232D01*
X494654Y586232D01*
X527346Y602502D02*
X530058Y599790D01*
X527346Y602502D02*
X521923Y602502D01*
X519211Y599790D01*
X519211Y588944D01*
X521923Y586232D01*
X527346Y586232D01*
X530058Y588944D01*
X530058Y594367D01*
X524634Y594367D01*
X535582Y586232D02*
X535582Y602502D01*
X543717Y602502D01*
X546429Y599790D01*
X546429Y594367D01*
X543717Y591655D01*
X535582Y591655D01*
X541006Y591655D02*
X546429Y586232D01*
X551954Y588944D02*
X551954Y602502D01*
X551954Y588944D02*
X554666Y586232D01*
X560089Y586232D01*
X562801Y588944D01*
X562801Y602502D01*
X568326Y602502D02*
X568326Y586232D01*
X573749Y597079D02*
X568326Y602502D01*
X573749Y597079D02*
X579172Y602502D01*
X579172Y586232D01*
X584697Y586232D02*
X584697Y602502D01*
X590120Y597079D01*
X595544Y602502D01*
X595544Y586232D01*
X601069Y602502D02*
X611915Y602502D01*
X601069Y602502D02*
X601069Y586232D01*
X611915Y586232D01*
X606492Y594367D02*
X601069Y594367D01*
X617440Y586232D02*
X617440Y602502D01*
X625575Y602502D01*
X628287Y599790D01*
X628287Y594367D01*
X625575Y591655D01*
X617440Y591655D01*
X622864Y591655D02*
X628287Y586232D01*
X490982Y616712D02*
X490982Y632982D01*
X490982Y616712D02*
X499117Y616712D01*
X501829Y619424D01*
X501829Y630270D01*
X499117Y632982D01*
X490982Y632982D01*
X507354Y627559D02*
X507354Y616712D01*
X507354Y627559D02*
X512777Y632982D01*
X518200Y627559D01*
X518200Y616712D01*
X518200Y624847D02*
X507354Y624847D01*
X523725Y632982D02*
X534572Y632982D01*
X534572Y630270D01*
X523725Y619424D01*
X523725Y616712D01*
X534572Y616712D01*
X540097Y632982D02*
X550943Y632982D01*
X550943Y630270D01*
X540097Y619424D01*
X540097Y616712D01*
X550943Y616712D01*
X556468Y632982D02*
X567315Y632982D01*
X556468Y632982D02*
X556468Y616712D01*
X567315Y616712D01*
X561892Y624847D02*
X556468Y624847D01*
X572840Y632982D02*
X572840Y616712D01*
X583686Y616712D01*
X589211Y616712D02*
X594635Y616712D01*
X591923Y616712D02*
X591923Y632982D01*
X589211Y632982D02*
X594635Y632982D01*
X605549Y632982D02*
X605549Y616712D01*
X600126Y632982D02*
X610972Y632982D01*
X616497Y632982D02*
X627344Y632982D01*
X616497Y632982D02*
X616497Y616712D01*
X627344Y616712D01*
X621921Y624847D02*
X616497Y624847D01*
X567182Y572022D02*
X567182Y555752D01*
X567182Y572022D02*
X575317Y572022D01*
X578029Y569310D01*
X578029Y563887D01*
X575317Y561175D01*
X567182Y561175D01*
X572605Y561175D02*
X578029Y555752D01*
X583554Y572022D02*
X594400Y572022D01*
X583554Y572022D02*
X583554Y555752D01*
X594400Y555752D01*
X588977Y563887D02*
X583554Y563887D01*
X599925Y561175D02*
X599925Y572022D01*
X599925Y561175D02*
X605348Y555752D01*
X610772Y561175D01*
X610772Y572022D01*
X632668Y572022D02*
X643515Y572022D01*
X632668Y572022D02*
X632668Y555752D01*
X643515Y555752D01*
X638092Y563887D02*
X632668Y563887D01*
X649040Y558464D02*
X649040Y555752D01*
X649040Y558464D02*
X651751Y558464D01*
X651751Y555752D01*
X649040Y555752D01*
X657226Y558464D02*
X657226Y569310D01*
X659937Y572022D01*
X665361Y572022D01*
X668072Y569310D01*
X668072Y558464D01*
X665361Y555752D01*
X659937Y555752D01*
X657226Y558464D01*
X668072Y569310D01*
X42089Y621037D02*
X31242Y621037D01*
X130302Y306077D02*
X141149Y306077D01*
X135725Y311500D02*
X135725Y300654D01*
X130302Y393707D02*
X141149Y393707D01*
X135725Y399130D02*
X135725Y388284D01*
X102705Y639160D02*
X108129Y641872D01*
X102705Y639160D02*
X97282Y633737D01*
X97282Y628314D01*
X99994Y625602D01*
X105417Y625602D01*
X108129Y628314D01*
X108129Y631025D01*
X105417Y633737D01*
X97282Y633737D01*
X113654Y628314D02*
X113654Y625602D01*
X113654Y628314D02*
X116365Y628314D01*
X116365Y625602D01*
X113654Y625602D01*
X121839Y641872D02*
X132686Y641872D01*
X121839Y641872D02*
X121839Y633737D01*
X127263Y636449D01*
X129974Y636449D01*
X132686Y633737D01*
X132686Y628314D01*
X129974Y625602D01*
X124551Y625602D01*
X121839Y628314D01*
X138211Y631025D02*
X138211Y641872D01*
X138211Y631025D02*
X143634Y625602D01*
X149058Y631025D01*
X149058Y641872D01*
X176377Y641872D02*
X176377Y625602D01*
X170954Y641872D02*
X181801Y641872D01*
X190037Y641872D02*
X195461Y641872D01*
X190037Y641872D02*
X187326Y639160D01*
X187326Y628314D01*
X190037Y625602D01*
X195461Y625602D01*
X198172Y628314D01*
X198172Y639160D01*
X195461Y641872D01*
X102705Y615202D02*
X97282Y609779D01*
X102705Y615202D02*
X102705Y598932D01*
X97282Y598932D02*
X108129Y598932D01*
X113654Y615202D02*
X124500Y615202D01*
X113654Y615202D02*
X113654Y607067D01*
X119077Y609779D01*
X121789Y609779D01*
X124500Y607067D01*
X124500Y601644D01*
X121789Y598932D01*
X116365Y598932D01*
X113654Y601644D01*
X130025Y604355D02*
X130025Y615202D01*
X130025Y604355D02*
X135448Y598932D01*
X140872Y604355D01*
X140872Y615202D01*
X102705Y572262D02*
X97282Y572262D01*
X99994Y572262D02*
X99994Y588532D01*
X102705Y588532D02*
X97282Y588532D01*
X108196Y588532D02*
X108196Y572262D01*
X119043Y572262D02*
X108196Y588532D01*
X119043Y588532D02*
X119043Y572262D01*
X124568Y572262D02*
X124568Y588532D01*
X132703Y588532D01*
X135415Y585820D01*
X135415Y580397D01*
X132703Y577685D01*
X124568Y577685D01*
X140940Y574974D02*
X140940Y588532D01*
X140940Y574974D02*
X143651Y572262D01*
X149074Y572262D01*
X151786Y574974D01*
X151786Y588532D01*
X162734Y588532D02*
X162734Y572262D01*
X157311Y588532D02*
X168158Y588532D01*
D11*
X488188Y437564D02*
X492086Y441462D01*
X492086Y429768D01*
X488188Y429768D02*
X495984Y429768D01*
D10*
X573405Y494030D02*
X616585Y494030D01*
X616585Y463550D02*
X573405Y463550D01*
X619125Y466090D02*
X619125Y491490D01*
X570865Y491490D02*
X570865Y466090D01*
X616585Y494030D02*
X616685Y494028D01*
X616784Y494022D01*
X616884Y494012D01*
X616982Y493999D01*
X617081Y493981D01*
X617178Y493960D01*
X617274Y493935D01*
X617370Y493906D01*
X617464Y493873D01*
X617557Y493837D01*
X617648Y493797D01*
X617738Y493753D01*
X617826Y493706D01*
X617912Y493656D01*
X617996Y493602D01*
X618078Y493545D01*
X618157Y493485D01*
X618235Y493421D01*
X618309Y493355D01*
X618381Y493286D01*
X618450Y493214D01*
X618516Y493140D01*
X618580Y493062D01*
X618640Y492983D01*
X618697Y492901D01*
X618751Y492817D01*
X618801Y492731D01*
X618848Y492643D01*
X618892Y492553D01*
X618932Y492462D01*
X618968Y492369D01*
X619001Y492275D01*
X619030Y492179D01*
X619055Y492083D01*
X619076Y491986D01*
X619094Y491887D01*
X619107Y491789D01*
X619117Y491689D01*
X619123Y491590D01*
X619125Y491490D01*
X573405Y494030D02*
X573305Y494028D01*
X573206Y494022D01*
X573106Y494012D01*
X573008Y493999D01*
X572909Y493981D01*
X572812Y493960D01*
X572716Y493935D01*
X572620Y493906D01*
X572526Y493873D01*
X572433Y493837D01*
X572342Y493797D01*
X572252Y493753D01*
X572164Y493706D01*
X572078Y493656D01*
X571994Y493602D01*
X571912Y493545D01*
X571833Y493485D01*
X571755Y493421D01*
X571681Y493355D01*
X571609Y493286D01*
X571540Y493214D01*
X571474Y493140D01*
X571410Y493062D01*
X571350Y492983D01*
X571293Y492901D01*
X571239Y492817D01*
X571189Y492731D01*
X571142Y492643D01*
X571098Y492553D01*
X571058Y492462D01*
X571022Y492369D01*
X570989Y492275D01*
X570960Y492179D01*
X570935Y492083D01*
X570914Y491986D01*
X570896Y491887D01*
X570883Y491789D01*
X570873Y491689D01*
X570867Y491590D01*
X570865Y491490D01*
X616585Y463550D02*
X616685Y463552D01*
X616784Y463558D01*
X616884Y463568D01*
X616982Y463581D01*
X617081Y463599D01*
X617178Y463620D01*
X617274Y463645D01*
X617370Y463674D01*
X617464Y463707D01*
X617557Y463743D01*
X617648Y463783D01*
X617738Y463827D01*
X617826Y463874D01*
X617912Y463924D01*
X617996Y463978D01*
X618078Y464035D01*
X618157Y464095D01*
X618235Y464159D01*
X618309Y464225D01*
X618381Y464294D01*
X618450Y464366D01*
X618516Y464440D01*
X618580Y464518D01*
X618640Y464597D01*
X618697Y464679D01*
X618751Y464763D01*
X618801Y464849D01*
X618848Y464937D01*
X618892Y465027D01*
X618932Y465118D01*
X618968Y465211D01*
X619001Y465305D01*
X619030Y465401D01*
X619055Y465497D01*
X619076Y465594D01*
X619094Y465693D01*
X619107Y465791D01*
X619117Y465891D01*
X619123Y465990D01*
X619125Y466090D01*
X573405Y463550D02*
X573305Y463552D01*
X573206Y463558D01*
X573106Y463568D01*
X573008Y463581D01*
X572909Y463599D01*
X572812Y463620D01*
X572716Y463645D01*
X572620Y463674D01*
X572526Y463707D01*
X572433Y463743D01*
X572342Y463783D01*
X572252Y463827D01*
X572164Y463874D01*
X572078Y463924D01*
X571994Y463978D01*
X571912Y464035D01*
X571833Y464095D01*
X571755Y464159D01*
X571681Y464225D01*
X571609Y464294D01*
X571540Y464366D01*
X571474Y464440D01*
X571410Y464518D01*
X571350Y464597D01*
X571293Y464679D01*
X571239Y464763D01*
X571189Y464849D01*
X571142Y464937D01*
X571098Y465027D01*
X571058Y465118D01*
X571022Y465211D01*
X570989Y465305D01*
X570960Y465401D01*
X570935Y465497D01*
X570914Y465594D01*
X570896Y465693D01*
X570883Y465791D01*
X570873Y465891D01*
X570867Y465990D01*
X570865Y466090D01*
X597535Y478790D02*
X598805Y478790D01*
D12*
X597535Y478790D02*
X597535Y486410D01*
X597535Y478790D02*
X597535Y471170D01*
X592455Y478790D02*
X592455Y486410D01*
X592455Y478790D02*
X592455Y471170D01*
D10*
X592455Y478790D02*
X591185Y478790D01*
D13*
X576587Y509278D02*
X574680Y511185D01*
X570867Y511185D01*
X568960Y509278D01*
X568960Y501652D01*
X570867Y499745D01*
X574680Y499745D01*
X576587Y501652D01*
X580654Y507372D02*
X584467Y511185D01*
X584467Y499745D01*
X580654Y499745D02*
X588280Y499745D01*
D10*
X193040Y328930D02*
X149860Y328930D01*
X149860Y273050D02*
X193040Y273050D01*
X195580Y275590D02*
X195580Y326390D01*
X147320Y326390D02*
X147320Y275590D01*
X195580Y326390D02*
X195578Y326490D01*
X195572Y326589D01*
X195562Y326689D01*
X195549Y326787D01*
X195531Y326886D01*
X195510Y326983D01*
X195485Y327079D01*
X195456Y327175D01*
X195423Y327269D01*
X195387Y327362D01*
X195347Y327453D01*
X195303Y327543D01*
X195256Y327631D01*
X195206Y327717D01*
X195152Y327801D01*
X195095Y327883D01*
X195035Y327962D01*
X194971Y328040D01*
X194905Y328114D01*
X194836Y328186D01*
X194764Y328255D01*
X194690Y328321D01*
X194612Y328385D01*
X194533Y328445D01*
X194451Y328502D01*
X194367Y328556D01*
X194281Y328606D01*
X194193Y328653D01*
X194103Y328697D01*
X194012Y328737D01*
X193919Y328773D01*
X193825Y328806D01*
X193729Y328835D01*
X193633Y328860D01*
X193536Y328881D01*
X193437Y328899D01*
X193339Y328912D01*
X193239Y328922D01*
X193140Y328928D01*
X193040Y328930D01*
X149860Y328930D02*
X149760Y328928D01*
X149661Y328922D01*
X149561Y328912D01*
X149463Y328899D01*
X149364Y328881D01*
X149267Y328860D01*
X149171Y328835D01*
X149075Y328806D01*
X148981Y328773D01*
X148888Y328737D01*
X148797Y328697D01*
X148707Y328653D01*
X148619Y328606D01*
X148533Y328556D01*
X148449Y328502D01*
X148367Y328445D01*
X148288Y328385D01*
X148210Y328321D01*
X148136Y328255D01*
X148064Y328186D01*
X147995Y328114D01*
X147929Y328040D01*
X147865Y327962D01*
X147805Y327883D01*
X147748Y327801D01*
X147694Y327717D01*
X147644Y327631D01*
X147597Y327543D01*
X147553Y327453D01*
X147513Y327362D01*
X147477Y327269D01*
X147444Y327175D01*
X147415Y327079D01*
X147390Y326983D01*
X147369Y326886D01*
X147351Y326787D01*
X147338Y326689D01*
X147328Y326589D01*
X147322Y326490D01*
X147320Y326390D01*
X195580Y275590D02*
X195578Y275490D01*
X195572Y275391D01*
X195562Y275291D01*
X195549Y275193D01*
X195531Y275094D01*
X195510Y274997D01*
X195485Y274901D01*
X195456Y274805D01*
X195423Y274711D01*
X195387Y274618D01*
X195347Y274527D01*
X195303Y274437D01*
X195256Y274349D01*
X195206Y274263D01*
X195152Y274179D01*
X195095Y274097D01*
X195035Y274018D01*
X194971Y273940D01*
X194905Y273866D01*
X194836Y273794D01*
X194764Y273725D01*
X194690Y273659D01*
X194612Y273595D01*
X194533Y273535D01*
X194451Y273478D01*
X194367Y273424D01*
X194281Y273374D01*
X194193Y273327D01*
X194103Y273283D01*
X194012Y273243D01*
X193919Y273207D01*
X193825Y273174D01*
X193729Y273145D01*
X193633Y273120D01*
X193536Y273099D01*
X193437Y273081D01*
X193339Y273068D01*
X193239Y273058D01*
X193140Y273052D01*
X193040Y273050D01*
X149860Y273050D02*
X149760Y273052D01*
X149661Y273058D01*
X149561Y273068D01*
X149463Y273081D01*
X149364Y273099D01*
X149267Y273120D01*
X149171Y273145D01*
X149075Y273174D01*
X148981Y273207D01*
X148888Y273243D01*
X148797Y273283D01*
X148707Y273327D01*
X148619Y273374D01*
X148533Y273424D01*
X148449Y273478D01*
X148367Y273535D01*
X148288Y273595D01*
X148210Y273659D01*
X148136Y273725D01*
X148064Y273794D01*
X147995Y273866D01*
X147929Y273940D01*
X147865Y274018D01*
X147805Y274097D01*
X147748Y274179D01*
X147694Y274263D01*
X147644Y274349D01*
X147597Y274437D01*
X147553Y274527D01*
X147513Y274618D01*
X147477Y274711D01*
X147444Y274805D01*
X147415Y274901D01*
X147390Y274997D01*
X147369Y275094D01*
X147351Y275193D01*
X147338Y275291D01*
X147328Y275391D01*
X147322Y275490D01*
X147320Y275590D01*
X173990Y300990D02*
X175260Y300990D01*
D12*
X173990Y300990D02*
X173990Y308610D01*
X173990Y300990D02*
X173990Y293370D01*
X168910Y300990D02*
X168910Y308610D01*
X168910Y300990D02*
X168910Y293370D01*
D10*
X168910Y300990D02*
X167640Y300990D01*
D13*
X153042Y344178D02*
X151135Y346085D01*
X147322Y346085D01*
X145415Y344178D01*
X145415Y336552D01*
X147322Y334645D01*
X151135Y334645D01*
X153042Y336552D01*
X157109Y334645D02*
X164735Y334645D01*
X157109Y334645D02*
X164735Y342272D01*
X164735Y344178D01*
X162829Y346085D01*
X159016Y346085D01*
X157109Y344178D01*
D10*
X151130Y422910D02*
X194310Y422910D01*
X194310Y367030D02*
X151130Y367030D01*
X196850Y369570D02*
X196850Y420370D01*
X148590Y420370D02*
X148590Y369570D01*
X196850Y420370D02*
X196848Y420470D01*
X196842Y420569D01*
X196832Y420669D01*
X196819Y420767D01*
X196801Y420866D01*
X196780Y420963D01*
X196755Y421059D01*
X196726Y421155D01*
X196693Y421249D01*
X196657Y421342D01*
X196617Y421433D01*
X196573Y421523D01*
X196526Y421611D01*
X196476Y421697D01*
X196422Y421781D01*
X196365Y421863D01*
X196305Y421942D01*
X196241Y422020D01*
X196175Y422094D01*
X196106Y422166D01*
X196034Y422235D01*
X195960Y422301D01*
X195882Y422365D01*
X195803Y422425D01*
X195721Y422482D01*
X195637Y422536D01*
X195551Y422586D01*
X195463Y422633D01*
X195373Y422677D01*
X195282Y422717D01*
X195189Y422753D01*
X195095Y422786D01*
X194999Y422815D01*
X194903Y422840D01*
X194806Y422861D01*
X194707Y422879D01*
X194609Y422892D01*
X194509Y422902D01*
X194410Y422908D01*
X194310Y422910D01*
X151130Y422910D02*
X151030Y422908D01*
X150931Y422902D01*
X150831Y422892D01*
X150733Y422879D01*
X150634Y422861D01*
X150537Y422840D01*
X150441Y422815D01*
X150345Y422786D01*
X150251Y422753D01*
X150158Y422717D01*
X150067Y422677D01*
X149977Y422633D01*
X149889Y422586D01*
X149803Y422536D01*
X149719Y422482D01*
X149637Y422425D01*
X149558Y422365D01*
X149480Y422301D01*
X149406Y422235D01*
X149334Y422166D01*
X149265Y422094D01*
X149199Y422020D01*
X149135Y421942D01*
X149075Y421863D01*
X149018Y421781D01*
X148964Y421697D01*
X148914Y421611D01*
X148867Y421523D01*
X148823Y421433D01*
X148783Y421342D01*
X148747Y421249D01*
X148714Y421155D01*
X148685Y421059D01*
X148660Y420963D01*
X148639Y420866D01*
X148621Y420767D01*
X148608Y420669D01*
X148598Y420569D01*
X148592Y420470D01*
X148590Y420370D01*
X196850Y369570D02*
X196848Y369470D01*
X196842Y369371D01*
X196832Y369271D01*
X196819Y369173D01*
X196801Y369074D01*
X196780Y368977D01*
X196755Y368881D01*
X196726Y368785D01*
X196693Y368691D01*
X196657Y368598D01*
X196617Y368507D01*
X196573Y368417D01*
X196526Y368329D01*
X196476Y368243D01*
X196422Y368159D01*
X196365Y368077D01*
X196305Y367998D01*
X196241Y367920D01*
X196175Y367846D01*
X196106Y367774D01*
X196034Y367705D01*
X195960Y367639D01*
X195882Y367575D01*
X195803Y367515D01*
X195721Y367458D01*
X195637Y367404D01*
X195551Y367354D01*
X195463Y367307D01*
X195373Y367263D01*
X195282Y367223D01*
X195189Y367187D01*
X195095Y367154D01*
X194999Y367125D01*
X194903Y367100D01*
X194806Y367079D01*
X194707Y367061D01*
X194609Y367048D01*
X194509Y367038D01*
X194410Y367032D01*
X194310Y367030D01*
X151130Y367030D02*
X151030Y367032D01*
X150931Y367038D01*
X150831Y367048D01*
X150733Y367061D01*
X150634Y367079D01*
X150537Y367100D01*
X150441Y367125D01*
X150345Y367154D01*
X150251Y367187D01*
X150158Y367223D01*
X150067Y367263D01*
X149977Y367307D01*
X149889Y367354D01*
X149803Y367404D01*
X149719Y367458D01*
X149637Y367515D01*
X149558Y367575D01*
X149480Y367639D01*
X149406Y367705D01*
X149334Y367774D01*
X149265Y367846D01*
X149199Y367920D01*
X149135Y367998D01*
X149075Y368077D01*
X149018Y368159D01*
X148964Y368243D01*
X148914Y368329D01*
X148867Y368417D01*
X148823Y368507D01*
X148783Y368598D01*
X148747Y368691D01*
X148714Y368785D01*
X148685Y368881D01*
X148660Y368977D01*
X148639Y369074D01*
X148621Y369173D01*
X148608Y369271D01*
X148598Y369371D01*
X148592Y369470D01*
X148590Y369570D01*
X175260Y394970D02*
X176530Y394970D01*
D12*
X175260Y394970D02*
X175260Y402590D01*
X175260Y394970D02*
X175260Y387350D01*
X170180Y394970D02*
X170180Y402590D01*
X170180Y394970D02*
X170180Y387350D01*
D10*
X170180Y394970D02*
X168910Y394970D01*
D13*
X184792Y436888D02*
X182885Y438795D01*
X179072Y438795D01*
X177165Y436888D01*
X177165Y429262D01*
X179072Y427355D01*
X182885Y427355D01*
X184792Y429262D01*
X188859Y436888D02*
X190766Y438795D01*
X194579Y438795D01*
X196485Y436888D01*
X196485Y434982D01*
X194579Y433075D01*
X192672Y433075D01*
X194579Y433075D02*
X196485Y431168D01*
X196485Y429262D01*
X194579Y427355D01*
X190766Y427355D01*
X188859Y429262D01*
D10*
X554990Y86360D02*
X598170Y86360D01*
X598170Y116840D02*
X554990Y116840D01*
X552450Y114300D02*
X552450Y88900D01*
X600710Y88900D02*
X600710Y114300D01*
X554990Y86360D02*
X554890Y86362D01*
X554791Y86368D01*
X554691Y86378D01*
X554593Y86391D01*
X554494Y86409D01*
X554397Y86430D01*
X554301Y86455D01*
X554205Y86484D01*
X554111Y86517D01*
X554018Y86553D01*
X553927Y86593D01*
X553837Y86637D01*
X553749Y86684D01*
X553663Y86734D01*
X553579Y86788D01*
X553497Y86845D01*
X553418Y86905D01*
X553340Y86969D01*
X553266Y87035D01*
X553194Y87104D01*
X553125Y87176D01*
X553059Y87250D01*
X552995Y87328D01*
X552935Y87407D01*
X552878Y87489D01*
X552824Y87573D01*
X552774Y87659D01*
X552727Y87747D01*
X552683Y87837D01*
X552643Y87928D01*
X552607Y88021D01*
X552574Y88115D01*
X552545Y88211D01*
X552520Y88307D01*
X552499Y88404D01*
X552481Y88503D01*
X552468Y88601D01*
X552458Y88701D01*
X552452Y88800D01*
X552450Y88900D01*
X598170Y86360D02*
X598270Y86362D01*
X598369Y86368D01*
X598469Y86378D01*
X598567Y86391D01*
X598666Y86409D01*
X598763Y86430D01*
X598859Y86455D01*
X598955Y86484D01*
X599049Y86517D01*
X599142Y86553D01*
X599233Y86593D01*
X599323Y86637D01*
X599411Y86684D01*
X599497Y86734D01*
X599581Y86788D01*
X599663Y86845D01*
X599742Y86905D01*
X599820Y86969D01*
X599894Y87035D01*
X599966Y87104D01*
X600035Y87176D01*
X600101Y87250D01*
X600165Y87328D01*
X600225Y87407D01*
X600282Y87489D01*
X600336Y87573D01*
X600386Y87659D01*
X600433Y87747D01*
X600477Y87837D01*
X600517Y87928D01*
X600553Y88021D01*
X600586Y88115D01*
X600615Y88211D01*
X600640Y88307D01*
X600661Y88404D01*
X600679Y88503D01*
X600692Y88601D01*
X600702Y88701D01*
X600708Y88800D01*
X600710Y88900D01*
X554990Y116840D02*
X554890Y116838D01*
X554791Y116832D01*
X554691Y116822D01*
X554593Y116809D01*
X554494Y116791D01*
X554397Y116770D01*
X554301Y116745D01*
X554205Y116716D01*
X554111Y116683D01*
X554018Y116647D01*
X553927Y116607D01*
X553837Y116563D01*
X553749Y116516D01*
X553663Y116466D01*
X553579Y116412D01*
X553497Y116355D01*
X553418Y116295D01*
X553340Y116231D01*
X553266Y116165D01*
X553194Y116096D01*
X553125Y116024D01*
X553059Y115950D01*
X552995Y115872D01*
X552935Y115793D01*
X552878Y115711D01*
X552824Y115627D01*
X552774Y115541D01*
X552727Y115453D01*
X552683Y115363D01*
X552643Y115272D01*
X552607Y115179D01*
X552574Y115085D01*
X552545Y114989D01*
X552520Y114893D01*
X552499Y114796D01*
X552481Y114697D01*
X552468Y114599D01*
X552458Y114499D01*
X552452Y114400D01*
X552450Y114300D01*
X598170Y116840D02*
X598270Y116838D01*
X598369Y116832D01*
X598469Y116822D01*
X598567Y116809D01*
X598666Y116791D01*
X598763Y116770D01*
X598859Y116745D01*
X598955Y116716D01*
X599049Y116683D01*
X599142Y116647D01*
X599233Y116607D01*
X599323Y116563D01*
X599411Y116516D01*
X599497Y116466D01*
X599581Y116412D01*
X599663Y116355D01*
X599742Y116295D01*
X599820Y116231D01*
X599894Y116165D01*
X599966Y116096D01*
X600035Y116024D01*
X600101Y115950D01*
X600165Y115872D01*
X600225Y115793D01*
X600282Y115711D01*
X600336Y115627D01*
X600386Y115541D01*
X600433Y115453D01*
X600477Y115363D01*
X600517Y115272D01*
X600553Y115179D01*
X600586Y115085D01*
X600615Y114989D01*
X600640Y114893D01*
X600661Y114796D01*
X600679Y114697D01*
X600692Y114599D01*
X600702Y114499D01*
X600708Y114400D01*
X600710Y114300D01*
X574040Y101600D02*
X572770Y101600D01*
D12*
X574040Y101600D02*
X574040Y93980D01*
X574040Y101600D02*
X574040Y109220D01*
X579120Y101600D02*
X579120Y93980D01*
X579120Y101600D02*
X579120Y109220D01*
D10*
X579120Y101600D02*
X580390Y101600D01*
D13*
X577964Y132088D02*
X576057Y133995D01*
X572244Y133995D01*
X570337Y132088D01*
X570337Y124462D01*
X572244Y122555D01*
X576057Y122555D01*
X577964Y124462D01*
X587751Y122555D02*
X587751Y133995D01*
X582031Y128275D01*
X589658Y128275D01*
D14*
X119330Y306252D02*
X119330Y420188D01*
X35930Y420188D01*
X35930Y306252D01*
X119330Y306252D01*
D15*
X113030Y312420D03*
D11*
X26162Y347218D02*
X14468Y347218D01*
X26162Y347218D02*
X26162Y353065D01*
X24213Y355014D01*
X16417Y355014D01*
X14468Y353065D01*
X14468Y347218D01*
X14468Y364759D02*
X16417Y366708D01*
X14468Y364759D02*
X14468Y360861D01*
X16417Y358912D01*
X24213Y358912D01*
X26162Y360861D01*
X26162Y364759D01*
X24213Y366708D01*
X18366Y370606D02*
X14468Y374504D01*
X26162Y374504D01*
X26162Y370606D02*
X26162Y378402D01*
D13*
X57788Y584835D02*
X57788Y596275D01*
X53975Y596275D02*
X61602Y596275D01*
X65669Y596275D02*
X65669Y584835D01*
X65669Y596275D02*
X71389Y596275D01*
X73295Y594368D01*
X73295Y590555D01*
X71389Y588648D01*
X65669Y588648D01*
X77363Y592462D02*
X81176Y596275D01*
X81176Y584835D01*
X77363Y584835D02*
X84989Y584835D01*
X57788Y635635D02*
X57788Y647075D01*
X53975Y647075D02*
X61602Y647075D01*
X65669Y647075D02*
X65669Y635635D01*
X65669Y647075D02*
X71389Y647075D01*
X73295Y645168D01*
X73295Y641355D01*
X71389Y639448D01*
X65669Y639448D01*
X77363Y635635D02*
X84989Y635635D01*
X77363Y635635D02*
X84989Y643262D01*
X84989Y645168D01*
X83083Y647075D01*
X79270Y647075D01*
X77363Y645168D01*
X556898Y644525D02*
X556898Y655965D01*
X553085Y655965D02*
X560712Y655965D01*
X564779Y655965D02*
X564779Y644525D01*
X564779Y655965D02*
X570499Y655965D01*
X572405Y654058D01*
X572405Y650245D01*
X570499Y648338D01*
X564779Y648338D01*
X576473Y654058D02*
X578380Y655965D01*
X582193Y655965D01*
X584099Y654058D01*
X584099Y652152D01*
X582193Y650245D01*
X580286Y650245D01*
X582193Y650245D02*
X584099Y648338D01*
X584099Y646432D01*
X582193Y644525D01*
X578380Y644525D01*
X576473Y646432D01*
X597538Y644525D02*
X597538Y655965D01*
X593725Y655965D02*
X601352Y655965D01*
X605419Y655965D02*
X605419Y644525D01*
X605419Y655965D02*
X611139Y655965D01*
X613045Y654058D01*
X613045Y650245D01*
X611139Y648338D01*
X605419Y648338D01*
X622833Y644525D02*
X622833Y655965D01*
X617113Y650245D01*
X624739Y650245D01*
X628653Y227975D02*
X628653Y216535D01*
X624840Y227975D02*
X632467Y227975D01*
X636534Y227975D02*
X636534Y216535D01*
X636534Y227975D02*
X642254Y227975D01*
X644160Y226068D01*
X644160Y222255D01*
X642254Y220348D01*
X636534Y220348D01*
X648228Y227975D02*
X655854Y227975D01*
X648228Y227975D02*
X648228Y222255D01*
X652041Y224162D01*
X653948Y224162D01*
X655854Y222255D01*
X655854Y218442D01*
X653948Y216535D01*
X650135Y216535D01*
X648228Y218442D01*
X57788Y521335D02*
X57788Y532775D01*
X53975Y532775D02*
X61602Y532775D01*
X65669Y532775D02*
X65669Y521335D01*
X65669Y532775D02*
X71389Y532775D01*
X73295Y530868D01*
X73295Y527055D01*
X71389Y525148D01*
X65669Y525148D01*
X81176Y530868D02*
X84989Y532775D01*
X81176Y530868D02*
X77363Y527055D01*
X77363Y523242D01*
X79270Y521335D01*
X83083Y521335D01*
X84989Y523242D01*
X84989Y525148D01*
X83083Y527055D01*
X77363Y527055D01*
X57788Y207655D02*
X57788Y196215D01*
X53975Y207655D02*
X61602Y207655D01*
X65669Y207655D02*
X65669Y196215D01*
X65669Y207655D02*
X71389Y207655D01*
X73295Y205748D01*
X73295Y201935D01*
X71389Y200028D01*
X65669Y200028D01*
X77363Y207655D02*
X84989Y207655D01*
X84989Y205748D01*
X77363Y198122D01*
X77363Y196215D01*
D10*
X580390Y270510D02*
X580390Y448310D01*
X521970Y448310D02*
X521970Y270510D01*
X580390Y270510D01*
X580390Y448310D02*
X561340Y448310D01*
X541020Y448310D02*
X521970Y448310D01*
X541020Y448310D02*
X541023Y448063D01*
X541032Y447815D01*
X541047Y447568D01*
X541068Y447322D01*
X541095Y447076D01*
X541128Y446831D01*
X541167Y446586D01*
X541212Y446343D01*
X541263Y446101D01*
X541320Y445860D01*
X541382Y445621D01*
X541451Y445383D01*
X541525Y445147D01*
X541605Y444913D01*
X541690Y444681D01*
X541782Y444451D01*
X541878Y444223D01*
X541981Y443998D01*
X542088Y443775D01*
X542202Y443555D01*
X542320Y443338D01*
X542444Y443123D01*
X542573Y442912D01*
X542707Y442704D01*
X542846Y442499D01*
X542990Y442298D01*
X543138Y442100D01*
X543292Y441906D01*
X543450Y441716D01*
X543613Y441530D01*
X543780Y441348D01*
X543952Y441170D01*
X544128Y440996D01*
X544308Y440826D01*
X544493Y440661D01*
X544681Y440501D01*
X544873Y440345D01*
X545069Y440193D01*
X545268Y440047D01*
X545471Y439905D01*
X545678Y439769D01*
X545887Y439637D01*
X546100Y439511D01*
X546316Y439390D01*
X546534Y439274D01*
X546756Y439164D01*
X546980Y439059D01*
X547206Y438959D01*
X547435Y438865D01*
X547666Y438777D01*
X547900Y438694D01*
X548135Y438617D01*
X548372Y438546D01*
X548610Y438480D01*
X548850Y438421D01*
X549092Y438367D01*
X549335Y438319D01*
X549578Y438277D01*
X549823Y438241D01*
X550069Y438211D01*
X550315Y438187D01*
X550562Y438169D01*
X550809Y438157D01*
X551056Y438151D01*
X551304Y438151D01*
X551551Y438157D01*
X551798Y438169D01*
X552045Y438187D01*
X552291Y438211D01*
X552537Y438241D01*
X552782Y438277D01*
X553025Y438319D01*
X553268Y438367D01*
X553510Y438421D01*
X553750Y438480D01*
X553988Y438546D01*
X554225Y438617D01*
X554460Y438694D01*
X554694Y438777D01*
X554925Y438865D01*
X555154Y438959D01*
X555380Y439059D01*
X555604Y439164D01*
X555826Y439274D01*
X556044Y439390D01*
X556260Y439511D01*
X556473Y439637D01*
X556682Y439769D01*
X556889Y439905D01*
X557092Y440047D01*
X557291Y440193D01*
X557487Y440345D01*
X557679Y440501D01*
X557867Y440661D01*
X558052Y440826D01*
X558232Y440996D01*
X558408Y441170D01*
X558580Y441348D01*
X558747Y441530D01*
X558910Y441716D01*
X559068Y441906D01*
X559222Y442100D01*
X559370Y442298D01*
X559514Y442499D01*
X559653Y442704D01*
X559787Y442912D01*
X559916Y443123D01*
X560040Y443338D01*
X560158Y443555D01*
X560272Y443775D01*
X560379Y443998D01*
X560482Y444223D01*
X560578Y444451D01*
X560670Y444681D01*
X560755Y444913D01*
X560835Y445147D01*
X560909Y445383D01*
X560978Y445621D01*
X561040Y445860D01*
X561097Y446101D01*
X561148Y446343D01*
X561193Y446586D01*
X561232Y446831D01*
X561265Y447076D01*
X561292Y447322D01*
X561313Y447568D01*
X561328Y447815D01*
X561337Y448063D01*
X561340Y448310D01*
D13*
X508635Y454662D02*
X508635Y464195D01*
X508635Y454662D02*
X510542Y452755D01*
X514355Y452755D01*
X516262Y454662D01*
X516262Y464195D01*
X520329Y452755D02*
X527955Y452755D01*
X520329Y452755D02*
X527955Y460382D01*
X527955Y462288D01*
X526049Y464195D01*
X522236Y464195D01*
X520329Y462288D01*
D10*
X134620Y464820D02*
X93980Y464820D01*
X93980Y439420D01*
X134620Y439420D01*
X134620Y464820D01*
X120650Y452120D02*
X114300Y452120D01*
X104140Y445770D02*
X104140Y458470D01*
X114300Y452120D01*
X99060Y452120D01*
X104140Y445770D02*
X114300Y452120D01*
X114300Y445770D01*
X114300Y452120D02*
X114300Y458470D01*
D16*
X128270Y452120D03*
D17*
X84455Y452120D03*
X144145Y452120D03*
D13*
X67417Y440065D02*
X67417Y428625D01*
X73137Y428625D01*
X75044Y430532D01*
X75044Y438158D01*
X73137Y440065D01*
X67417Y440065D01*
X79111Y436252D02*
X82924Y440065D01*
X82924Y428625D01*
X79111Y428625D02*
X86738Y428625D01*
D10*
X615950Y33020D02*
X615950Y-2540D01*
X604520Y-2540D01*
X542290Y-2540D02*
X542290Y33020D01*
X544830Y0D02*
X572770Y0D01*
X553720Y-2540D02*
X553720Y-5080D01*
X566420Y-5080D01*
X604520Y-5080D02*
X604520Y-2540D01*
X542290Y-2540D01*
X566420Y-5080D02*
X566420Y-8890D01*
X566420Y-5080D02*
X591820Y-5080D01*
X591820Y-8890D02*
X566420Y-8890D01*
X591820Y-8890D02*
X591820Y-5080D01*
X604520Y-5080D01*
X572770Y0D02*
X572770Y10160D01*
X572770Y0D02*
X585470Y0D01*
X585470Y10160D02*
X572770Y10160D01*
X585470Y10160D02*
X585470Y0D01*
X613410Y0D01*
X552450Y33020D02*
X544830Y33020D01*
X552450Y33020D02*
X552450Y35560D01*
X560070Y35560D01*
X560070Y33020D01*
X571500Y33020D01*
X571500Y30480D01*
X586740Y30480D01*
X586740Y33020D01*
X596900Y33020D01*
X596900Y35560D01*
X605790Y35560D01*
X605790Y33020D01*
X613410Y33020D01*
X544830Y33020D02*
X544830Y27940D01*
X544830Y12700D02*
X544830Y0D01*
X613410Y0D02*
X613410Y12700D01*
X613410Y27940D02*
X613410Y33020D01*
D13*
X561982Y68588D02*
X560075Y70495D01*
X556262Y70495D01*
X554355Y68588D01*
X554355Y66682D01*
X556262Y64775D01*
X560075Y64775D01*
X561982Y62868D01*
X561982Y60962D01*
X560075Y59055D01*
X556262Y59055D01*
X554355Y60962D01*
X566049Y66682D02*
X569862Y70495D01*
X569862Y59055D01*
X566049Y59055D02*
X573675Y59055D01*
D10*
X463550Y746760D02*
X393700Y746760D01*
X317500Y746760D01*
X247650Y746760D01*
X247650Y124460D02*
X463550Y124460D01*
X247650Y124460D02*
X247650Y746760D01*
X463550Y746760D02*
X463550Y124460D01*
D13*
X393700Y695960D02*
X317500Y695960D01*
X317500Y746760D01*
X393700Y746760D02*
X393700Y695960D01*
D18*
X199286Y705868D02*
X199286Y719215D01*
X199286Y705868D02*
X201955Y703199D01*
X207294Y703199D01*
X209963Y705868D01*
X209963Y719215D01*
X215657Y713876D02*
X220996Y719215D01*
X220996Y703199D01*
X215657Y703199D02*
X226335Y703199D01*
D10*
X397510Y67310D02*
X440690Y67310D01*
X440690Y97790D02*
X397510Y97790D01*
X394970Y95250D02*
X394970Y69850D01*
X443230Y69850D02*
X443230Y95250D01*
X397510Y67310D02*
X397410Y67312D01*
X397311Y67318D01*
X397211Y67328D01*
X397113Y67341D01*
X397014Y67359D01*
X396917Y67380D01*
X396821Y67405D01*
X396725Y67434D01*
X396631Y67467D01*
X396538Y67503D01*
X396447Y67543D01*
X396357Y67587D01*
X396269Y67634D01*
X396183Y67684D01*
X396099Y67738D01*
X396017Y67795D01*
X395938Y67855D01*
X395860Y67919D01*
X395786Y67985D01*
X395714Y68054D01*
X395645Y68126D01*
X395579Y68200D01*
X395515Y68278D01*
X395455Y68357D01*
X395398Y68439D01*
X395344Y68523D01*
X395294Y68609D01*
X395247Y68697D01*
X395203Y68787D01*
X395163Y68878D01*
X395127Y68971D01*
X395094Y69065D01*
X395065Y69161D01*
X395040Y69257D01*
X395019Y69354D01*
X395001Y69453D01*
X394988Y69551D01*
X394978Y69651D01*
X394972Y69750D01*
X394970Y69850D01*
X440690Y67310D02*
X440790Y67312D01*
X440889Y67318D01*
X440989Y67328D01*
X441087Y67341D01*
X441186Y67359D01*
X441283Y67380D01*
X441379Y67405D01*
X441475Y67434D01*
X441569Y67467D01*
X441662Y67503D01*
X441753Y67543D01*
X441843Y67587D01*
X441931Y67634D01*
X442017Y67684D01*
X442101Y67738D01*
X442183Y67795D01*
X442262Y67855D01*
X442340Y67919D01*
X442414Y67985D01*
X442486Y68054D01*
X442555Y68126D01*
X442621Y68200D01*
X442685Y68278D01*
X442745Y68357D01*
X442802Y68439D01*
X442856Y68523D01*
X442906Y68609D01*
X442953Y68697D01*
X442997Y68787D01*
X443037Y68878D01*
X443073Y68971D01*
X443106Y69065D01*
X443135Y69161D01*
X443160Y69257D01*
X443181Y69354D01*
X443199Y69453D01*
X443212Y69551D01*
X443222Y69651D01*
X443228Y69750D01*
X443230Y69850D01*
X397510Y97790D02*
X397410Y97788D01*
X397311Y97782D01*
X397211Y97772D01*
X397113Y97759D01*
X397014Y97741D01*
X396917Y97720D01*
X396821Y97695D01*
X396725Y97666D01*
X396631Y97633D01*
X396538Y97597D01*
X396447Y97557D01*
X396357Y97513D01*
X396269Y97466D01*
X396183Y97416D01*
X396099Y97362D01*
X396017Y97305D01*
X395938Y97245D01*
X395860Y97181D01*
X395786Y97115D01*
X395714Y97046D01*
X395645Y96974D01*
X395579Y96900D01*
X395515Y96822D01*
X395455Y96743D01*
X395398Y96661D01*
X395344Y96577D01*
X395294Y96491D01*
X395247Y96403D01*
X395203Y96313D01*
X395163Y96222D01*
X395127Y96129D01*
X395094Y96035D01*
X395065Y95939D01*
X395040Y95843D01*
X395019Y95746D01*
X395001Y95647D01*
X394988Y95549D01*
X394978Y95449D01*
X394972Y95350D01*
X394970Y95250D01*
X440690Y97790D02*
X440790Y97788D01*
X440889Y97782D01*
X440989Y97772D01*
X441087Y97759D01*
X441186Y97741D01*
X441283Y97720D01*
X441379Y97695D01*
X441475Y97666D01*
X441569Y97633D01*
X441662Y97597D01*
X441753Y97557D01*
X441843Y97513D01*
X441931Y97466D01*
X442017Y97416D01*
X442101Y97362D01*
X442183Y97305D01*
X442262Y97245D01*
X442340Y97181D01*
X442414Y97115D01*
X442486Y97046D01*
X442555Y96974D01*
X442621Y96900D01*
X442685Y96822D01*
X442745Y96743D01*
X442802Y96661D01*
X442856Y96577D01*
X442906Y96491D01*
X442953Y96403D01*
X442997Y96313D01*
X443037Y96222D01*
X443073Y96129D01*
X443106Y96035D01*
X443135Y95939D01*
X443160Y95843D01*
X443181Y95746D01*
X443199Y95647D01*
X443212Y95549D01*
X443222Y95449D01*
X443228Y95350D01*
X443230Y95250D01*
X416560Y82550D02*
X415290Y82550D01*
D12*
X416560Y82550D02*
X416560Y74930D01*
X416560Y82550D02*
X416560Y90170D01*
X421640Y82550D02*
X421640Y74930D01*
X421640Y82550D02*
X421640Y90170D01*
D10*
X421640Y82550D02*
X422910Y82550D01*
D13*
X420484Y113038D02*
X418577Y114945D01*
X414764Y114945D01*
X412857Y113038D01*
X412857Y105412D01*
X414764Y103505D01*
X418577Y103505D01*
X420484Y105412D01*
X424551Y114945D02*
X432178Y114945D01*
X424551Y114945D02*
X424551Y109225D01*
X428364Y111132D01*
X430271Y111132D01*
X432178Y109225D01*
X432178Y105412D01*
X430271Y103505D01*
X426458Y103505D01*
X424551Y105412D01*
D10*
X455930Y33020D02*
X455930Y-2540D01*
X444500Y-2540D01*
X382270Y-2540D02*
X382270Y33020D01*
X384810Y0D02*
X412750Y0D01*
X393700Y-2540D02*
X393700Y-5080D01*
X406400Y-5080D01*
X444500Y-5080D02*
X444500Y-2540D01*
X382270Y-2540D01*
X406400Y-5080D02*
X406400Y-8890D01*
X406400Y-5080D02*
X431800Y-5080D01*
X431800Y-8890D02*
X406400Y-8890D01*
X431800Y-8890D02*
X431800Y-5080D01*
X444500Y-5080D01*
X412750Y0D02*
X412750Y10160D01*
X412750Y0D02*
X425450Y0D01*
X425450Y10160D02*
X412750Y10160D01*
X425450Y10160D02*
X425450Y0D01*
X453390Y0D01*
X392430Y33020D02*
X384810Y33020D01*
X392430Y33020D02*
X392430Y35560D01*
X400050Y35560D01*
X400050Y33020D01*
X411480Y33020D01*
X411480Y30480D01*
X426720Y30480D01*
X426720Y33020D01*
X436880Y33020D01*
X436880Y35560D01*
X445770Y35560D01*
X445770Y33020D01*
X453390Y33020D01*
X384810Y33020D02*
X384810Y27940D01*
X384810Y12700D02*
X384810Y0D01*
X453390Y0D02*
X453390Y12700D01*
X453390Y27940D02*
X453390Y33020D01*
D13*
X414662Y55888D02*
X412755Y57795D01*
X408942Y57795D01*
X407035Y55888D01*
X407035Y53982D01*
X408942Y52075D01*
X412755Y52075D01*
X414662Y50168D01*
X414662Y48262D01*
X412755Y46355D01*
X408942Y46355D01*
X407035Y48262D01*
X418729Y55888D02*
X420636Y57795D01*
X424449Y57795D01*
X426355Y55888D01*
X426355Y53982D01*
X424449Y52075D01*
X422542Y52075D01*
X424449Y52075D02*
X426355Y50168D01*
X426355Y48262D01*
X424449Y46355D01*
X420636Y46355D01*
X418729Y48262D01*
X330708Y73787D02*
X192532Y73787D01*
X192532Y8763D01*
X248920Y8763D01*
X299720Y8763D01*
X330708Y8763D01*
X330708Y73787D01*
X299720Y8763D02*
X299720Y-81153D01*
X248920Y-81153D02*
X248920Y8763D01*
X248920Y-81153D02*
X299720Y-81153D01*
X282689Y97163D02*
X280782Y99070D01*
X276969Y99070D01*
X275062Y97163D01*
X275062Y95257D01*
X276969Y93350D01*
X280782Y93350D01*
X282689Y91443D01*
X282689Y89537D01*
X280782Y87630D01*
X276969Y87630D01*
X275062Y89537D01*
X286756Y87630D02*
X294383Y87630D01*
X286756Y87630D02*
X294383Y95257D01*
X294383Y97163D01*
X292476Y99070D01*
X288663Y99070D01*
X286756Y97163D01*
D10*
X78740Y162560D02*
X78640Y162558D01*
X78541Y162552D01*
X78441Y162542D01*
X78343Y162529D01*
X78244Y162511D01*
X78147Y162490D01*
X78051Y162465D01*
X77955Y162436D01*
X77861Y162403D01*
X77768Y162367D01*
X77677Y162327D01*
X77587Y162283D01*
X77499Y162236D01*
X77413Y162186D01*
X77329Y162132D01*
X77247Y162075D01*
X77168Y162015D01*
X77090Y161951D01*
X77016Y161885D01*
X76944Y161816D01*
X76875Y161744D01*
X76809Y161670D01*
X76745Y161592D01*
X76685Y161513D01*
X76628Y161431D01*
X76574Y161347D01*
X76524Y161261D01*
X76477Y161173D01*
X76433Y161083D01*
X76393Y160992D01*
X76357Y160899D01*
X76324Y160805D01*
X76295Y160709D01*
X76270Y160613D01*
X76249Y160516D01*
X76231Y160417D01*
X76218Y160319D01*
X76208Y160219D01*
X76202Y160120D01*
X76200Y160020D01*
X76200Y144780D02*
X76202Y144680D01*
X76208Y144581D01*
X76218Y144481D01*
X76231Y144383D01*
X76249Y144284D01*
X76270Y144187D01*
X76295Y144091D01*
X76324Y143995D01*
X76357Y143901D01*
X76393Y143808D01*
X76433Y143717D01*
X76477Y143627D01*
X76524Y143539D01*
X76574Y143453D01*
X76628Y143369D01*
X76685Y143287D01*
X76745Y143208D01*
X76809Y143130D01*
X76875Y143056D01*
X76944Y142984D01*
X77016Y142915D01*
X77090Y142849D01*
X77168Y142785D01*
X77247Y142725D01*
X77329Y142668D01*
X77413Y142614D01*
X77499Y142564D01*
X77587Y142517D01*
X77677Y142473D01*
X77768Y142433D01*
X77861Y142397D01*
X77955Y142364D01*
X78051Y142335D01*
X78147Y142310D01*
X78244Y142289D01*
X78343Y142271D01*
X78441Y142258D01*
X78541Y142248D01*
X78640Y142242D01*
X78740Y142240D01*
X124460Y142240D02*
X124560Y142242D01*
X124659Y142248D01*
X124759Y142258D01*
X124857Y142271D01*
X124956Y142289D01*
X125053Y142310D01*
X125149Y142335D01*
X125245Y142364D01*
X125339Y142397D01*
X125432Y142433D01*
X125523Y142473D01*
X125613Y142517D01*
X125701Y142564D01*
X125787Y142614D01*
X125871Y142668D01*
X125953Y142725D01*
X126032Y142785D01*
X126110Y142849D01*
X126184Y142915D01*
X126256Y142984D01*
X126325Y143056D01*
X126391Y143130D01*
X126455Y143208D01*
X126515Y143287D01*
X126572Y143369D01*
X126626Y143453D01*
X126676Y143539D01*
X126723Y143627D01*
X126767Y143717D01*
X126807Y143808D01*
X126843Y143901D01*
X126876Y143995D01*
X126905Y144091D01*
X126930Y144187D01*
X126951Y144284D01*
X126969Y144383D01*
X126982Y144481D01*
X126992Y144581D01*
X126998Y144680D01*
X127000Y144780D01*
X127000Y160020D02*
X126998Y160120D01*
X126992Y160219D01*
X126982Y160319D01*
X126969Y160417D01*
X126951Y160516D01*
X126930Y160613D01*
X126905Y160709D01*
X126876Y160805D01*
X126843Y160899D01*
X126807Y160992D01*
X126767Y161083D01*
X126723Y161173D01*
X126676Y161261D01*
X126626Y161347D01*
X126572Y161431D01*
X126515Y161513D01*
X126455Y161592D01*
X126391Y161670D01*
X126325Y161744D01*
X126256Y161816D01*
X126184Y161885D01*
X126110Y161951D01*
X126032Y162015D01*
X125953Y162075D01*
X125871Y162132D01*
X125787Y162186D01*
X125701Y162236D01*
X125613Y162283D01*
X125523Y162327D01*
X125432Y162367D01*
X125339Y162403D01*
X125245Y162436D01*
X125149Y162465D01*
X125053Y162490D01*
X124956Y162511D01*
X124857Y162529D01*
X124759Y162542D01*
X124659Y162552D01*
X124560Y162558D01*
X124460Y162560D01*
X76200Y160020D02*
X76200Y144780D01*
X78740Y162560D02*
X82550Y162560D01*
X83820Y161290D01*
X82550Y142240D02*
X78740Y142240D01*
X82550Y142240D02*
X83820Y143510D01*
X119380Y161290D02*
X120650Y162560D01*
X119380Y161290D02*
X83820Y161290D01*
X119380Y143510D02*
X120650Y142240D01*
X119380Y143510D02*
X83820Y143510D01*
X120650Y162560D02*
X124460Y162560D01*
X124460Y142240D02*
X120650Y142240D01*
X127000Y144780D02*
X127000Y160020D01*
D19*
X128905Y152400D03*
X74295Y152400D03*
D13*
X86360Y165989D02*
X86360Y177429D01*
X92080Y177429D01*
X93987Y175522D01*
X93987Y171709D01*
X92080Y169802D01*
X86360Y169802D01*
X90173Y169802D02*
X93987Y165989D01*
X98054Y173616D02*
X101867Y177429D01*
X101867Y165989D01*
X98054Y165989D02*
X105680Y165989D01*
D10*
X127000Y106680D02*
X126998Y106580D01*
X126992Y106481D01*
X126982Y106381D01*
X126969Y106283D01*
X126951Y106184D01*
X126930Y106087D01*
X126905Y105991D01*
X126876Y105895D01*
X126843Y105801D01*
X126807Y105708D01*
X126767Y105617D01*
X126723Y105527D01*
X126676Y105439D01*
X126626Y105353D01*
X126572Y105269D01*
X126515Y105187D01*
X126455Y105108D01*
X126391Y105030D01*
X126325Y104956D01*
X126256Y104884D01*
X126184Y104815D01*
X126110Y104749D01*
X126032Y104685D01*
X125953Y104625D01*
X125871Y104568D01*
X125787Y104514D01*
X125701Y104464D01*
X125613Y104417D01*
X125523Y104373D01*
X125432Y104333D01*
X125339Y104297D01*
X125245Y104264D01*
X125149Y104235D01*
X125053Y104210D01*
X124956Y104189D01*
X124857Y104171D01*
X124759Y104158D01*
X124659Y104148D01*
X124560Y104142D01*
X124460Y104140D01*
X127000Y121920D02*
X126998Y122020D01*
X126992Y122119D01*
X126982Y122219D01*
X126969Y122317D01*
X126951Y122416D01*
X126930Y122513D01*
X126905Y122609D01*
X126876Y122705D01*
X126843Y122799D01*
X126807Y122892D01*
X126767Y122983D01*
X126723Y123073D01*
X126676Y123161D01*
X126626Y123247D01*
X126572Y123331D01*
X126515Y123413D01*
X126455Y123492D01*
X126391Y123570D01*
X126325Y123644D01*
X126256Y123716D01*
X126184Y123785D01*
X126110Y123851D01*
X126032Y123915D01*
X125953Y123975D01*
X125871Y124032D01*
X125787Y124086D01*
X125701Y124136D01*
X125613Y124183D01*
X125523Y124227D01*
X125432Y124267D01*
X125339Y124303D01*
X125245Y124336D01*
X125149Y124365D01*
X125053Y124390D01*
X124956Y124411D01*
X124857Y124429D01*
X124759Y124442D01*
X124659Y124452D01*
X124560Y124458D01*
X124460Y124460D01*
X78740Y124460D02*
X78640Y124458D01*
X78541Y124452D01*
X78441Y124442D01*
X78343Y124429D01*
X78244Y124411D01*
X78147Y124390D01*
X78051Y124365D01*
X77955Y124336D01*
X77861Y124303D01*
X77768Y124267D01*
X77677Y124227D01*
X77587Y124183D01*
X77499Y124136D01*
X77413Y124086D01*
X77329Y124032D01*
X77247Y123975D01*
X77168Y123915D01*
X77090Y123851D01*
X77016Y123785D01*
X76944Y123716D01*
X76875Y123644D01*
X76809Y123570D01*
X76745Y123492D01*
X76685Y123413D01*
X76628Y123331D01*
X76574Y123247D01*
X76524Y123161D01*
X76477Y123073D01*
X76433Y122983D01*
X76393Y122892D01*
X76357Y122799D01*
X76324Y122705D01*
X76295Y122609D01*
X76270Y122513D01*
X76249Y122416D01*
X76231Y122317D01*
X76218Y122219D01*
X76208Y122119D01*
X76202Y122020D01*
X76200Y121920D01*
X76200Y106680D02*
X76202Y106580D01*
X76208Y106481D01*
X76218Y106381D01*
X76231Y106283D01*
X76249Y106184D01*
X76270Y106087D01*
X76295Y105991D01*
X76324Y105895D01*
X76357Y105801D01*
X76393Y105708D01*
X76433Y105617D01*
X76477Y105527D01*
X76524Y105439D01*
X76574Y105353D01*
X76628Y105269D01*
X76685Y105187D01*
X76745Y105108D01*
X76809Y105030D01*
X76875Y104956D01*
X76944Y104884D01*
X77016Y104815D01*
X77090Y104749D01*
X77168Y104685D01*
X77247Y104625D01*
X77329Y104568D01*
X77413Y104514D01*
X77499Y104464D01*
X77587Y104417D01*
X77677Y104373D01*
X77768Y104333D01*
X77861Y104297D01*
X77955Y104264D01*
X78051Y104235D01*
X78147Y104210D01*
X78244Y104189D01*
X78343Y104171D01*
X78441Y104158D01*
X78541Y104148D01*
X78640Y104142D01*
X78740Y104140D01*
X127000Y106680D02*
X127000Y121920D01*
X124460Y104140D02*
X120650Y104140D01*
X119380Y105410D01*
X120650Y124460D02*
X124460Y124460D01*
X120650Y124460D02*
X119380Y123190D01*
X83820Y105410D02*
X82550Y104140D01*
X83820Y105410D02*
X119380Y105410D01*
X83820Y123190D02*
X82550Y124460D01*
X83820Y123190D02*
X119380Y123190D01*
X82550Y104140D02*
X78740Y104140D01*
X78740Y124460D02*
X82550Y124460D01*
X76200Y121920D02*
X76200Y106680D01*
D19*
X74295Y114300D03*
X128905Y114300D03*
D13*
X85197Y127381D02*
X85197Y138821D01*
X90917Y138821D01*
X92824Y136914D01*
X92824Y133101D01*
X90917Y131194D01*
X85197Y131194D01*
X89010Y131194D02*
X92824Y127381D01*
X96891Y127381D02*
X104518Y127381D01*
X96891Y127381D02*
X104518Y135008D01*
X104518Y136914D01*
X102611Y138821D01*
X98798Y138821D01*
X96891Y136914D01*
M02*
