G04 EAGLE Gerber RS-274X export*
G75*
%MOMM*%
%FSLAX34Y34*%
%LPD*%
%INSoldermask Bottom*%
%IPPOS*%
%AMOC8*
5,1,8,0,0,1.08239X$1,22.5*%
G01*
%ADD10C,3.454400*%
%ADD11C,4.114800*%
%ADD12P,1.896997X8X22.500000*%
%ADD13P,1.896997X8X202.500000*%
%ADD14C,1.828800*%
%ADD15P,2.501836X8X22.500000*%
%ADD16C,1.371600*%
%ADD17P,1.814519X8X22.500000*%
%ADD18C,2.400300*%
%ADD19C,1.502400*%
%ADD20P,1.704548X8X202.500000*%
%ADD21P,2.113255X8X202.500000*%
%ADD22P,1.484606X8X22.500000*%
%ADD23P,1.484606X8X202.500000*%


D10*
X119380Y683260D03*
X500380Y683260D03*
D11*
X198120Y538480D03*
X538480Y538480D03*
X198120Y198120D03*
X538480Y198120D03*
D10*
X119380Y48260D03*
X500380Y48260D03*
D12*
X582295Y478790D03*
X607695Y478790D03*
X158750Y300990D03*
X184150Y300990D03*
X160020Y394970D03*
X185420Y394970D03*
D13*
X589280Y101600D03*
X563880Y101600D03*
D14*
X100330Y337820D03*
X100330Y363220D03*
X100330Y388620D03*
D15*
X63500Y571500D03*
X63500Y622300D03*
X571500Y673100D03*
X596900Y673100D03*
X640715Y247650D03*
X63500Y508000D03*
X69850Y222250D03*
D16*
X506984Y435610D02*
X519176Y435610D01*
X519176Y410210D02*
X506984Y410210D01*
X506984Y283210D02*
X519176Y283210D01*
X583184Y283210D02*
X595376Y283210D01*
X519176Y384810D02*
X506984Y384810D01*
X506984Y359410D02*
X519176Y359410D01*
X519176Y308610D02*
X506984Y308610D01*
X506984Y334010D02*
X519176Y334010D01*
X583184Y308610D02*
X595376Y308610D01*
X595376Y334010D02*
X583184Y334010D01*
X583184Y359410D02*
X595376Y359410D01*
X595376Y384810D02*
X583184Y384810D01*
X583184Y410210D02*
X595376Y410210D01*
X595376Y435610D02*
X583184Y435610D01*
D14*
X63500Y452120D03*
X165100Y452120D03*
D17*
X556514Y20574D03*
X601726Y20574D03*
D18*
X544068Y45466D03*
X614172Y45466D03*
D19*
X451250Y295910D02*
X437750Y295910D01*
X437750Y321310D02*
X451250Y321310D01*
X451250Y346710D02*
X437750Y346710D01*
X437750Y372110D02*
X451250Y372110D01*
X451250Y397510D02*
X437750Y397510D01*
X437750Y422910D02*
X451250Y422910D01*
X451250Y448310D02*
X437750Y448310D01*
X437750Y473710D02*
X451250Y473710D01*
X451250Y499110D02*
X437750Y499110D01*
X437750Y524510D02*
X451250Y524510D01*
X273450Y524510D02*
X259950Y524510D01*
X259950Y499110D02*
X273450Y499110D01*
X273450Y473710D02*
X259950Y473710D01*
X259950Y448310D02*
X273450Y448310D01*
X273450Y422910D02*
X259950Y422910D01*
X259950Y397510D02*
X273450Y397510D01*
X273450Y372110D02*
X259950Y372110D01*
X259950Y346710D02*
X273450Y346710D01*
X273450Y321310D02*
X259950Y321310D01*
X259950Y295910D02*
X273450Y295910D01*
X387350Y157880D02*
X387350Y144380D01*
X412750Y144380D02*
X412750Y157880D01*
X437750Y549910D02*
X451250Y549910D01*
X451250Y575310D02*
X437750Y575310D01*
X273450Y270510D02*
X259950Y270510D01*
X259950Y245110D02*
X273450Y245110D01*
X273450Y219710D02*
X259950Y219710D01*
X259950Y194310D02*
X273450Y194310D01*
X273450Y168910D02*
X259950Y168910D01*
X259950Y143510D02*
X273450Y143510D01*
X437750Y270510D02*
X451250Y270510D01*
X451250Y245110D02*
X437750Y245110D01*
X437750Y219710D02*
X451250Y219710D01*
X451250Y194310D02*
X437750Y194310D01*
X437750Y168910D02*
X451250Y168910D01*
X451250Y143510D02*
X437750Y143510D01*
X437750Y600710D02*
X451250Y600710D01*
X451250Y626110D02*
X437750Y626110D01*
X437750Y651510D02*
X451250Y651510D01*
X451250Y676910D02*
X437750Y676910D01*
X437750Y702310D02*
X451250Y702310D01*
X451250Y727710D02*
X437750Y727710D01*
X273450Y549910D02*
X259950Y549910D01*
X259950Y575310D02*
X273450Y575310D01*
X273450Y600710D02*
X259950Y600710D01*
X259950Y626110D02*
X273450Y626110D01*
X273450Y651510D02*
X259950Y651510D01*
X259950Y676910D02*
X273450Y676910D01*
X273450Y702310D02*
X259950Y702310D01*
X259950Y727710D02*
X273450Y727710D01*
D13*
X431800Y82550D03*
X406400Y82550D03*
D17*
X396494Y20574D03*
X441706Y20574D03*
D18*
X384048Y45466D03*
X454152Y45466D03*
D20*
X261620Y53772D03*
X221615Y53772D03*
X301625Y53772D03*
X261620Y28778D03*
X301625Y28778D03*
X221615Y28778D03*
D21*
X201620Y11275D03*
X201620Y71275D03*
X321620Y71275D03*
X321620Y11275D03*
D22*
X63500Y152400D03*
X139700Y152400D03*
D23*
X139700Y114300D03*
X63500Y114300D03*
M02*
