M48
;GenerationSoftware,Autodesk,EAGLE,9.6.0*%
;CreationDate,2021-02-08T15:02:43Z*%
FMAT,2
ICI,OFF
METRIC,TZ,000.000
T10C0.813
T9C0.900
T8C1.000
T7C1.016
T6C1.118
T5C1.200
T4C1.321
T3C1.499
T2C3.302
T1C3.962
%
G90
M71
T1
X19812Y53848
X53848Y53848
X19812Y19812
X53848Y19812
T2
X11938Y68326
X50038Y68326
X11938Y4826
X50038Y4826
T3
X38405Y4547
X45415Y4547
X54407Y4547
X61417Y4547
T4
X6350Y57150
X6350Y62230
X57150Y67310
X59690Y67310
X64071Y24765
X6350Y50800
X6985Y22225
T5
X32162Y1128
X32162Y7127
X20162Y7127
X20162Y1128
T6
X6350Y45212
X16510Y45212
T7
X44171Y2057
X39649Y2057
X55651Y2057
X60173Y2057
T8
X10033Y33782
X10033Y36322
X10033Y38862
T9
X26670Y57531
X26670Y60071
X26670Y62611
X26670Y65151
X26670Y67691
X26670Y70231
X26670Y47371
X26670Y72771
X26162Y5377
X22161Y5377
X30162Y5377
X26162Y2878
X30162Y2878
X22161Y2878
X44450Y29591
X44450Y32131
X44450Y34671
X44450Y37211
X44450Y39751
X44450Y42291
X44450Y44831
X44450Y47371
X44450Y49911
X44450Y52451
X26670Y52451
X26670Y49911
X44450Y72771
X26670Y44831
X26670Y42291
X26670Y39751
X26670Y37211
X26670Y34671
X26670Y32131
X26670Y29591
X38735Y15113
X41275Y15113
X44450Y54991
X44450Y57531
X26670Y27051
X26670Y24511
X26670Y21971
X26670Y19431
X26670Y16891
X26670Y14351
X44450Y27051
X44450Y24511
X44450Y21971
X44450Y19431
X44450Y16891
X44450Y14351
X44450Y60071
X44450Y62611
X44450Y65151
X44450Y67691
X44450Y70231
X26670Y54991
T10
X58229Y47879
X60769Y47879
X15875Y30099
X18415Y30099
X16002Y39497
X18542Y39497
X56388Y10160
X51308Y43561
X51308Y41021
X51308Y28321
X58928Y28321
X51308Y38481
X51308Y35941
X58928Y10160
X58928Y43561
X43180Y8255
X40640Y8255
X58928Y41021
X58928Y38481
X58928Y35941
X58928Y33401
X58928Y30861
X51308Y33401
X51308Y30861
X6350Y15240
X13970Y15240
X13970Y11430
X6350Y11430
M30